<svg width="845" height="176" viewBox="0 0 845 176" fill="none" xmlns="http://www.w3.org/2000/svg">
<g clip-path="url(#clip0_294_5)">
<path d="M657.428 7.7439H610.777L797.821 175.912H844.472L657.428 7.7439ZM711.472 127.424L657.516 175.912H610.865L664.733 127.424H711.472ZM790.603 56.2319L844.56 7.7439H797.909L743.952 56.2319H790.603ZM116.892 7.7439L97.7911 35.1119L195.23 175.912H233.783L116.892 7.7439ZM67.424 78.9359H105.625L38.5531 175.912H0L67.424 78.9359ZM468.623 7.7439L449.522 35.1119L546.961 175.912H585.515L468.623 7.7439ZM419.155 78.9359H457.356L390.284 175.912H351.731L419.155 78.9359ZM310.097 7.7439L310.185 110.704C310.097 127.424 302.264 148.28 275.945 150.04H266.351V175.912C266.351 175.912 274.713 175.912 280.17 176C292.845 176.176 311.154 170.016 322.508 157.872C338.44 140.976 340.377 119.416 340.377 109.032V7.7439H310.097Z" fill="black"/>
</g>
<defs>
<clipPath id="clip0_294_5">
<rect width="845" height="176" fill="white"/>
</clipPath>
</defs>
</svg>
