<svg width="789" height="176" viewBox="0 0 789 176" fill="none" xmlns="http://www.w3.org/2000/svg">
<g clip-path="url(#clip0_303_254)">
<path d="M172.75 1.6604C182.198 1.6604 191.646 1.6604 202.125 2.26066C241.957 8.30302 273.918 41.3429 277.465 79.6766C281.364 121.829 258.115 159.144 219.536 172.502C213.978 174.426 208.281 175.951 202.648 177.66C193.2 177.66 183.752 177.66 173.399 177.055C160.946 171.695 149.397 166.941 137.856 161.656C136.161 159.992 134.459 158.858 132.67 157.173C130.465 155.303 128.347 153.984 126.306 152.181C125.128 150.322 123.873 148.947 122.485 147.004C120.883 144.714 119.414 142.993 117.722 140.789C116.115 138.927 114.73 137.546 113.463 135.577C112.282 132.74 110.986 130.492 109.672 127.655C108.5 125.659 107.345 124.253 106.446 122.203C106.466 119.367 106.228 117.175 106.004 114.351C104.82 111.03 103.622 108.341 102.616 105.036C102.357 101.561 101.904 98.7015 101.517 95.1541C101.457 91.7001 101.333 88.9339 101.326 85.5497C101.918 81.5791 102.395 78.2265 103.18 74.3055C104.302 69.4731 105.115 65.2091 106.177 60.4245C108.584 54.8845 110.741 49.8651 113.456 44.6994C122.51 35.2859 131.007 26.0188 140.088 16.6387C147.258 13.253 153.796 9.87866 160.448 6.74527C164.457 4.85663 168.643 3.34271 172.75 1.6604ZM234.044 59.3023C231.278 56.2278 228.743 52.9008 225.706 50.121C209.402 35.1949 190.532 32.3877 170.298 39.9462C150.421 47.3717 139.175 62.5206 136.448 83.3011C133.406 106.476 147.034 129.831 167.632 138.607C190.42 148.317 215.161 142.459 231.454 123.498C246.292 106.23 247.587 80.8832 234.044 59.3023Z" fill="black"/>
<path d="M339.566 177.66C331.801 175.212 324.748 172.765 317.231 170.156C317.231 114.746 317.231 58.9812 317.246 2.43844C323.395 1.6604 329.529 1.6604 336.428 1.6604C338.328 4.31951 340.405 6.96445 340.445 9.64002C340.729 28.5523 340.596 47.4708 340.596 67.9947C351.903 54.8052 365.068 50.2082 380.578 51.6621C402.32 53.7003 417.199 66.6295 422.071 87.9624C425.498 102.964 425.979 117.995 422.249 133.027C416.182 157.488 398.872 172.116 370.66 177.057C369.169 177.66 367.923 177.66 365.683 177.083C359.399 176.891 354.11 177.276 348.821 177.66C345.973 177.66 343.126 177.66 339.566 177.66ZM365.52 157.702C383.107 155.449 394.932 145.692 397.984 128.469C399.953 117.354 399.693 105.323 397.761 94.1652C395.068 78.6109 385.156 71.5503 370.659 71.6049C356.167 71.6594 342.953 80.334 341.652 94.6991C339.831 114.81 341.192 135.209 341.192 156.654C348.784 157.072 356.41 157.493 365.52 157.702Z" fill="black"/>
<path d="M745.812 5.90415C741.701 5.33187 750.618 6.91202 745.812 5.90415C776.979 10.242 787.857 26.7184 787.667 58.5109C787.485 88.8727 769.434 109.603 739.752 112.898C729.937 113.988 719.993 113.916 709.085 114.422C709.085 133.433 709.085 153.441 709.085 174.266C700.561 174.266 693.001 174.266 685.053 174.266C685.053 118.152 685.053 62.4485 685.053 5.90414C690.312 5.23103 740.024 5.90415 745.812 5.90415ZM708.531 28.1632C708.531 49.5887 708.531 71.0143 708.531 93.862C718.241 93.4334 727.02 93.5869 735.653 92.5391C748.914 90.9294 758.362 83.6043 761.669 70.487C765.253 56.2738 764.69 42.3473 752.755 31.5676C750.011 29.0888 746.222 26.615 742.731 26.3235C731.33 25.3716 720.621 25.0859 708.439 24.9057C708.439 24.9057 708.439 26.566 708.531 28.1632Z" fill="#D30F15"/>
<path d="M460.89 177.66C458.351 176.628 456.708 175.223 454.81 174.622C440.888 170.205 432.117 161.264 430.1 146.532C427.843 130.048 432.53 116.403 447.282 107.376C460.849 99.0732 475.777 97.6135 491.239 99.1295C494.217 99.4216 497.218 99.4833 500.191 99.6503C501.931 80.2727 493.804 70.439 474.617 70.3524C464.535 70.3069 454.442 72.6988 442.773 74.1925C441.505 69.502 439.979 63.859 438.124 56.9953C461.635 51.2775 484.221 47.0362 506.21 59.0333C518.339 65.6509 522.638 77.7799 522.954 90.5664C523.615 117.352 523.154 144.166 523.154 171.648C514.88 173.261 506.824 174.831 498.542 177.031C486.1 177.66 473.884 177.66 460.89 177.66ZM453.479 146.452C457.523 150.24 461.194 156.662 465.683 157.296C476.866 158.873 488.42 157.815 499.858 157.815C499.858 143.466 499.858 130.896 499.858 117.974C489.535 117.974 479.531 116.748 469.961 118.264C455.843 120.5 450.091 130.932 453.479 146.452Z" fill="black"/>
<path d="M547.264 177.66C541.271 175.733 536.056 173.805 529.614 171.424C531.217 165.757 532.878 159.88 534.089 155.599C547.774 156.485 560.227 157.749 572.688 157.834C576.704 157.861 581.277 155.51 584.667 152.996C594.726 145.537 593.875 132.603 582.907 126.443C577.678 123.506 571.695 121.923 566.087 119.644C560.985 117.57 555.833 115.583 550.871 113.208C537.709 106.908 531.328 96.6426 533.124 81.8315C534.811 67.9201 543.128 59.2056 555.871 55.1252C574.43 49.1828 592.819 51.7225 611.927 57.9753C610.175 63.9436 608.581 69.3729 606.86 75.2363C599.794 73.6548 593.48 71.4482 587.047 71.0153C580.027 70.5429 572.57 70.6172 565.939 72.589C562.105 73.7289 557.336 78.8624 556.96 82.5981C556.53 86.8666 559.401 92.9357 562.854 95.7598C567.323 99.4156 573.76 100.705 579.4 102.881C582.992 104.267 586.708 105.33 590.315 106.683C607.093 112.975 614.468 122.558 614.727 138.292C614.982 153.832 606.386 166.671 591.171 172.882C587.125 174.533 582.715 175.292 578.259 177.06C568.045 177.66 558.043 177.66 547.264 177.66Z" fill="black"/>
<path d="M105.684 1.6604C107.275 2.46948 108.243 3.27855 108.695 3.657C74.7821 37.6417 40.7263 71.7695 6.57277 105.995C3.12941 101.507 5.49286 98.0226 9.41199 94.137C40.0475 63.7643 70.5246 33.2319 101.187 2.20457C102.57 1.6604 103.816 1.6604 105.684 1.6604Z" fill="#444444"/>
<path d="M87.4127 1.6604C86.8647 4.23432 86.2982 7.40637 84.4312 9.29144C60.7011 33.2514 36.8195 57.0623 12.8361 80.7693C11.2136 82.3731 8.4657 82.8392 6.24121 83.8345C6.6085 81.2329 6.00561 77.6746 7.48797 76.1728C31.3775 51.9699 55.5253 28.0215 79.6616 4.06281C80.3811 3.34855 81.6116 3.14862 82.8282 2.18464C84.2983 1.6604 85.5441 1.6604 87.4127 1.6604Z" fill="#444444"/>
<path d="M76.962 177.66C76.9173 175.317 76.6427 172.219 78.0592 170.75C89.2634 159.132 100.79 147.824 112.782 136.293C114.73 137.546 116.115 138.927 117.382 141.213C104.754 153.965 92.2423 165.813 79.7305 177.66C78.9922 177.66 78.254 177.66 76.962 177.66Z" fill="#444444"/>
<path d="M80.478 177.66C92.2424 165.813 104.754 153.965 117.606 141.694C119.414 142.992 120.883 144.714 121.92 147.279C113.475 156.114 105.393 164.04 97.511 172.159C96.1366 173.575 95.6023 175.806 94.6801 177.66C90.1952 177.66 85.7103 177.66 80.478 177.66Z" fill="#F4F4F4"/>
<path d="M95.3445 177.66C95.6024 175.806 96.1366 173.575 97.511 172.159C105.393 164.04 113.475 156.114 122.054 147.848C123.873 148.947 125.128 150.322 126.306 152.181C118.069 160.646 109.908 168.626 101.536 177.133C99.5525 177.66 97.7807 177.66 95.3445 177.66Z" fill="#444444"/>
<path d="M648.019 172.688C647.93 118.402 647.841 64.1163 648.644 9.06764C656.688 8.30287 663.841 8.3011 670.994 8.29932C671.116 47.701 671.254 87.1026 671.35 126.504C671.387 141.387 671.328 156.27 670.468 171.913C662.422 172.678 655.221 172.683 648.019 172.688Z" fill="#D20B12"/>
<path d="M671.065 8.30184C663.972 8.96828 656.552 9.13588 648.641 9.13205C655.204 3.55646 663.253 5.77983 671.065 8.30184Z" fill="#D10303"/>
<path d="M648.073 173.345C655.221 172.683 662.422 172.678 670.309 172.678C663.678 178.42 655.887 175.938 648.073 173.345Z" fill="#D10303"/>
<path d="M234.363 59.8176C247.587 80.8832 246.292 106.23 231.454 123.498C215.161 142.459 190.42 148.317 167.632 138.607C147.034 129.831 133.406 106.476 136.448 83.3011C139.175 62.5206 150.421 47.3717 170.298 39.9462C190.532 32.3877 209.402 35.1949 225.706 50.121C228.743 52.9008 231.278 56.2278 234.363 59.8176ZM204.317 112.494C205.603 111.449 206.954 110.474 208.165 109.347C218.036 100.158 219.799 86.8112 212.67 75.5123C205.514 64.1704 191.588 59.7577 179.34 64.951C165.58 70.7855 159.177 86.3865 164.907 100.121C171.012 114.756 186.917 120.124 204.317 112.494Z" fill="#565655"/>
<path d="M113.456 44.6993C105.827 51.3284 98.5413 57.5953 91.7215 64.3329C68.3438 87.4291 45.1314 110.693 21.8447 133.881C20.9218 134.8 19.8838 135.603 18.8489 136.505C14.9161 133.284 14.28 130.828 18.1266 127.022C55.4208 90.1176 92.5879 53.0845 129.611 15.9087C133.24 12.2644 135.907 12.4 139.377 16.141C131.007 26.0187 122.51 35.2858 113.456 44.6993Z" fill="#444444"/>
<path d="M103.18 74.3056C88.6285 88.6516 74.2656 102.308 60.1823 116.246C49.4138 126.904 38.9989 137.918 28.1115 149.098C25.8481 146.724 24.4158 145.222 23.1245 143.868C50.5635 116.156 77.7154 88.7337 105.397 61.1284C105.114 65.2091 104.302 69.4731 103.18 74.3056Z" fill="#444444"/>
<path d="M101.516 95.1539C81.8952 115.265 62.2778 134.628 42.8376 154.168C39.313 157.71 36.5258 159.449 33.314 153.967C55.6232 131.539 77.9271 109.118 100.72 86.4316C101.333 88.9336 101.457 91.6999 101.516 95.1539Z" fill="#444444"/>
<path d="M106.004 114.351C103.805 116.185 101.213 116.972 99.4964 118.652C84.5249 133.313 69.5947 148.021 54.9293 162.986C51.2231 166.768 48.4552 167.245 44.9419 162.956C63.8125 143.951 82.6078 125.021 101.914 105.871C103.622 108.341 104.82 111.03 106.004 114.351Z" fill="#444444"/>
<path d="M109.672 127.655C95.9119 142.161 82.2694 156.218 68.2055 169.839C66.2187 171.764 62.1764 171.567 59.0855 172.352C58.8376 171.544 58.5897 170.735 58.3418 169.927C73.9253 154.302 89.5089 138.677 105.641 122.949C107.345 124.253 108.5 125.66 109.672 127.655Z" fill="#444444"/>
<path d="M137.856 161.656C132.441 166.102 127.034 170.017 121.626 173.933C120.858 172.994 120.089 172.055 119.32 171.116C123.464 166.801 127.607 162.486 132.254 157.947C134.459 158.858 136.161 159.992 137.856 161.656Z" fill="#444444"/>
<path d="M26.0381 109.046C21.3358 114.12 17.0552 118.784 12.3825 123.875C8.45771 119.169 8.12521 116.422 11.9896 112.603C46.2359 78.7613 80.2593 44.6943 114.396 10.742C117.578 7.57755 121.065 4.60285 125.69 8.75999C92.608 42.0575 59.5339 75.3468 26.0381 109.046Z" fill="#444444"/>
<path d="M16.3059 46.3223C27.1154 35.5736 37.2793 25.0043 48.0541 15.0992C52.032 11.4424 57.4489 9.34974 62.2095 6.5437C63.3417 7.90774 64.4739 9.27178 65.606 10.6358C46.8515 28.2904 28.097 45.9449 9.34242 63.5994C8.85377 63.2935 8.36512 62.9876 7.87646 62.6817C10.5519 57.3762 13.2272 52.0707 16.3059 46.3223Z" fill="#444444"/>
<path d="M364.778 157.808C356.41 157.493 348.784 157.072 341.193 156.654C341.193 135.209 339.831 114.81 341.652 94.6991C342.953 80.3339 356.167 71.6594 370.659 71.6048C385.156 71.5502 395.068 78.6108 397.761 94.1651C399.693 105.323 399.953 117.354 397.984 128.468C394.932 145.692 383.107 155.449 364.778 157.808Z" fill="#FCFCFC"/>
<path d="M708.027 25.1731C708.404 25.3768 708.416 25.6559 708.24 26.3093C707.725 26.3475 707.399 26.0115 707.073 25.6754C707.269 25.5331 707.466 25.3908 708.027 25.1731Z" fill="#D10000"/>
<path d="M453.365 145.808C450.091 130.932 455.843 120.5 469.961 118.264C479.531 116.748 489.535 117.974 499.858 117.974C499.858 130.896 499.858 143.466 499.858 157.815C488.42 157.815 476.866 158.873 465.683 157.295C461.194 156.662 457.523 150.24 453.365 145.808Z" fill="#FBFBFB"/>
<path d="M202.959 79.1384C209.429 82.2325 208.223 88.1639 207.555 93.3013C206.615 100.54 201.687 104.883 194.878 107.077C187.086 109.587 180.735 106.831 175.715 101.025C170.464 94.9522 169.946 86.0232 174.81 79.5898C179.212 73.7684 184.745 69.296 193.146 73.4325C186.953 75.6585 184.157 80.2891 186.714 85.6731C188.071 88.5319 193.629 91.3276 196.901 90.932C203.035 90.1904 204.844 85.1166 202.959 79.1384Z" fill="black"/>
<path d="M202.836 78.5833C204.843 85.1167 203.035 90.1905 196.901 90.9321C193.629 91.3277 188.071 88.5321 186.714 85.6732C184.157 80.2892 186.953 75.6586 193.678 73.7744C196.915 74.897 199.814 76.4626 202.836 78.5833Z" fill="#CC210F"/>
</g>
<defs>
<clipPath id="clip0_303_254">
<rect width="789" height="176" fill="white"/>
</clipPath>
</defs>
</svg>
