<svg width="590" height="176" viewBox="0 0 590 176" fill="none" xmlns="http://www.w3.org/2000/svg">
<g clip-path="url(#clip0_295_48)">
<path d="M219.9 99L250.8 3H214.7L196.4 59.9L196.2 57.7L196.1 55.6L195.8 53.6L195.5 51.5L195.1 49.5L194.6 47.4L194.1 45.4L193.5 43.4L192.8 41.4L192.2 39.5L191.3 37.5L190.5 35.6L189.5 33.8L188.5 31.9L187.4 30L186.3 28.2L183.9 25L181.3 22L178.7 19.2L175.6 16.5L172.6 14L169.4 11.8L165.9 9.8L162.3 7.9L158.6 6.2L154.8 4.7L150.9 3.5L146.9 2.4L142.7 1.6L138.4 0.8L134.1 0.400001L129.7 0.2L125.1 0L120.5 0.2L115.9 0.5L111.2 1L106.6 1.7L101.9 2.6L97.1 3.7L92.4 5.1L87.6 6.6L82.8 8.3L78.1 10.3L73.3 12.5L68.5 14.8L63.9 17.4L59.3 20.1L54.7 23.1L50.2 26.2L46 29.4L41.9 32.8L37.9 36.3L34.1 39.8L30.5 43.5L27.1 47.3L24 51.2L20.9 55.2L18 59.1L15.5 63.2L13 67.2L10.8 71.4L8.8 75.6L6.9 79.8L5.3 84L3.8 88.1L2.6 92.4L1.7 96.6L1 100.8L0.4 105L0.2 109.2L0 113.2L0.2 117.2L0.599999 121.2L1.3 125.1L2 129.1L3.1 132.8L4.6 136.4L6.2 140.1L8.1 143.6L10.2 147L12.4 150.1L14.9 153L17.5 155.8L20.3 158.3L23.2 160.7L26.2 162.9L29.4 164.9L32.8 166.8L36.3 168.5L39.8 170L43.6 171.3L47.4 172.4L51.3 173.3L55.4 174.1L59.4 174.8L63.6 175.1L67.9 175.3H72.1L76.5 175.2L81 174.9L85.4 174.4L89.9 173.6L94.4 172.9L99 171.8L103.5 170.5L108 169.1L112.6 167.5L117.2 165.6L121.6 163.7L126.1 161.5L130.6 159.1L135.1 156.6V149.4L131.3 151.4L127.6 153.2L123.8 154.9L120 156.4L116.1 157.8L112.3 159L108.5 160.1L104.7 161L100.8 161.8L97.1 162.4L93.4 162.9L89.6 163.2L85.9 163.4H82.3L78.6 163.3L75.1 162.9L71.6 162.5L68.2 161.9L64.9 161.2L61.6 160.4L58.4 159.2L55.3 158.1L52.3 156.8L49.3 155.3L46.5 153.7L43.9 152L41.2 150.1L38.7 147.9L36.4 145.7L34.2 143.4L32.1 140.9L30.2 138.2L28.3 135.3L26.7 132.2L25.3 129.1L24.1 125.8L23.1 122.5L22.3 119.1L21.7 115.6L21.4 112.2L21.2 108.6V105L21.4 101.4L21.8 97.7L22.5 94.2L23.3 90.5L24.3 86.8L25.4 83.1L26.9 79.5L28.3 75.8L30.1 72.2L32 68.7L34 65.1L36.4 61.6L38.7 58.2L41.3 54.8L44.1 51.5L47 48.2L50.1 45L53.4 41.8L56.7 38.8L60.3 35.9L64 33.1L67.8 30.5L71.7 27.9L75.7 25.5L79.7 23.3L83.9 21.3L87.9 19.5L92 17.8L96.2 16.4L100.3 15L104.4 13.9L108.6 12.9L112.6 12.2L116.7 11.6L120.8 11.1L124.8 10.9H128.7L132.6 11L136.4 11.2L140.2 11.7L143.9 12.3L147.5 13.1L151.1 14.1L154.4 15.2L157.8 16.6L161 18L164.1 19.8L167 21.5L169.8 23.5L172.6 25.8L175.1 28.1L177.5 30.5L179.8 33.2L181.8 36.2L183.5 38.7L184.9 41.3L186.2 43.9L187.3 46.7L188.2 49.3L188.9 52.1L189.5 55.1L190 58L190.4 61L190.5 64L190.6 67.1L190.5 70.2L190.3 73.5L189.9 76.7L189.5 80L188.9 83.3L188.2 86.9L187.1 90.5L186 94L184.8 97.3L183.5 100.6L181.9 103.8L180.2 106.9L178.4 110.1L176.4 113.1L174.3 116.1L172.1 119L169.6 121.9L166.9 124.7L164.1 127.5L161.2 130.2L158.1 132.8L159.5 133.2L161 133.4L162.4 133.6L164 133.9L165.7 134.1L167.4 134.3H169.1H170.7H173.2L175.5 134.2L178 134L180.3 133.5L182 133.2L183.8 132.8L185.5 132.4L187.1 131.8L188.7 131.3L190.4 130.6L191.9 130L193.5 129.2L195.1 128.4L196.5 127.6L198 126.7L199.5 125.7L200.9 124.8L202.2 123.8L203.6 122.7L204.9 121.6L206.1 120.4L207.4 119.2L208.6 118L209.7 116.8L210.8 115.4L212 114.1L213 112.7L213.8 111.3L214.9 109.8L215.7 108.3L216.5 106.9L217.3 105.4L218 103.8L218.7 102.2L219.3 100.6L219.9 99Z" fill="#D31B18"/>
<path d="M374.399 134.3H374.699H374.799H375.199H377.799L380.499 134.1L383.099 133.8L385.699 133.2L388.199 132.6L390.699 132L393.199 131L395.599 130.2L397.999 129.1L400.199 127.9L402.399 126.6L404.699 125.3L406.699 123.8L408.699 122.3L410.699 120.6L412.499 118.8L408.399 131.8H444.099L475.099 36.5996H438.799L422.099 88.3996L421.899 88.9996L421.199 91.2996L420.499 92.8996L419.799 94.4996L418.899 95.9996L417.799 97.3996L416.699 98.7996L415.499 99.9996L414.299 101.2L412.899 102.2L411.499 103.3L409.899 104.1L408.399 104.8L406.699 105.5L404.999 106L403.299 106.5L401.499 106.7L399.599 106.9L398.799 106.8L398.099 106.6L397.299 106.4L396.499 106L395.799 105.7L395.199 105.2L394.599 104.8L393.999 104.3L393.499 103.5L392.999 103L392.699 102.2L392.399 101.5L391.999 100.8L391.899 99.8996L391.799 99.0996L391.699 98.1996L391.899 96.7996L392.299 95.2996L410.999 36.5996H374.899L353.399 103.5L352.999 104.6L352.799 105.7L352.599 106.7L352.499 107.8L352.099 109.2L351.899 110.5L351.699 111.7V113.1L351.799 115.2L352.099 117.2L352.599 119.2L353.199 121.1L353.999 122.9L354.999 124.7L356.299 126.3L357.499 127.7L358.899 129.1L360.499 130.3L362.199 131.4L363.999 132.3L365.899 133L367.799 133.5L369.799 134L371.899 134.1L372.799 134.3H373.899H374.099H374.399Z" fill="#2C211A"/>
<path d="M327.401 36.5997H327.201H327.001L324.201 36.6997L321.501 36.8997L318.901 37.2997L316.301 37.6997L313.701 38.2997L311.201 39.0997L308.801 39.7997L306.301 40.7997L304.001 41.9997L301.701 43.0997L299.501 44.3997L297.401 45.7997L295.201 47.2997L293.301 48.8997L291.401 50.6997L289.601 52.4997L305.201 2.69971H269.101L227.301 134.3H263.401L279.701 82.5997L279.901 82.2997V82.0997L280.701 79.5997L281.401 78.0997L282.301 76.4997L283.201 75.0997L284.201 73.5997L285.201 72.1997L286.401 70.9997L287.701 69.8997L289.101 68.7997L290.401 67.7997L292.001 66.8997L293.501 66.1997L295.101 65.5997L296.801 64.9997L298.601 64.4997L300.401 64.1997L302.201 64.0997L303.101 64.1997L303.801 64.3997L304.601 64.6997L305.401 64.9997L306.101 65.3997L306.701 65.8997L307.401 66.2997L308.001 66.8997L308.501 67.5997L309.001 68.0997L309.401 68.8997L309.801 69.5997L310.001 70.2997L310.201 71.1997L310.301 71.8997V72.6997L310.201 74.2997L309.901 75.6997L290.901 134.3H327.201L348.701 67.5997L349.001 66.5997L349.301 65.5997L349.501 64.3997L349.701 63.2997L350.001 62.0997L350.201 60.6997L350.301 59.2997L350.501 57.9997L350.301 55.7997L350.001 53.6997L349.501 51.7997L348.901 49.8997L348.001 48.0997L347.001 46.4997L345.701 44.7997L344.401 43.2997L343.101 41.9997L341.501 40.6997L339.801 39.6997L338.101 38.6997L336.101 38.0997L334.201 37.4997L332.201 36.9997L330.101 36.7997H329.101L328.201 36.5997H327.801H327.401Z" fill="#2C211A"/>
<path d="M364.2 166.5V162.4H374.5V171.1V172.1V175.5H370.7V174L369.3 174.7L367.7 175.3L366.9 175.5L366 175.6L365.2 175.7H364.4L362.5 175.6L360.8 175.4L360 175.2L359.2 174.9L358.5 174.6L357.8 174.3L357.1 173.9L356.4 173.4L355.8 173L355.3 172.4L354.9 171.7L354.4 171.2L354 170.5L353.7 169.8L353 168.3L352.5 166.6L352.3 165L352.2 163.2L352.3 161.4L352.7 159.6L353.1 158L353.8 156.4L354.2 155.7L354.6 155L355.1 154.4L355.7 153.8L356.3 153.2L357 152.6L357.7 152.2L358.5 151.9L359.6 151.4L361 150.9L362.5 150.7H364.1H365.2L366.2 150.8L367.1 150.9L368 151.1L368.9 151.3L369.7 151.6L370.4 152.1L371.1 152.5L371.7 152.9L372.2 153.5L372.7 154L373.1 154.7L373.4 155.4L373.7 156.1L373.9 156.9L374.1 157.8L370.1 158.6L369.7 157.7L369.3 156.9L368.8 156.3L368.1 155.7L367.2 155.3L366.3 155L365.3 154.8H364H363.2L362.5 154.9L361.7 155.1L361 155.3L360.3 155.6L359.7 155.9L359.1 156.3L358.6 156.8L358 157.5L357.7 158.1L357.4 158.8L357.1 159.6L356.9 160.5L356.8 161.3L356.7 162.2V163.2V164.1L356.8 165L356.9 165.8L357.1 166.7L357.4 167.5L357.7 168.2L358.2 168.9L358.6 169.6L359.1 170L359.7 170.4L360.3 170.7L361 171.1L361.7 171.3L362.5 171.5L363.2 171.6H364L365.3 171.5L366.3 171.4L367.2 171.3L368.1 171.1L368.8 170.7L369.4 170.4L370 170L370.6 169.6V166.6H364.2V166.5ZM324.5 163.4V162.6L324.6 161.7L324.8 160.9L324.9 160L325.6 158.2L326.4 156.5L326.8 155.7L327.3 154.9L327.8 154.2L328.5 153.5L329.2 152.9L329.9 152.4L330.7 151.9L331.3 151.5L332.6 151.2L333.8 150.9L335 150.7H336.5H337.8L339 150.9L340.2 151.2L341.3 151.6L342.3 152.1L343.3 152.8L344.2 153.5L345.1 154.4L345.8 155.3L346.5 156.2L347 157.2L347.6 158.3L347.9 159.6L348.1 160.8L348.3 162V163.3V164.6L348.1 165.8L347.9 167L347.6 168.1L347 169.2L346.5 170.2L345.9 171.2L345.1 172.1L344.3 172.9L343.3 173.6L342.4 174.3L341.3 174.9L340.2 175.2L339 175.5L337.8 175.7H336.5H335.3L334.1 175.5L332.9 175.2L331.8 174.9L330.7 174.3L329.7 173.8L328.8 173L328 172.2L327.2 171.3L326.5 170.4L325.9 169.4L325.5 168.3L325.2 167.2L324.9 166L324.8 164.7L324.5 163.4ZM329.4 163.3L329.5 164.9L329.8 166.3L330 167.1L330.3 167.8L330.6 168.5L331 169L331.5 169.6L332.1 170.2L332.7 170.6L333.4 171L334.1 171.3L334.8 171.5L335.7 171.6L336.5 171.7L337.4 171.6L338.2 171.5L339 171.3L339.7 171L340.4 170.6L341 170.2L341.4 169.6L342 169L342.3 168.4L342.6 167.7L342.9 167L343.1 166.3L343.4 164.7L343.5 163.2L343.4 161.6L343.1 160.2L342.9 159.4L342.6 158.7L342.3 158.2L342 157.5L341.6 157L341 156.5L340.4 156.1L339.7 155.8L339 155.5L338.2 155.3L337.4 155.2L336.5 155.1L335.6 155.2L334.8 155.3L334 155.5L333.3 155.8L332.7 156.1L332 156.5L331.6 157.1L331.1 157.7L330.7 158.3L330.4 159L330.1 159.6L329.9 160.3L329.6 161.8L329.4 163.3ZM255.4 175.4V151H259.6L270.8 167.3V151H275.3V175.4H270.9L259.9 159.6V175.4H255.4ZM229.3 175.4V151H234.1V160.6H244.9V151H249.6V175.4H244.9V164.8H234.1V175.4H229.3ZM181.6 175.4V151H199.2V155.1H186.5V160.5H198.3V164.6H186.5V171.2H199.7V175.3H181.6V175.4ZM384.3 175.4V165.1L375.7 151H381.3L386.8 160.6L392.3 151H397.8L389.2 165.2V175.4H384.3ZM307.6 175.4V151.3H312.4V171.3H323.1V175.4H307.6ZM279.9 163.4V162.6L280 161.7L280.1 160.9L280.3 160L280.9 158.2L281.7 156.5L282.3 155.7L282.7 154.9L283.2 154.2L283.9 153.5L284.5 152.9L285.3 152.4L286 151.9L286.8 151.5L287.9 151.2L289.1 150.9L290.5 150.7H292H293.3L294.5 150.9L295.7 151.2L296.8 151.6L297.8 152.1L298.8 152.8L299.7 153.5L300.6 154.4L301.3 155.3L301.9 156.2L302.5 157.2L302.9 158.3L303.4 159.6L303.6 160.8L303.8 162V163.3V164.6L303.6 165.8L303.4 167L302.9 168.1L302.5 169.2L301.9 170.2L301.3 171.2L300.6 172.1L299.7 172.9L298.8 173.6L297.8 174.3L296.8 174.9L295.7 175.2L294.5 175.5L293.3 175.7H292H290.7L289.3 175.5L288.2 175.2L287.1 174.9L286 174.3L285 173.8L284.1 173L283.3 172.2L282.5 171.3L281.9 170.4L281.3 169.4L280.9 168.3L280.4 167.2L280.2 166L280 164.7V163.4H279.9ZM284.8 163.3L284.9 164.9L285.2 166.3L285.4 167.1L285.7 167.8L286 168.5L286.5 169L286.9 169.6L287.5 170.2L288.1 170.6L288.6 171L289.4 171.3L290.1 171.5L291 171.6L291.8 171.7L292.7 171.6L293.5 171.5L294.3 171.3L294.9 171L295.6 170.6L296.2 170.2L296.6 169.6L297 169L297.4 168.4L297.7 167.7L298 167L298.2 166.3L298.5 164.7L298.6 163.2L298.5 161.6L298.2 160.2L298 159.4L297.7 158.7L297.4 158.2L297.1 157.5L296.5 157L296.1 156.5L295.5 156.1L294.8 155.8L294.2 155.5L293.4 155.3L292.6 155.2L291.7 155.1L290.8 155.2L290 155.3L289.2 155.5L288.5 155.8L287.8 156.1L287.2 156.5L286.8 157.1L286.2 157.7L285.9 158.3L285.6 159L285.3 159.6L285.1 160.3L284.8 161.8V163.3ZM219.7 166.5L224.6 168L224.4 169L224 169.9L223.6 170.7L223.1 171.5L222.5 172.3L222 172.8L221.4 173.4L220.7 174L220 174.4L219.2 174.8L218.4 175.2L217.6 175.4L216.7 175.6L215.8 175.7L214.9 175.8H213.9H212.7L211.6 175.7L210.5 175.4L209.4 175.1L208.4 174.7L207.4 174.1L206.5 173.4L205.7 172.7L204.9 171.8L204.2 170.8L203.6 169.7L203 168.6L202.7 167.4L202.5 166.1L202.3 164.9V163.3L202.4 162L202.5 160.7L202.7 159.5L203.2 158.3L203.6 157.2L204.2 156.1L204.9 155.1L205.7 154.2L206.6 153.4L207.5 152.7L208.5 152.1L209.5 151.5L210.7 151.2L211.9 151L213.1 150.8H214.3H215.5L216.5 150.9L217.6 151.1L218.5 151.4L219.5 151.7L220.3 152.2L221.2 152.8L221.9 153.4L222.8 154.3L223.5 155.3L224.1 156.5L224.7 157.8L219.6 159L219.4 158.1L219 157.3L218.4 156.5L217.7 155.9L216.9 155.5L216.1 155.2L215.2 155L214.2 154.9L213.5 155H212.7L212 155.2L211.4 155.4L210.8 155.6L210.2 155.9L209.8 156.3L209.3 156.9L208.8 157.6L208.4 158.2L208.1 159L207.8 159.9L207.6 160.7L207.4 161.6L207.3 162.5V163.4V164.3L207.4 165.2L207.6 166L207.8 166.9L208.1 167.7L208.4 168.4L208.8 169.2L209.3 169.8L209.8 170.2L210.2 170.6L210.8 171L211.4 171.2L212 171.4L212.6 171.6L213.3 171.7H213.9L214.9 171.6L215.8 171.4L216.7 171.1L217.5 170.5L218.2 169.8L218.8 168.9L219.2 167.9L219.7 166.5ZM165 175.4V155.2H158.1V151.1H176.9V155.2H169.9V175.4H165Z" fill="#2C211A"/>
<path d="M119.2 87.5999L117.2 88.2999L115.1 88.7999L113.1 89.4999L111 90.0999L108.9 90.4999L106.8 91.0999L104.7 91.5999L102.6 92.0999L101.3 92.3999L100.2 92.6999L95.5996 93.9999L91.7996 95.1999L90.1996 95.8999L88.6996 96.4999L87.4996 97.1999L86.4996 97.6999L85.5996 98.3999L84.7996 99.0999L83.9996 99.8999L83.1996 100.7L82.5996 101.6L81.9996 102.4L81.3996 103.3L81.0996 104.2L80.7996 105.3L80.5996 106.3V107.2L80.6996 108.2L80.8996 109.1L81.1996 109.9L81.5996 110.7L81.9996 111.4L82.7996 112.2L83.4996 112.9L84.2996 113.3L85.1996 113.6L86.1996 113.8L87.2996 114L88.5996 114.1H89.8996L92.3996 113.9L94.9996 113.5L96.1996 113.3L97.3996 113L98.5996 112.7L99.7996 112.2L100.9 111.8L102 111.3L103.5 110.5L105 109.7L106.4 108.9L107.5 108L108.6 107L109.7 106.1L110.6 105.1L111.5 104.1L112.4 103.1L113.3 101.9L114.1 100.7L114.9 99.2999L115.6 97.8999L116.3 96.4999L117 94.9999L117.6 93.3999L119.2 87.5999ZM99.9996 76.1999L103.5 75.4999L106.5 74.7999L108.9 74.0999L110.8 73.6999L114.1 72.8999L117.5 71.9999L121 70.9999L124.5 69.7999L124.9 68.7999L125.4 67.7999L125.7 66.7999L125.9 65.6999L126 64.5999L126.1 63.4999L126 62.3999L125.9 61.2999L124.8 60.7999L123.5 60.2999L122.3 59.6999L121.1 59.2999L119.9 58.7999L118.8 58.5999L117.7 58.2999L116.6 58.1999L114.7 58.0999H112.7L110.8 58.2999L109 58.5999L107.2 59.0999L105.4 59.5999L103.7 60.2999L102.2 61.0999L101.1 61.8999L99.9996 62.5999L98.5996 63.7999L96.9996 65.2999L95.4996 67.0999L94.0996 69.0999L59.8996 65.3999L61.2996 63.2999L62.5996 61.2999L63.8996 59.4999L65.1996 57.7999L66.5996 56.1999L67.7996 54.7999L69.0996 53.3999L70.5996 52.1999L71.8996 50.8999L73.4996 49.6999L74.9996 48.4999L76.5996 47.3999L78.2996 46.2999L79.9996 45.1999L81.6996 44.1999L83.4996 43.2999L85.2996 42.2999L87.1996 41.4999L89.0996 40.6999L90.9996 39.9999L92.9996 39.2999L95.0996 38.5999L97.2996 38.1999L99.3996 37.7999L101.7 37.2999L104 37.0999L106.4 36.7999L108.8 36.5999L111.2 36.4999L113.6 36.3999H116.1H118.4H121.7L125 36.4999L128.1 36.5999L131.1 36.7999L134 36.9999L136.8 37.2999L139.3 37.5999L141.5 37.9999L143.8 38.3999L146 38.9999L148.1 39.7999L150.1 40.6999L152 41.7999L153.8 43.1999L155.5 44.5999L157.1 46.2999L158.6 47.9999L159.8 49.7999L160.9 51.7999L161.8 53.7999L162.6 55.8999L163 58.1999L163.4 60.4999L163.5 62.7999V63.9999L163.4 65.8999L163.3 66.9999L163.1 68.0999L162.9 69.0999L162.6 70.1999L161.4 74.1999L159.8 78.8999L158.1 84.2999L156.1 90.3999L153.9 97.2999L151.3 105.2L148.5 114L145.4 124L145.1 125.1L145 126.2L144.9 127.3L145 128.4L145.1 129.4L145.3 130.4L145.5 131.3L145.8 132.1H142.6H135.2H117.4H110.9V131.9L110.5 131.1L110.2 130.3L109.7 129.3L109.5 128.5L109.2 126.7V124.9V123.8L109.3 122.8L109.5 121.8L109.8 120.7L107.3 122.7L104.8 124.4L102.4 125.9L99.8996 127.2L98.1996 128.1L96.5996 128.9L95.1996 129.6L93.5996 130.1L90.9996 131.1L88.1996 132L85.2996 132.8L82.3996 133.4L79.3996 134L76.2996 134.4L73.2996 134.5H70.0996H67.7996L65.5996 134.4L63.4996 134.2L61.5996 134L59.8996 133.7L58.1996 133.4L56.6996 133L55.3996 132.4L54.1996 131.9L52.9996 131.2L51.9996 130.6L50.9996 129.8L49.9996 129L49.0996 128.1L48.2996 127.2L47.4996 126.3L46.7996 125.3L46.0996 124.4L45.4996 123.4L44.8996 122.4L44.3996 121.3L44.0996 120.2L43.7996 119.1L43.4996 118L43.2996 116.8L43.1996 115.6L43.0996 114.4V113.2L43.1996 111.9L43.3996 110.5L43.5996 109.2L43.8996 107.8L44.2996 106.3L44.6996 104.8L45.2996 103.5L45.7996 102.2L46.4996 101L47.0996 99.8999L47.8996 98.7999L48.5996 97.6999L50.2996 95.6999L52.0996 93.7999L53.9996 91.9999L55.9996 90.1999L58.3996 88.4999L61.0996 87.0999L63.9996 85.5999L67.0996 84.2999L70.5996 83.0999L74.3996 81.9999L78.3996 80.9999L82.7996 80.0999L85.1996 79.6999L87.6996 79.2999L89.8996 78.8999L92.0996 78.4999L94.1996 78.0999L96.1996 77.7999L97.9996 77.4999L99.9996 76.1999Z" fill="#2C211A"/>
<path d="M545.4 87.5998L543.4 88.2998L541.3 88.7998L539.1 89.4998L537.1 90.0998L535 90.4998L532.9 91.0998L530.8 91.5998L528.7 92.0998L527.4 92.3998L526.3 92.6998L521.6 93.9998L517.9 95.1998L516.2 95.8998L514.8 96.4998L513.6 97.1998L512.6 97.6998L511.7 98.3998L510.8 99.0998L510 99.8998L509.3 100.7L508.6 101.6L508 102.4L507.6 103.3L507.3 104.2L507 105.3L506.8 106.3V107.2L506.9 108.2L507.1 109.1L507.4 109.9L507.8 110.7L508.3 111.4L509 112.2L509.8 112.9L510.6 113.5L511.5 113.8L512.5 114.1L513.6 114.3H514.8H516.3L518.8 114.1L521.1 113.7L523.5 113.1L525.6 112.4L527.8 111.5L529.8 110.5L531.7 109.3L533.6 108.1L535.3 106.7L537 105.1L538.5 103.4L539.8 101.6L541 99.6998L542.1 97.6998L543 95.5998L543.8 93.4998L545.4 87.5998ZM526.2 76.1998L529.7 75.4998L532.6 74.7998L535 74.0998L537 73.6998L540.3 72.8998L543.7 71.9998L547.1 70.9998L550.7 69.7998L551.1 68.7998L551.5 67.7998L551.8 66.7998L552 65.6998L552.1 64.5998V63.2998V62.1998L552 61.0998L550.9 60.4998L549.7 59.9998L548.5 59.5998L547.3 59.1998L544.8 58.4998L542.7 58.0998L540.7 57.9998H538.8L536.9 58.1998L535 58.4998L533.2 58.9998L531.5 59.4998L529.8 60.1998L528.2 60.9998L527.1 61.7998L526.1 62.4998L524.5 63.6998L523.1 65.1998L521.7 66.9998L520.1 68.9998L486 65.2998L487.4 63.1998L488.7 61.1998L489.9 59.3998L491.2 57.6998L492.5 56.0998L493.9 54.5998L495.3 53.2998L496.6 52.0998L498 50.6998L499.6 49.4998L501.1 48.2998L502.6 47.1998L504.3 46.0998L506 45.0998L507.7 44.0998L509.5 43.0998L511.3 42.1998L513.1 41.3998L515.1 40.5998L517 39.8998L519 39.1998L521.1 38.6998L523.1 38.0998L525.3 37.6998L527.6 37.1998L529.9 36.8998L532.2 36.6998L534.6 36.4998L537.1 36.3998L539.4 36.2998H541.9H544.2H547.6L550.8 36.3998L553.9 36.4998L556.9 36.6998L559.8 36.8998L562.5 37.1998L565.1 37.4998L567.5 37.8998L569.8 38.2998L571.9 38.8998L574 39.6998L576.1 40.5998L578 41.6998L579.8 43.0998L581.5 44.4998L583.1 46.1998L584.6 47.8998L585.8 49.6998L586.9 51.6998L587.8 53.6998L588.5 55.7998L589.1 58.0998L589.4 60.3998L589.7 62.2998L589.6 63.4998L589.5 65.3998L589.1 67.5998L588.6 69.7998L587.2 73.7998L585.8 78.4998L584.1 83.8998L582.2 89.9998L580 96.8998L577.5 104.8L574.7 113.6L571.5 123.6L571.3 124.6L571.2 125.6L571.1 126.7V127.8L571.3 128.9L571.4 129.9L571.8 130.9L572.1 131.7H568.9H561.5H543.6H537.2V131.5L536.7 130.7L536.4 129.9L536 129.1L535.8 128.3L535.5 126.5L535.4 124.7L535.5 123.6L535.6 122.6L535.8 121.6L536.1 120.5L533.6 122.5L531.1 124.2L528.5 125.7L526.2 127L524.5 127.9L522.9 128.7L521.5 129.4L519.9 129.9L517.2 130.9L514.4 131.8L511.6 132.6L508.6 133.2L505.6 133.8L502.6 134.2L499.5 134.3H496.5H494L491.9 134.2L489.8 134L487.9 133.8L486.1 133.5L484.5 133.2L483 132.8L481.7 132.2L480.3 131.7L479.2 131L478.1 130.4L477.1 129.6L476.2 128.8L475.3 127.9L474.5 127L473.6 126.1L472.9 125.1L472.3 124.2L471.8 123.2L471.2 122.2L470.8 121.1L470.3 120L470 118.9L469.8 117.8L469.6 116.6L469.5 115.4L469.4 114.2V113L469.5 111.7L469.6 110.3L469.9 109L470.1 107.6L470.6 106.1L471.2 104.6L471.8 103.3L472.4 102L472.9 100.8L473.6 99.6998L474.3 98.5998L475.1 97.4998L476.8 95.4998L478.5 93.5998L480.4 91.7998L482.5 89.9998L484.9 88.2998L487.4 86.8998L490.3 85.3998L493.5 84.0998L497 82.8998L500.7 81.7998L504.8 80.7998L509.2 79.8998L511.6 79.4998L513.9 79.0998L516.2 78.6998L518.4 78.2998L520.4 77.8998L522.4 77.5998L524.3 77.2998L526.2 76.1998Z" fill="#2C211A"/>
</g>
<defs>
<clipPath id="clip0_295_48">
<rect width="590" height="176" fill="white"/>
</clipPath>
</defs>
</svg>
