<svg width="699" height="176" viewBox="0 0 699 176" fill="none" xmlns="http://www.w3.org/2000/svg">
<g clip-path="url(#clip0_295_68)">
<path d="M184.488 31.2633C181.706 14.0766 160.757 3.76459 135.839 8.71599C120.927 12.0038 107.436 19.9246 97.2969 31.3452C108.599 32.369 119.342 36.7273 128.164 43.867C136.985 51.0067 143.487 60.6061 146.846 71.4475C176.796 65.6367 187.106 50.537 184.488 31.2633Z" fill="#9DC814"/>
<path d="M122.746 73.6573H124.383C121.284 66.6253 115.925 60.8296 109.158 57.1897C102.391 53.5499 94.6019 52.2743 87.0272 53.5652C86.9649 54.3551 86.9649 55.1487 87.0272 55.9386C89.6048 69.0742 104.171 73.6573 122.746 73.6573Z" fill="#9DC814"/>
<path d="M92.4289 49.1048C100.213 49.1229 107.814 51.4709 114.253 55.8467C120.692 60.2224 125.674 66.4255 128.557 73.6573C133.058 73.4526 137.722 73.0025 142.469 72.3887H142.837C139.52 61.9712 133.058 52.8371 124.339 46.2422C115.62 39.6473 105.073 35.9156 94.1473 35.5601C90.8707 39.7286 88.5392 44.5596 87.3145 49.7186C89.0052 49.4105 90.7132 49.2055 92.4289 49.1048Z" fill="#9DC814"/>
<path d="M62.2324 102.302H60.6367C63.4112 108.406 67.8847 113.581 73.5226 117.21C79.1604 120.838 85.7238 122.766 92.428 122.762C94.3567 122.808 96.286 122.698 98.1971 122.435C98.1918 121.653 98.1234 120.873 97.9926 120.102C95.2512 106.885 80.6853 102.302 62.2324 102.302Z" fill="#E61673"/>
<path d="M92.4284 126.854C84.6438 126.836 77.0428 124.488 70.6041 120.112C64.1653 115.737 59.1835 109.534 56.3 102.302C51.7993 102.506 47.1349 102.916 42.4297 103.529H42.0205C45.3373 113.947 51.7993 123.081 60.5181 129.676C69.2368 136.271 79.7842 140.003 90.7099 140.358C93.9946 136.189 96.3394 131.359 97.5837 126.199C95.8775 126.461 94.1545 126.598 92.4284 126.609" fill="#E61673"/>
<path d="M38.0517 104.552C8.18343 110.486 -2.25001 125.463 0.409491 144.736C3.15083 161.923 24.0995 172.235 49.0171 167.243C63.9308 163.982 77.4256 156.073 87.5595 144.655C76.251 143.666 65.496 139.319 56.6748 132.174C47.8535 125.029 41.3684 115.41 38.0517 104.552Z" fill="#E61673"/>
<path d="M77.7396 56.3479C71.7106 59.1509 66.6064 63.616 63.0262 69.219C59.4459 74.822 57.5384 81.3302 57.5273 87.9796C57.5457 89.8718 57.7099 91.7597 58.0183 93.6267C61.7199 92.8059 65.0778 90.8624 67.6335 88.0615C73.1571 82.2507 76.594 69.8108 77.7396 56.3479Z" fill="#00A0E9"/>
<path d="M53.4768 87.9796C53.4977 80.1896 55.8461 72.5836 60.2203 66.138C64.5946 59.6924 70.7952 54.7014 78.0261 51.8057C78.2182 46.962 78.1226 42.1112 77.7397 37.2788C66.7513 40.4603 57.0926 47.1236 50.2158 56.2667C43.3391 65.4098 39.616 76.5385 39.6064 87.9796C39.6064 88.1842 39.6064 88.3888 39.6064 88.6343C43.7628 91.7595 48.7385 93.6078 53.9269 93.954C53.6174 91.9772 53.4533 89.9804 53.4359 87.9796" fill="#00A0E9"/>
<path d="M77.412 33.1458C76.8351 25.6864 74.6134 18.4474 70.9064 11.9489C68.8036 8.42706 65.852 5.48833 62.3212 3.40106C58.7905 1.31378 54.7931 0.1445 50.6942 0C42.3883 0 33.2642 4.62404 24.5492 14.3223C7.3647 33.2276 15.2205 58.3939 26.2676 74.5985C28.9192 78.6199 32.0672 82.2908 35.6373 85.5243C36.1798 73.5009 40.5137 61.9577 48.0179 52.5487C55.5221 43.1397 65.8115 36.3477 77.412 33.1458Z" fill="#00A0E9"/>
<path d="M107.485 142.813C108.01 150.282 110.235 157.533 113.991 164.01C116.094 167.532 119.045 170.471 122.576 172.558C126.107 174.645 130.104 175.814 134.203 175.959C142.386 175.959 151.592 171.294 160.471 161.596C177.696 142.731 169.841 117.524 158.793 101.319C156.064 97.3093 152.848 93.6531 149.219 90.4346C148.692 102.456 144.368 114.002 136.87 123.412C129.372 132.823 119.084 139.615 107.485 142.813Z" fill="#FABE00"/>
<path d="M107.158 119.611C113.187 116.808 118.291 112.343 121.872 106.74C125.452 101.137 127.359 94.6291 127.37 87.9797C127.337 86.1001 127.16 84.2258 126.838 82.3735C123.14 83.1712 119.788 85.1193 117.264 87.9388C111.741 93.7495 108.304 106.189 107.117 119.611" fill="#FABE00"/>
<path d="M131.421 87.9794C131.416 95.7732 129.075 103.387 124.698 109.835C120.322 116.284 114.112 121.272 106.871 124.153C106.632 129.009 106.7 133.874 107.076 138.721C118.072 135.533 127.737 128.864 134.62 119.714C141.504 110.565 145.234 99.4294 145.25 87.9794V87.3656C141.102 84.194 136.133 82.2769 130.93 81.8413C131.271 83.8148 131.449 85.813 131.462 87.8157" fill="#FABE00"/>
<path d="M336.693 36.5013H400.317C400.481 36.5063 400.639 36.5579 400.775 36.6501C400.91 36.7423 401.016 36.8712 401.08 37.0217C401.145 37.1721 401.165 37.3379 401.139 37.4994C401.112 37.6609 401.04 37.8115 400.931 37.9335C400.931 37.9335 359.606 77.1765 337.512 99.3146C333.42 103.407 334.77 109.954 340.335 109.954H428.794V98.4552H365.007C364.843 98.4612 364.682 98.4179 364.543 98.331C364.404 98.2441 364.295 98.1176 364.228 97.9677C364.162 97.8179 364.143 97.6516 364.172 97.4905C364.201 97.3294 364.279 97.1808 364.393 97.0639L427.894 35.6828C431.986 31.5908 430.635 25.0435 425.112 25.0435H336.693V36.5013Z" fill="#727171"/>
<path d="M579.445 36.5013H643.069C643.233 36.5063 643.391 36.5579 643.527 36.6501C643.662 36.7423 643.768 36.8712 643.832 37.0217C643.897 37.1721 643.917 37.3379 643.891 37.4994C643.864 37.6609 643.792 37.8115 643.683 37.9335C643.683 37.9335 602.358 77.1765 580.264 99.3146C576.172 103.407 577.522 109.954 583.087 109.954H671.546V98.4552H607.759C607.595 98.4612 607.434 98.4179 607.295 98.331C607.156 98.2441 607.046 98.1176 606.98 97.9677C606.914 97.8179 606.895 97.6516 606.924 97.4905C606.953 97.3294 607.03 97.1808 607.145 97.0639L670.646 35.6828C674.738 31.5908 673.387 25.0435 667.864 25.0435H579.445V36.5013Z" fill="#727171"/>
<path d="M552.563 25.1663H548.963V109.79H552.563H564.224H566.802V25.1663H564.224H552.563Z" fill="#727171"/>
<path d="M326.015 61.5039H258.954V72.4297H326.015V61.5039Z" fill="#727171"/>
<path d="M251.058 50.7008C250.937 48.843 251.206 46.9805 251.848 45.2331C252.49 43.4856 253.491 41.8919 254.786 40.5545C256.081 39.217 257.641 38.1655 259.367 37.4674C261.092 36.7694 262.945 36.4403 264.806 36.5013H327.324V25.1663H257.482C237.024 25.1663 228.841 39.4885 228.841 52.7059V82.2507C228.841 95.4681 237.024 109.79 257.482 109.79H327.324V98.4962H264.806C262.945 98.5572 261.092 98.2281 259.367 97.5301C257.641 96.832 256.081 95.7804 254.786 94.443C253.491 93.1056 252.49 91.5119 251.848 89.7644C251.206 88.017 250.937 86.1545 251.058 84.2967V50.7008Z" fill="#727171"/>
<path d="M522.45 25.1663L488.654 87.5294C488.597 87.619 488.519 87.6924 488.425 87.7426C488.332 87.7928 488.228 87.8181 488.122 87.8159C488.02 87.825 487.919 87.8023 487.831 87.7509C487.743 87.6996 487.673 87.6222 487.631 87.5294L453.794 25.1663H433.336L478.957 107.008C479.455 107.904 480.185 108.651 481.07 109.169C481.955 109.688 482.964 109.959 483.989 109.954H492.172C493.194 109.964 494.199 109.695 495.079 109.176C495.958 108.657 496.679 107.907 497.164 107.008L542.826 25.1663H522.45Z" fill="#727171"/>
<path d="M686.03 26.8848H682.879V36.3784H680.588V26.8848H677.438V25.1252H686.03V26.8848Z" fill="#727171"/>
<path d="M690.245 25.1252L693.109 33.4322H693.15L696.055 25.1252H699.001V36.3784H696.75V33.0229L696.955 28.0715H696.914L693.886 36.3784H692.372L689.386 28.0715H689.345L689.549 33.0229V36.3784H687.299V25.1252H690.245Z" fill="#727171"/>
<path d="M251.753 151.407C251.715 152.525 251.457 153.624 250.993 154.642C250.53 155.66 249.871 156.577 249.053 157.34C247.305 158.868 245.028 159.647 242.711 159.509C241.427 159.57 240.146 159.328 238.974 158.802C237.801 158.275 236.768 157.48 235.96 156.481C234.17 154.265 233.253 151.47 233.382 148.624V144.532C233.264 141.688 234.18 138.897 235.96 136.675C236.783 135.692 237.818 134.909 238.987 134.385C240.157 133.86 241.43 133.608 242.711 133.647C245.032 133.517 247.315 134.278 249.094 135.775C250.733 137.338 251.689 139.485 251.753 141.749H249.83C249.682 139.951 248.915 138.259 247.662 136.962C246.305 135.789 244.54 135.201 242.752 135.325C241.734 135.299 240.725 135.516 239.807 135.957C238.889 136.398 238.089 137.051 237.474 137.862C236.073 139.749 235.365 142.061 235.469 144.409V148.501C235.276 150.885 235.928 153.261 237.31 155.212C237.926 156.023 238.725 156.676 239.643 157.117C240.561 157.558 241.57 157.775 242.588 157.749C244.381 157.861 246.149 157.291 247.539 156.153C248.821 154.878 249.629 153.204 249.83 151.407H251.753Z" fill="#717071"/>
<path d="M265.132 142.24H263.618C262.461 142.197 261.327 142.575 260.427 143.304C259.542 144.114 258.916 145.168 258.627 146.332V159.222H256.54V140.481H258.381L258.627 143.591C259.106 142.519 259.852 141.589 260.795 140.89C261.74 140.225 262.873 139.881 264.028 139.908H264.805H265.419L265.132 142.24Z" fill="#717071"/>
<path d="M275.28 159.591C274.176 159.614 273.08 159.395 272.069 158.95C271.058 158.504 270.157 157.843 269.429 157.013C267.877 155.191 267.06 152.857 267.138 150.465V149.483C267.04 147.064 267.858 144.696 269.429 142.854C270.106 142.021 270.961 141.35 271.931 140.889C272.901 140.429 273.961 140.192 275.034 140.194C276.038 140.144 277.04 140.312 277.973 140.686C278.905 141.061 279.745 141.633 280.435 142.363C281.751 143.973 282.422 146.015 282.317 148.092V149.851H269.184V150.383C269.15 152.229 269.741 154.031 270.861 155.499C271.373 156.182 272.042 156.732 272.811 157.102C273.58 157.473 274.427 157.652 275.28 157.626C276.408 157.657 277.532 157.476 278.594 157.094C279.465 156.752 280.259 156.237 280.926 155.58L281.786 156.972C281.042 157.75 280.133 158.351 279.126 158.731C277.9 159.201 276.593 159.424 275.28 159.386M275.034 141.749C274.264 141.715 273.496 141.855 272.787 142.16C272.079 142.465 271.448 142.926 270.943 143.509C269.89 144.738 269.259 146.273 269.143 147.887H280.108V147.396C280.148 145.903 279.638 144.447 278.676 143.304C278.163 142.739 277.528 142.298 276.819 142.014C276.11 141.73 275.346 141.612 274.584 141.667" fill="#717071"/>
<path d="M298.315 159.141C298.191 158.601 298.095 158.054 298.029 157.504C298.029 157.054 298.029 156.604 298.029 156.113C297.292 157.125 296.343 157.963 295.247 158.568C293.988 159.232 292.578 159.557 291.155 159.509C289.656 159.586 288.187 159.072 287.064 158.077C286.523 157.55 286.106 156.91 285.845 156.202C285.583 155.494 285.482 154.737 285.55 153.985C285.54 153.171 285.738 152.368 286.124 151.652C286.511 150.936 287.074 150.331 287.759 149.893C289.568 148.76 291.684 148.217 293.815 148.338H297.906V146.005C297.859 144.949 297.404 143.951 296.638 143.223C295.617 142.416 294.337 142.009 293.037 142.077C291.76 142.028 290.504 142.418 289.478 143.182C289.035 143.47 288.672 143.864 288.422 144.329C288.172 144.794 288.043 145.314 288.046 145.842H286.123C286.098 145.113 286.258 144.389 286.587 143.738C286.916 143.088 287.403 142.53 288.005 142.118C289.459 140.974 291.27 140.38 293.119 140.44C294.921 140.35 296.695 140.917 298.111 142.036C298.753 142.588 299.258 143.282 299.585 144.064C299.911 144.845 300.051 145.692 299.993 146.537V155.499C299.951 156.139 299.951 156.782 299.993 157.422C300.069 158.044 300.192 158.66 300.361 159.264L298.315 159.141ZM291.524 157.709C292.963 157.769 294.387 157.398 295.615 156.645C296.685 156.016 297.551 155.093 298.111 153.985V149.893H294.019C292.427 149.815 290.851 150.245 289.519 151.12C289.01 151.437 288.59 151.877 288.297 152.399C288.004 152.921 287.847 153.509 287.841 154.108C287.822 154.571 287.907 155.032 288.091 155.457C288.276 155.882 288.554 156.26 288.905 156.563C289.699 157.244 290.724 157.596 291.769 157.545" fill="#717071"/>
<path d="M308.749 135.693V140.481H312.841V142.158H308.749V154.435C308.674 155.343 308.904 156.25 309.404 157.013C309.626 157.27 309.903 157.473 310.215 157.608C310.526 157.742 310.865 157.805 311.204 157.79H312.186H313.25L313.577 159.345C313.17 159.507 312.744 159.617 312.309 159.672L310.958 159.591C310.39 159.611 309.823 159.512 309.295 159.3C308.766 159.089 308.288 158.77 307.89 158.363C307.016 157.189 306.621 155.726 306.785 154.271V141.995H303.553V140.317H306.867V135.693H308.749Z" fill="#717071"/>
<path d="M319.551 135.038H317.505V132.133H319.551V135.038ZM319.551 159.059H317.505V140.481H319.551V159.059Z" fill="#717071"/>
<path d="M327.324 140.481V143.714C327.867 142.62 328.703 141.7 329.738 141.054C330.828 140.413 332.075 140.087 333.339 140.113C334.208 140.051 335.08 140.188 335.888 140.514C336.697 140.841 337.42 141.347 338.003 141.995C339.184 143.677 339.747 145.715 339.599 147.765V159.141H337.553V147.765C337.705 146.152 337.269 144.539 336.325 143.223C335.903 142.75 335.376 142.381 334.787 142.147C334.197 141.913 333.562 141.819 332.93 141.872C331.647 141.835 330.39 142.24 329.37 143.018C328.441 143.837 327.761 144.901 327.406 146.087V159.141H325.278V140.481H327.324Z" fill="#717071"/>
<path d="M344.181 149.974C344.056 147.451 344.714 144.95 346.063 142.813C347.052 141.497 348.488 140.588 350.1 140.256C351.713 139.924 353.391 140.194 354.819 141.013C355.817 141.616 356.647 142.46 357.233 143.468L357.478 140.481H359.197V158.936C359.288 161.013 358.586 163.046 357.233 164.624C356.501 165.339 355.629 165.894 354.67 166.254C353.712 166.613 352.69 166.769 351.668 166.711C350.705 166.696 349.746 166.587 348.804 166.384C347.882 166.202 346.988 165.9 346.145 165.483L346.677 163.724C347.42 164.095 348.202 164.383 349.009 164.583C349.87 164.766 350.747 164.862 351.628 164.87C352.385 164.918 353.143 164.801 353.85 164.525C354.557 164.249 355.195 163.822 355.719 163.274C356.697 162.046 357.192 160.503 357.11 158.936V156.563C356.494 157.482 355.666 158.24 354.696 158.772C353.639 159.284 352.475 159.536 351.3 159.509C350.283 159.557 349.27 159.354 348.35 158.919C347.43 158.484 346.63 157.829 346.022 157.013C344.676 155.058 344.015 152.713 344.14 150.343L344.181 149.974ZM346.227 150.343C346.195 152.258 346.737 154.139 347.781 155.744C348.235 156.4 348.849 156.929 349.566 157.28C350.282 157.631 351.076 157.793 351.873 157.749C353.044 157.795 354.2 157.481 355.187 156.849C356.112 156.204 356.836 155.31 357.274 154.271V145.596C356.849 144.549 356.158 143.632 355.269 142.936C354.298 142.193 353.095 141.816 351.873 141.872C351.053 141.855 350.244 142.053 349.525 142.448C348.807 142.844 348.206 143.421 347.781 144.123C346.801 145.913 346.321 147.934 346.39 149.974L346.227 150.343Z" fill="#717071"/>
<path d="M388.042 146.987H375.932V157.381H389.802V159.181H373.886V134.015H389.72V135.775H375.932V145.227H388.042V146.987Z" fill="#717071"/>
<path d="M405.514 159.141C405.389 158.601 405.293 158.054 405.227 157.504C405.185 157.041 405.185 156.575 405.227 156.113C404.491 157.125 403.541 157.963 402.445 158.568C401.186 159.232 399.776 159.557 398.354 159.509C396.857 159.569 395.394 159.057 394.262 158.077C393.73 157.544 393.32 156.902 393.059 156.196C392.798 155.49 392.692 154.736 392.748 153.985C392.747 153.168 392.952 152.364 393.346 151.649C393.739 150.933 394.308 150.329 394.999 149.893C396.803 148.834 398.886 148.348 400.972 148.501H405.064V146.169C405.067 145.621 404.96 145.077 404.749 144.571C404.538 144.065 404.228 143.606 403.836 143.223C402.815 142.416 401.535 142.009 400.236 142.077C398.958 142.028 397.702 142.418 396.676 143.182C396.234 143.47 395.871 143.864 395.621 144.329C395.37 144.794 395.241 145.314 395.244 145.842H393.321C393.312 145.111 393.483 144.389 393.818 143.74C394.153 143.09 394.643 142.533 395.244 142.118C396.698 140.974 398.509 140.38 400.358 140.44C402.161 140.35 403.935 140.917 405.35 142.036C405.985 142.594 406.485 143.289 406.811 144.069C407.137 144.849 407.281 145.693 407.232 146.537V155.499C407.19 156.139 407.19 156.782 407.232 157.422C407.268 158.05 407.392 158.67 407.601 159.264L405.514 159.141ZM398.722 157.709C400.16 157.757 401.581 157.387 402.813 156.645C403.883 156.016 404.75 155.093 405.309 153.985V149.893H400.972C399.379 149.809 397.802 150.24 396.472 151.12C395.958 151.431 395.533 151.87 395.239 152.393C394.946 152.917 394.792 153.507 394.794 154.108C394.775 154.567 394.857 155.024 395.034 155.448C395.21 155.873 395.478 156.253 395.817 156.563C396.621 157.254 397.663 157.607 398.722 157.545" fill="#717071"/>
<path d="M423.885 154.394C423.878 153.959 423.78 153.53 423.596 153.135C423.413 152.74 423.149 152.389 422.821 152.102C421.611 151.239 420.205 150.691 418.73 150.506C416.962 150.222 415.275 149.566 413.779 148.583C413.26 148.194 412.84 147.686 412.556 147.103C412.271 146.519 412.129 145.877 412.142 145.228C412.141 144.518 412.307 143.819 412.626 143.186C412.946 142.553 413.411 142.005 413.983 141.586C415.342 140.55 417.023 140.028 418.73 140.113C420.539 140.015 422.323 140.567 423.762 141.668C424.365 142.156 424.84 142.784 425.147 143.496C425.453 144.209 425.582 144.986 425.522 145.76H423.599C423.602 145.239 423.485 144.725 423.258 144.257C423.031 143.788 422.7 143.379 422.289 143.059C421.293 142.265 420.043 141.858 418.771 141.913C417.558 141.83 416.355 142.178 415.375 142.895C415.031 143.17 414.753 143.519 414.562 143.916C414.371 144.312 414.271 144.746 414.27 145.187C414.263 145.592 414.348 145.994 414.518 146.363C414.688 146.731 414.939 147.056 415.252 147.315C416.495 148.092 417.89 148.594 419.343 148.788C421.134 149.105 422.837 149.803 424.335 150.834C424.872 151.235 425.302 151.762 425.587 152.369C425.873 152.975 426.005 153.643 425.972 154.312C425.992 155.052 425.831 155.785 425.503 156.448C425.175 157.112 424.69 157.685 424.09 158.118C422.636 159.147 420.876 159.652 419.098 159.55C417.179 159.664 415.282 159.099 413.738 157.954C413.12 157.474 412.629 156.85 412.308 156.137C411.987 155.424 411.846 154.643 411.897 153.862H413.82C413.82 154.446 413.97 155.02 414.257 155.529C414.544 156.038 414.957 156.465 415.456 156.767C416.551 157.394 417.797 157.705 419.057 157.668C420.307 157.742 421.545 157.397 422.576 156.685C422.976 156.431 423.305 156.081 423.534 155.666C423.763 155.251 423.883 154.786 423.885 154.312" fill="#717071"/>
<path d="M436.036 154.108L436.691 156.317L442.337 140.481H444.669L436.486 162.169C436.05 163.335 435.413 164.415 434.604 165.361C434.186 165.828 433.666 166.193 433.084 166.427C432.502 166.661 431.874 166.758 431.249 166.711H430.349H429.572L429.817 164.992H430.513H431.167C431.58 165.005 431.99 164.924 432.366 164.753C432.741 164.583 433.073 164.329 433.336 164.01C433.932 163.282 434.39 162.449 434.686 161.555L435.668 159.059L428.467 140.604H430.758L436.036 154.108Z" fill="#717071"/>
<path d="M471.592 152.962C471.615 152.32 471.486 151.681 471.216 151.098C470.946 150.515 470.542 150.004 470.038 149.606C468.424 148.489 466.6 147.709 464.678 147.315C462.442 146.848 460.326 145.929 458.459 144.614C457.77 144.098 457.216 143.423 456.845 142.646C456.475 141.869 456.298 141.014 456.331 140.154C456.314 139.235 456.521 138.327 456.935 137.507C457.348 136.687 457.956 135.98 458.704 135.448C460.48 134.188 462.625 133.555 464.8 133.647C467.089 133.531 469.334 134.309 471.06 135.816C471.819 136.457 472.422 137.261 472.826 138.168C473.23 139.075 473.424 140.061 473.393 141.054H471.47C471.484 140.282 471.331 139.516 471.02 138.809C470.709 138.103 470.248 137.472 469.669 136.962C468.334 135.81 466.602 135.223 464.841 135.325C463.153 135.229 461.481 135.705 460.095 136.675C459.568 137.06 459.141 137.566 458.849 138.149C458.557 138.733 458.409 139.378 458.418 140.031C458.427 140.638 458.571 141.237 458.84 141.782C459.109 142.327 459.496 142.805 459.972 143.182C461.617 144.29 463.468 145.055 465.414 145.432C467.645 145.919 469.75 146.866 471.592 148.215C472.278 148.78 472.826 149.494 473.194 150.302C473.563 151.11 473.743 151.992 473.72 152.88C473.737 153.823 473.517 154.755 473.081 155.591C472.645 156.428 472.007 157.141 471.224 157.668C469.379 158.909 467.185 159.525 464.964 159.427C462.627 159.489 460.328 158.832 458.377 157.545C457.468 156.955 456.737 156.13 456.261 155.157C455.786 154.184 455.583 153.1 455.676 152.021H457.558C457.51 152.874 457.688 153.726 458.077 154.488C458.465 155.25 459.048 155.896 459.768 156.358C461.31 157.323 463.105 157.808 464.923 157.749C466.632 157.845 468.325 157.385 469.751 156.44C470.326 156.062 470.796 155.545 471.117 154.937C471.439 154.329 471.603 153.65 471.592 152.962Z" fill="#717071"/>
<path d="M479.652 140.481V143.55C480.223 142.509 481.055 141.635 482.066 141.013C483.151 140.399 484.38 140.088 485.626 140.113C486.896 140.071 488.146 140.445 489.186 141.177C490.238 141.941 490.979 143.06 491.272 144.327C491.78 143.091 492.614 142.016 493.686 141.217C494.804 140.452 496.138 140.065 497.491 140.113C498.365 140.063 499.238 140.218 500.041 140.566C500.844 140.914 501.554 141.446 502.115 142.118C503.322 143.926 503.885 146.089 503.711 148.256V159.141H501.665V148.215C501.831 146.486 501.398 144.752 500.437 143.304C500.013 142.829 499.488 142.453 498.901 142.206C498.313 141.958 497.678 141.844 497.041 141.872C496.348 141.84 495.656 141.958 495.013 142.22C494.37 142.481 493.792 142.879 493.318 143.386C492.423 144.486 491.869 145.823 491.722 147.233V159.141H489.636V148.215C489.792 146.499 489.359 144.782 488.408 143.345C487.998 142.85 487.476 142.459 486.886 142.203C486.296 141.947 485.654 141.834 485.012 141.872C483.749 141.796 482.505 142.206 481.534 143.018C480.636 143.801 480.007 144.845 479.734 146.005V159.141H477.606V140.481H479.652Z" fill="#717071"/>
<path d="M521.059 159.141C521.059 158.527 521.059 157.995 520.772 157.504C520.486 157.013 520.772 156.604 520.772 156.113C520.052 157.124 519.115 157.963 518.031 158.568C516.772 159.232 515.362 159.557 513.939 159.509C512.443 159.573 510.978 159.061 509.848 158.077C509.307 157.55 508.891 156.91 508.629 156.202C508.367 155.494 508.266 154.737 508.334 153.985C508.325 153.167 508.527 152.36 508.921 151.643C509.316 150.926 509.888 150.323 510.584 149.893C512.376 148.756 514.481 148.212 516.599 148.338H520.691V146.005C520.698 144.977 520.318 143.984 519.627 143.223C518.602 142.423 517.325 142.016 516.026 142.077C514.735 142.022 513.464 142.412 512.426 143.182C511.991 143.477 511.634 143.874 511.384 144.337C511.135 144.8 511.001 145.316 510.994 145.842H509.111C509.095 145.11 509.263 144.385 509.599 143.735C509.934 143.084 510.428 142.528 511.034 142.118C512.482 140.961 514.298 140.365 516.149 140.44C517.938 140.352 519.698 140.919 521.1 142.036C521.742 142.588 522.247 143.282 522.573 144.064C522.9 144.845 523.04 145.692 522.982 146.537V155.499C522.94 156.139 522.94 156.782 522.982 157.422C523.057 158.044 523.18 158.66 523.35 159.264L521.059 159.141ZM514.308 157.709C515.746 157.757 517.167 157.387 518.399 156.645C519.468 156.027 520.324 155.1 520.854 153.985V149.893H516.763C515.171 149.821 513.597 150.25 512.262 151.12C511.754 151.437 511.333 151.877 511.04 152.399C510.747 152.921 510.59 153.509 510.584 154.108C510.573 154.569 510.663 155.028 510.847 155.452C511.03 155.876 511.304 156.255 511.648 156.563C512.453 157.254 513.494 157.607 514.553 157.545" fill="#717071"/>
<path d="M536.852 142.24H535.338C534.169 142.202 533.024 142.579 532.106 143.304C531.232 144.117 530.62 145.171 530.346 146.332V159.222H528.26V140.481H530.06L530.346 143.591C530.825 142.519 531.572 141.589 532.515 140.89C533.46 140.225 534.593 139.881 535.747 139.908H536.525H537.138L536.852 142.24Z" fill="#717071"/>
<path d="M544.176 135.693V140.481H548.268V142.158H544.176V154.435C544.114 155.348 544.358 156.255 544.872 157.013C545.081 157.274 545.351 157.481 545.657 157.616C545.963 157.751 546.297 157.811 546.631 157.79H547.613H548.677L549.004 159.345C548.599 159.512 548.172 159.622 547.736 159.672H546.263C545.694 159.692 545.128 159.594 544.599 159.382C544.071 159.171 543.592 158.852 543.194 158.445C542.32 157.27 541.926 155.808 542.09 154.353V142.077H538.857V140.399H542.09V135.693H544.176Z" fill="#717071"/>
<path d="M580.181 159.14H578.136V147.601H563.815V159.14H561.77V134.015H563.815V145.841H578.136V134.015H580.181V159.14Z" fill="#717071"/>
<path d="M585.092 149.524C584.999 147.068 585.814 144.664 587.383 142.772C588.109 141.901 589.025 141.208 590.06 140.747C591.096 140.286 592.224 140.069 593.357 140.112C594.495 140.075 595.627 140.294 596.668 140.755C597.709 141.215 598.633 141.905 599.371 142.772C600.925 144.67 601.726 147.073 601.622 149.524V150.097C601.733 152.561 600.931 154.98 599.371 156.89C598.637 157.785 597.703 158.496 596.644 158.965C595.585 159.434 594.431 159.649 593.275 159.591C592.139 159.639 591.008 159.429 589.966 158.975C588.923 158.521 587.998 157.836 587.26 156.972C585.686 155.067 584.87 152.648 584.969 150.179L585.092 149.524ZM587.178 150.097C587.104 152.043 587.68 153.958 588.815 155.539C589.359 156.229 590.052 156.787 590.842 157.17C591.632 157.553 592.499 157.752 593.377 157.752C594.255 157.752 595.122 157.553 595.912 157.17C596.702 156.787 597.395 156.229 597.939 155.539C599.075 153.958 599.65 152.043 599.576 150.097V149.524C599.644 147.592 599.069 145.692 597.939 144.123C597.423 143.396 596.733 142.81 595.933 142.417C595.133 142.024 594.247 141.836 593.357 141.872C592.472 141.84 591.594 142.028 590.801 142.421C590.008 142.814 589.325 143.399 588.815 144.123C587.686 145.692 587.11 147.592 587.178 149.524V150.097Z" fill="#717071"/>
<path d="M607.677 140.481V143.55C608.248 142.509 609.08 141.635 610.091 141.013C611.175 140.399 612.405 140.088 613.651 140.113C614.921 140.071 616.171 140.445 617.21 141.177C618.262 141.941 619.003 143.06 619.297 144.327C619.804 143.091 620.639 142.016 621.711 141.217C622.829 140.452 624.162 140.065 625.516 140.113C626.39 140.063 627.263 140.218 628.066 140.566C628.869 140.914 629.579 141.446 630.139 142.118C631.347 143.926 631.909 146.089 631.735 148.256V159.141H629.689V148.215C629.856 146.486 629.422 144.752 628.462 143.304C628.038 142.829 627.513 142.453 626.925 142.206C626.338 141.958 625.703 141.844 625.066 141.872C624.373 141.84 623.681 141.958 623.038 142.22C622.395 142.481 621.816 142.879 621.343 143.386C620.451 144.492 619.884 145.824 619.706 147.233C619.69 147.355 619.69 147.479 619.706 147.601V159.141H617.824V148.215C617.981 146.499 617.548 144.782 616.596 143.345C616.186 142.85 615.665 142.459 615.075 142.203C614.484 141.947 613.842 141.834 613.2 141.872C612.547 141.851 611.897 141.96 611.286 142.192C610.675 142.423 610.116 142.774 609.641 143.223C608.744 144.013 608.103 145.053 607.8 146.21V159.345H605.713V140.481H607.677Z" fill="#717071"/>
<path d="M644.296 159.591C643.191 159.617 642.095 159.399 641.083 158.954C640.072 158.508 639.172 157.845 638.445 157.013C636.865 155.206 636.031 152.865 636.113 150.465V149.483C636.03 147.059 636.863 144.692 638.445 142.854C639.114 142.022 639.961 141.351 640.925 140.89C641.888 140.43 642.942 140.192 644.01 140.194C645.013 140.144 646.016 140.312 646.948 140.686C647.88 141.061 648.72 141.633 649.411 142.363C650.808 143.966 651.527 146.05 651.415 148.174V149.933H638.282V150.465C638.22 152.353 638.813 154.203 639.959 155.703C640.468 156.389 641.137 156.941 641.906 157.312C642.676 157.682 643.524 157.86 644.378 157.831C645.493 157.865 646.604 157.684 647.651 157.299C648.523 156.956 649.316 156.442 649.983 155.785L650.884 157.176C650.14 157.954 649.231 158.555 648.224 158.936C646.997 159.402 645.69 159.624 644.378 159.591M644.092 141.954C643.361 141.95 642.639 142.106 641.975 142.41C641.311 142.714 640.72 143.159 640.245 143.713C639.193 144.943 638.562 146.477 638.445 148.092H649.37V147.601C649.43 146.104 648.918 144.641 647.938 143.509C647.45 142.967 646.849 142.539 646.177 142.256C645.505 141.973 644.779 141.842 644.051 141.872" fill="#717071"/>
<path d="M666.677 154.394C666.67 153.959 666.572 153.53 666.389 153.135C666.205 152.74 665.941 152.389 665.614 152.102C664.403 151.239 662.997 150.691 661.522 150.506C659.755 150.222 658.067 149.566 656.571 148.583C656.059 148.189 655.648 147.68 655.371 147.097C655.093 146.514 654.958 145.873 654.976 145.228C654.966 144.521 655.124 143.823 655.437 143.19C655.75 142.557 656.209 142.007 656.776 141.586C658.135 140.55 659.816 140.028 661.522 140.113C663.331 140.015 665.116 140.567 666.555 141.668C667.158 142.156 667.633 142.784 667.939 143.496C668.246 144.209 668.374 144.986 668.314 145.76H666.391C666.394 145.239 666.278 144.725 666.051 144.257C665.824 143.788 665.492 143.379 665.082 143.059C664.086 142.265 662.836 141.858 661.563 141.913C660.363 141.825 659.171 142.174 658.208 142.895C657.852 143.162 657.564 143.508 657.365 143.906C657.166 144.303 657.062 144.742 657.062 145.187C657.056 145.592 657.141 145.994 657.311 146.363C657.481 146.731 657.731 147.056 658.044 147.315C659.226 148.065 660.549 148.567 661.931 148.788C663.722 149.105 665.424 149.803 666.923 150.834C667.46 151.235 667.89 151.762 668.175 152.369C668.46 152.975 668.592 153.643 668.56 154.312C668.58 155.052 668.419 155.785 668.091 156.448C667.762 157.112 667.277 157.685 666.677 158.118C665.224 159.147 663.464 159.652 661.686 159.55C659.767 159.664 657.87 159.099 656.326 157.954C655.708 157.474 655.217 156.85 654.896 156.137C654.575 155.424 654.434 154.643 654.485 153.862H656.408C656.408 154.446 656.558 155.02 656.845 155.529C657.132 156.038 657.545 156.465 658.044 156.767C659.138 157.394 660.385 157.705 661.645 157.668C662.906 157.733 664.155 157.389 665.205 156.685C665.594 156.424 665.914 156.071 666.135 155.657C666.356 155.243 666.472 154.781 666.473 154.312" fill="#717071"/>
<path d="M184.488 31.2633C181.706 14.0766 160.757 3.76459 135.839 8.71599C120.927 12.0038 107.436 19.9246 97.2969 31.3452C108.599 32.369 119.342 36.7273 128.164 43.867C136.985 51.0067 143.487 60.6061 146.846 71.4475C176.796 65.6367 187.106 50.537 184.488 31.2633Z" fill="#96BE24"/>
<path d="M122.746 73.6573H124.383C121.284 66.6253 115.925 60.8296 109.158 57.1897C102.391 53.5499 94.6019 52.2743 87.0272 53.5652C86.9649 54.3551 86.9649 55.1487 87.0272 55.9386C89.6048 69.0742 104.171 73.6573 122.746 73.6573Z" fill="#96BE24"/>
<path d="M92.4289 49.1048C100.213 49.1229 107.814 51.4709 114.253 55.8467C120.692 60.2224 125.674 66.4255 128.557 73.6573C133.058 73.4526 137.722 73.0025 142.469 72.3887H142.837C139.52 61.9712 133.058 52.8371 124.339 46.2422C115.62 39.6473 105.073 35.9156 94.1473 35.5601C90.8707 39.7286 88.5392 44.5596 87.3145 49.7186C89.0052 49.4105 90.7132 49.2055 92.4289 49.1048Z" fill="#96BE24"/>
<path d="M62.2324 102.302H60.6367C63.4112 108.406 67.8847 113.581 73.5226 117.21C79.1604 120.838 85.7238 122.766 92.428 122.762C94.3567 122.808 96.286 122.698 98.1971 122.435C98.1918 121.653 98.1234 120.873 97.9926 120.102C95.2512 106.885 80.6853 102.302 62.2324 102.302Z" fill="#D5206D"/>
<path d="M92.4284 126.854C84.6438 126.836 77.0428 124.488 70.6041 120.112C64.1653 115.737 59.1835 109.534 56.3 102.302C51.7993 102.506 47.1349 102.916 42.4297 103.529H42.0205C45.3373 113.947 51.7993 123.081 60.5181 129.676C69.2368 136.271 79.7842 140.003 90.7099 140.358C93.9946 136.189 96.3394 131.359 97.5837 126.199C95.8775 126.461 94.1545 126.598 92.4284 126.609" fill="#D5206D"/>
<path d="M38.0517 104.552C8.18343 110.486 -2.25001 125.463 0.409491 144.736C3.15083 161.923 24.0995 172.235 49.0171 167.243C63.9308 163.982 77.4256 156.073 87.5595 144.655C76.251 143.666 65.496 139.319 56.6748 132.174C47.8535 125.029 41.3684 115.41 38.0517 104.552Z" fill="#D5206D"/>
<path d="M77.7396 56.3479C71.7106 59.1509 66.6064 63.616 63.0262 69.219C59.4459 74.822 57.5384 81.3302 57.5273 87.9796C57.5457 89.8718 57.7099 91.7597 58.0183 93.6267C61.7199 92.8059 65.0778 90.8624 67.6335 88.0615C73.1571 82.2507 76.594 69.8108 77.7396 56.3479Z" fill="#1E95D4"/>
<path d="M53.4768 87.9796C53.4977 80.1896 55.8461 72.5836 60.2203 66.138C64.5946 59.6924 70.7952 54.7014 78.0261 51.8057C78.2182 46.962 78.1226 42.1112 77.7397 37.2788C66.7513 40.4603 57.0926 47.1236 50.2158 56.2667C43.3391 65.4098 39.616 76.5385 39.6064 87.9796C39.6064 88.1842 39.6064 88.3888 39.6064 88.6343C43.7628 91.7595 48.7385 93.6078 53.9269 93.954C53.6174 91.9772 53.4533 89.9804 53.4359 87.9796" fill="#1E95D4"/>
<path d="M77.412 33.1458C76.8351 25.6864 74.6134 18.4474 70.9064 11.9489C68.8036 8.42706 65.852 5.48833 62.3212 3.40106C58.7905 1.31378 54.7931 0.1445 50.6942 0C42.3883 0 33.2642 4.62404 24.5492 14.3223C7.3647 33.2276 15.2205 58.3939 26.2676 74.5985C28.9192 78.6199 32.0672 82.2908 35.6373 85.5243C36.1798 73.5009 40.5137 61.9577 48.0179 52.5487C55.5221 43.1397 65.8115 36.3477 77.412 33.1458Z" fill="#1E95D4"/>
<path d="M107.485 142.813C108.01 150.282 110.235 157.533 113.991 164.01C116.094 167.532 119.045 170.471 122.576 172.558C126.107 174.645 130.104 175.814 134.203 175.959C142.386 175.959 151.592 171.294 160.471 161.596C177.696 142.731 169.841 117.524 158.793 101.319C156.064 97.3093 152.848 93.6531 149.219 90.4346C148.692 102.456 144.368 114.002 136.87 123.412C129.372 132.823 119.084 139.615 107.485 142.813Z" fill="#EFB918"/>
<path d="M107.158 119.611C113.187 116.808 118.291 112.343 121.872 106.74C125.452 101.137 127.359 94.6291 127.37 87.9797C127.337 86.1001 127.16 84.2258 126.838 82.3735C123.14 83.1712 119.788 85.1193 117.264 87.9388C111.741 93.7495 108.304 106.189 107.117 119.611" fill="#EFB918"/>
<path d="M131.421 87.9794C131.416 95.7732 129.075 103.387 124.698 109.835C120.322 116.284 114.112 121.272 106.871 124.153C106.632 129.009 106.7 133.874 107.076 138.721C118.072 135.533 127.737 128.864 134.62 119.714C141.504 110.565 145.234 99.4294 145.25 87.9794V87.3656C141.102 84.194 136.133 82.2769 130.93 81.8413C131.271 83.8148 131.449 85.813 131.462 87.8157" fill="#EFB918"/>
</g>
<defs>
<clipPath id="clip0_295_68">
<rect width="699" height="176" fill="white"/>
</clipPath>
</defs>
</svg>
