<svg width="343" height="176" viewBox="0 0 343 176" fill="none" xmlns="http://www.w3.org/2000/svg">
<g clip-path="url(#clip0_305_345)">
<path d="M2.47861 0.826935C12.9336 0.727485 23.1255 0.791387 33.3134 0.619097C36.2064 0.570164 36.9481 1.59437 36.9375 4.35068C36.8484 27.4945 36.8862 50.6389 36.8887 73.7831C36.8893 78.8096 36.8927 78.8161 41.8009 80.371C43.4946 80.9075 44.8695 81.8464 44.8059 83.7607C44.7396 85.755 43.0775 86.4129 41.4456 86.8275C40.6661 87.0256 39.8082 86.9401 38.9858 86.941C27.9711 86.9521 16.9563 86.9569 5.94155 86.9586C5.22153 86.9587 4.48081 87.0227 3.78561 86.8811C2.13114 86.544 0.507652 85.9577 0.115883 84.0831C-0.323583 81.9802 1.27827 80.9806 2.85716 80.5815C6.09202 79.7638 6.86707 77.7957 6.8513 74.681C6.74663 54.006 6.75114 33.3301 6.85079 12.655C6.8648 9.75014 5.94715 8.13436 3.15972 7.12883C-0.657525 5.75181 -0.891286 3.54208 2.47861 0.826935Z" fill="black"/>
<path d="M1.46779 95.3519C0.220523 94.1933 -0.478656 92.9687 0.378714 91.6382C1.32268 90.1734 2.89601 89.6124 4.65155 89.6154C10.0063 89.6246 15.3611 89.6214 20.7159 89.6212C25.1439 89.6209 29.5732 89.681 33.9993 89.5887C36.0993 89.5449 36.9107 90.301 36.907 92.4561C36.8614 119.312 36.863 146.169 36.9101 173.025C36.9138 175.131 36.2435 175.924 34.0661 175.905C24.181 175.819 14.2948 175.863 4.40908 175.871C2.42742 175.873 0.516263 175.54 0.153309 173.244C-0.210098 170.946 1.48329 169.978 3.4024 169.484C5.90598 168.84 6.81935 167.24 6.81502 164.731C6.7781 143.328 6.71601 121.924 6.87156 100.523C6.90054 96.5348 3.60387 96.9408 1.46779 95.3519Z" fill="black"/>
<path d="M310.454 86.345C288.215 86.3397 266.285 86.2798 244.355 86.391C241.284 86.4065 240.32 85.5903 240.339 82.4222C240.473 60.2013 240.463 37.979 240.346 15.7579C240.329 12.7037 241.101 11.5035 244.302 11.7318C247.989 11.9948 251.712 11.7166 255.416 11.8188C257.518 11.8768 258.541 11.1279 258.318 8.96517C258.308 8.86344 258.317 8.75952 258.319 8.65669C258.487 2.07526 258.484 2.14556 264.98 2.50473C266.914 2.61162 267.348 3.44014 267.417 5.17481C267.679 11.7932 267.727 11.7915 274.471 11.7915C287.135 11.7915 299.799 11.7374 312.462 11.8366C315.002 11.8565 315.868 11.0501 315.857 8.48425C315.827 1.98314 315.987 1.97708 322.658 2.52066C324.196 2.64601 324.796 3.18526 324.903 4.74282C325.055 6.95606 323.835 9.80564 325.56 11.2333C327.408 12.7615 330.317 11.6605 332.758 11.7688C335.121 11.8737 337.5 11.9108 339.858 11.7612C342.207 11.6122 342.844 12.6091 342.831 14.8323C342.757 27.6916 342.801 40.5516 342.801 53.4113C342.8 63.2876 342.725 73.1647 342.839 83.0397C342.868 85.5892 342.044 86.4151 339.487 86.3833C329.913 86.2643 320.338 86.3413 310.454 86.345ZM266.265 82.1919C289.232 82.1926 312.199 82.1553 335.165 82.2447C337.856 82.2552 338.728 81.4522 338.715 78.7337C338.619 58.8725 338.635 39.0106 338.699 19.1491C338.707 16.8297 338.148 15.878 335.591 15.8852C306.549 15.9671 277.505 15.9649 248.463 15.8961C245.927 15.8901 245.095 16.6465 245.106 19.2281C245.196 39.1923 245.196 59.1572 245.102 79.1214C245.09 81.6541 245.988 82.2885 248.346 82.2346C254.11 82.1028 259.88 82.1916 266.265 82.1919Z" fill="black"/>
<path d="M92.5939 147.481C88.9618 141.889 85.4831 136.463 81.9739 131.057C81.2975 130.015 80.4543 129.19 79.1397 128.84C78.0785 128.557 76.7119 128.065 76.931 126.688C77.18 125.122 78.5839 124.796 80.0273 124.805C82.4955 124.821 84.964 124.803 87.4324 124.802C90.0036 124.8 92.6098 125.068 95.1376 124.738C98.6226 124.282 100.608 125.82 102.344 128.605C108.246 138.075 114.265 147.473 120.324 156.843C121.663 158.914 122.327 161 122.211 163.478C122.056 166.759 122.113 170.055 122.185 173.342C122.224 175.167 121.545 175.969 119.66 175.888C117.298 175.787 114.929 175.828 112.564 175.859C111.293 175.875 110.527 175.313 109.843 174.242C104.174 165.358 98.4464 156.512 92.5939 147.481Z" fill="black"/>
<path d="M319.118 126.17C319.137 126.717 319.192 127.194 319.023 127.294C314.931 129.73 316.646 132.597 318.228 135.629C320.079 139.174 321.561 142.913 323.435 146.445C325.357 150.069 326.524 153.749 326.165 157.923C325.928 160.68 326.169 163.475 326.107 166.251C326.045 168.994 326.18 171.483 329.761 171.91C330.549 172.004 331.311 172.734 331.312 173.614C331.313 174.469 330.709 175.029 329.795 175.319C328.804 175.633 327.838 175.885 326.79 175.882C320.407 175.862 314.024 175.88 307.641 175.845C306.837 175.841 306.017 175.669 305.237 175.457C304.265 175.191 303.013 174.995 303.094 173.66C303.164 172.506 304.144 171.93 305.231 171.771C307.747 171.402 308.273 169.539 308.346 167.505C308.577 161.133 308.569 154.942 305.023 149.059C301.919 143.909 299.818 138.156 297.249 132.681C296.427 130.929 295.662 129.223 293.903 128.008C292.361 126.944 292.869 124.956 294.643 124.931C302.253 124.822 309.867 124.928 317.479 125.025C318.006 125.032 318.526 125.611 319.118 126.17Z" fill="black"/>
<path d="M206.225 165.093C206.214 168.315 205.554 171.395 209.834 172.325C211.383 172.662 211.53 174.276 209.814 175.274C208.885 175.815 207.864 175.867 206.825 175.866C200.543 175.861 194.261 175.867 187.978 175.859C187.056 175.858 186.15 175.846 185.276 175.396C183.348 174.403 183.117 172.895 185.107 172.104C187.718 171.064 187.906 169.258 187.895 166.953C187.839 155.737 187.842 144.519 187.892 133.302C187.902 131.112 187.796 129.191 185.223 128.445C184.296 128.176 183.582 127.479 183.755 126.373C183.908 125.396 184.85 124.983 185.576 124.973C191.957 124.879 198.339 124.841 204.72 124.915C206.582 124.937 206.197 126.604 206.203 127.748C206.241 134.951 206.225 142.155 206.225 149.359C206.226 154.504 206.225 159.65 206.225 165.093Z" fill="black"/>
<path d="M134.684 172.28C137.255 171.468 137.877 169.858 137.857 167.477C137.759 155.956 137.782 144.433 137.847 132.912C137.859 130.805 137.771 129.033 135.241 128.46C134.447 128.28 133.636 127.692 133.776 126.725C133.941 125.584 134.842 124.899 135.939 124.889C142.115 124.835 148.291 124.826 154.467 124.878C156.556 124.896 156.136 126.616 156.143 127.858C156.181 135.265 156.165 142.672 156.164 150.079C156.164 157.589 156.073 165.1 156.209 172.608C156.256 175.204 155.326 175.992 152.811 175.915C147.668 175.757 142.516 175.923 137.37 175.825C134.241 175.765 133.462 174.725 134.684 172.28Z" fill="black"/>
<path d="M133.757 39.03C132.278 36.815 133.279 35.937 135.267 35.9201C142.469 35.8589 149.672 35.9037 156.875 35.8941C158.152 35.8924 159.226 36.4407 159.527 37.6007C159.946 39.2152 158.418 39.3802 157.402 39.6064C155.185 40.1001 154.889 41.5485 154.898 43.5119C154.954 56.5698 154.858 69.6288 154.975 82.686C155 85.4536 154.249 86.5082 151.342 86.3861C146.206 86.1704 141.055 86.3284 135.91 86.3218C134.767 86.3203 133.503 86.3692 133.118 84.9756C132.705 83.4762 133.863 83.0688 134.979 82.6695C136.212 82.2282 136.591 81.2963 136.588 80.0102C136.56 67.4661 136.538 54.9218 136.614 42.3781C136.626 40.3651 135.516 39.6845 133.757 39.03Z" fill="black"/>
<path d="M198.808 75.6139C198.803 78.5966 198.753 81.2717 198.81 83.9444C198.846 85.6468 198.12 86.3441 196.427 86.3308C190.972 86.288 185.516 86.3136 180.061 86.3073C178.992 86.3061 177.924 86.1849 177.588 84.9472C177.237 83.6544 178.094 83.1125 179.152 82.7193C180.767 82.1188 181.09 80.8263 181.086 79.2483C181.059 67.2148 181.053 55.1811 181.099 43.1477C181.106 41.3026 180.659 39.9509 178.763 39.3059C177.775 38.9698 177.28 38.1693 177.58 37.1118C177.844 36.1795 178.65 35.916 179.523 35.9153C186.933 35.91 194.344 35.9076 201.754 35.9323C202.899 35.9361 203.641 36.5864 203.987 37.6559C203.787 38.4512 203.282 39.0848 202.601 39.2417C199.018 40.0661 198.811 42.8023 198.81 45.6843C198.807 55.558 198.808 65.4316 198.808 75.6139Z" fill="black"/>
<path d="M98.5576 87.5711C94.496 87.1345 90.9085 86.219 87.3955 84.5977C81.9049 82.0637 79.7825 77.7295 79.7423 72.0785C79.6757 62.7262 79.6883 53.3729 79.7539 44.0206C79.7686 41.9335 79.6647 40.1325 77.3209 39.2954C76.5063 39.0045 76.0162 38.2536 76.1899 37.3199C76.3996 36.1931 77.2871 35.9084 78.2742 35.9073C85.3709 35.8993 92.4677 35.9022 99.5643 35.9194C100.563 35.9218 101.44 36.2669 101.606 37.3855C101.767 38.47 101.149 39.1513 100.138 39.4122C97.7143 40.0382 97.4295 41.8322 97.4377 43.9466C97.4761 53.9159 97.3687 63.8865 97.5014 73.8542C97.5468 77.2633 97.4571 80.9172 101.419 82.786C102.972 83.5189 102.521 85.1779 102.231 86.3781C101.785 88.2276 100.044 87.3333 98.5576 87.5711Z" fill="black"/>
<path d="M232.267 167.563C233.482 169.455 234.214 167.824 235.057 167.39C235.991 166.908 236.774 166.853 237.568 167.645C238.244 168.32 238.404 169.009 237.936 169.857C235.939 173.477 232.982 175.987 228.85 176.405C224.205 176.876 219.535 176.77 216.241 172.529C214.994 170.923 214.447 169.108 214.453 167.095C214.46 164.626 214.484 162.155 214.438 159.686C214.388 156.997 213.733 154.723 210.991 153.342C208.81 152.244 208.861 149.706 211.075 148.997C213.841 148.111 214.32 146.098 214.412 143.772C214.517 141.1 214.431 138.421 214.45 135.746C214.473 132.701 214.034 129.938 210.519 128.941C209.044 128.522 209.598 127.312 209.564 126.372C209.527 125.379 210.105 124.888 211.094 124.856C216.994 124.666 222.765 124.88 227.8 128.66C234.228 133.488 233.539 144.093 226.439 147.82C224.665 148.751 222.781 149.473 220.68 150.411C222.183 151.619 223.759 151.703 225.156 152.185C230.168 153.915 232.147 156.667 232.181 162.085C232.192 163.834 232.207 165.583 232.267 167.563Z" fill="black"/>
<path d="M241.645 147.376C242.412 134.746 252.649 123.993 263.844 123.887C264.585 125.737 264.67 127.325 262.667 128.627C260.694 129.91 260.674 132.174 260.658 134.161C260.568 145.164 260.608 156.167 260.622 167.169C260.625 169.079 261.072 170.865 262.692 172.085C264.043 173.101 263.983 174.546 263.409 175.686C262.711 177.072 261.305 176.383 260.116 176.1C249.55 173.581 240.868 163.345 241.628 151.986C241.724 150.553 241.644 149.108 241.645 147.376Z" fill="black"/>
<path d="M67.6277 149.526C70.5687 149.584 70.7343 151.799 70.7774 153.484C70.9484 160.166 70.8306 166.854 70.8652 173.54C70.8742 175.272 70.0669 175.881 68.4103 175.874C60.5869 175.837 52.7631 175.834 44.9397 175.869C43.1777 175.876 42.4236 175.028 42.687 173.41C42.9289 171.924 41.5369 169.778 44.4248 169.254C54.1967 167.483 60.6198 161.824 63.8171 152.422C64.355 150.841 65.3338 149.452 67.6277 149.526Z" fill="black"/>
<path d="M286.567 159.692C286.567 161.733 286.355 163.512 286.611 165.22C287.139 168.738 285.512 170.703 282.562 172.279C278.903 174.234 275.102 175.684 271.045 176.404C269.958 176.597 268.378 177.037 267.817 175.483C267.299 174.046 267.587 172.901 269.263 171.993C271.315 170.882 271.1 168.455 271.248 166.477C271.447 163.819 271.261 161.135 271.323 158.464C271.377 156.154 270.659 154.466 268.201 153.881C267.059 153.61 265.874 153.122 266.207 151.684C266.501 150.408 267.677 150.123 268.903 150.125C274.149 150.135 279.395 150.124 284.641 150.123C285.361 150.123 286.081 150.152 286.801 150.147C287.82 150.141 288.654 150.548 289.06 151.465C289.519 152.506 288.861 153.175 288.047 153.736C285.93 155.193 286.724 157.422 286.567 159.692Z" fill="black"/>
<path d="M69.6411 109.499C69.5036 112.048 70.3389 114.797 66.8105 115.315C64.8299 115.605 63.6781 114.652 63.132 112.841C60.4733 104.028 54.6145 98.7683 45.5313 97.295C41.7811 96.6867 42.7096 94.0273 42.6679 91.7131C42.6188 88.9888 44.695 89.6281 46.1971 89.6169C52.8902 89.5671 59.5857 89.6908 66.2764 89.5566C68.7713 89.5066 69.7569 90.2145 69.6781 92.8414C69.5148 98.2899 69.6365 103.747 69.6411 109.499Z" fill="black"/>
<path d="M66.8729 0.680286C69.3759 0.466799 69.6592 1.79362 69.6465 3.56537C69.6017 9.82886 69.6174 16.093 69.6474 22.3567C69.6564 24.2363 69.4029 25.9743 67.1793 26.3237C64.9977 26.6664 63.6274 25.4024 63.0571 23.4493C61.4515 17.9511 57.9225 13.9764 53.3252 10.8107C50.2709 8.70755 46.5859 8.53603 43.1777 7.59404C43.0507 7.39537 42.8667 7.23371 42.8418 7.0505C41.9914 0.778295 42.0827 0.675306 48.3832 0.675386C54.4463 0.675466 60.5094 0.676299 66.8729 0.680286Z" fill="black"/>
<path d="M50.4617 54.3238C49.5688 50.7599 47.2486 48.6665 44.424 47.045C42.1366 45.7319 41.6639 40.0271 43.995 38.7657C47.9817 36.6083 50.3833 33.4707 51.2536 29.0664C51.6797 26.9103 52.8926 25.3752 55.2484 25.8139C57.3989 26.2143 57.9458 27.9225 57.9277 30.0273C57.8544 38.5451 57.8854 47.0639 57.9064 55.5822C57.9114 57.626 57.8128 59.8501 55.3782 60.1851C52.7664 60.5445 51.6133 58.6516 51.2247 56.2485C51.129 55.6565 50.7997 55.1021 50.4617 54.3238Z" fill="black"/>
<path d="M57.9005 126.872C57.8992 133.241 57.8786 139.301 57.9077 145.362C57.9168 147.27 57.5797 148.926 55.3487 149.253C53.0164 149.595 51.7984 148.006 51.4408 146.142C50.5477 141.484 48.2774 138.077 43.9518 135.92C41.8841 134.889 41.9563 129.144 44.0644 127.886C47.9068 125.593 50.2598 122.38 51.408 118.092C51.9463 116.082 53.2198 114.516 55.6635 115.039C57.914 115.521 57.9303 117.35 57.9067 119.167C57.8747 121.632 57.8998 124.098 57.9005 126.872Z" fill="black"/>
<path d="M124.998 39.0912C121.36 40.9317 120.188 43.7245 120.267 47.5113C120.435 55.6222 120.389 63.74 120.292 71.8533C120.193 80.123 114.953 86.0321 106.723 87.227C106.045 85.034 105.759 83.2348 108.685 82.2532C113.57 80.6146 116.093 77.069 116.15 71.8324C116.241 63.4108 116.17 54.9875 116.178 46.5649C116.181 43.6506 114.918 41.5259 112.458 39.9415C111.448 39.2912 109.704 38.7494 110.328 37.0233C110.917 35.3903 112.58 35.9156 113.845 35.897C117.236 35.8471 120.633 35.7921 124.019 35.9355C126.349 36.0342 127.161 37.0326 124.998 39.0912Z" fill="black"/>
<path d="M80.7174 170.214C82.3342 167.589 82.8142 164.905 82.8107 162.094C82.8017 154.925 82.8077 147.757 82.8077 139.63C85.3452 142.206 86.9515 144.185 86.9442 147.143C86.9295 153.096 87.0367 159.051 86.909 165.001C86.8443 168.018 87.9138 170.127 90.6266 171.46C91.7128 171.994 93.1575 172.623 92.7762 174.064C92.3986 175.491 90.8793 175.818 89.4983 175.839C86.6231 175.884 83.7468 175.855 80.8709 175.865C79.2725 175.871 77.4594 175.728 76.9946 174.048C76.4917 172.231 78.5522 171.974 79.6378 171.168C79.9644 170.926 80.2708 170.656 80.7174 170.214Z" fill="black"/>
<path d="M281.157 137.542C278.853 132.24 275.519 128.464 269.67 127.666C268.422 127.496 268.283 126.665 268.305 125.66C268.328 124.579 269.008 124.316 269.925 124.227C272.999 123.931 275.78 125.061 278.592 126.004C280.454 126.628 282.121 127.01 283.422 124.901C283.949 124.045 285.06 123.481 286.128 123.893C287.299 124.344 287.169 125.54 287.171 126.566C287.177 130.99 287.186 135.414 287.166 139.838C287.16 141.162 287.325 142.682 285.513 143.02C283.618 143.374 283.091 141.901 282.512 140.556C282.107 139.615 281.674 138.687 281.157 137.542Z" fill="black"/>
<path d="M117.415 139.23C117.415 137.796 117.309 136.653 117.435 135.535C117.785 132.416 116.635 130.156 113.847 128.687C112.853 128.163 111.704 127.584 112.087 126.154C112.468 124.731 113.746 124.822 114.874 124.816C118.168 124.799 121.462 124.843 124.755 124.796C126.221 124.775 127.593 125.121 128.031 126.548C128.484 128.024 126.934 128.325 126.001 128.816C123.247 130.266 122.084 132.481 122.145 135.586C122.251 140.913 122.175 146.244 122.175 152.107C117.562 148.597 116.98 144.253 117.415 139.23Z" fill="black"/>
<path d="M167.698 175.881C165.749 175.872 164.105 175.872 162.462 175.85C161.282 175.834 160.167 175.757 160.107 174.131C160.062 172.905 160.189 171.897 161.649 171.575C167.288 170.332 171.045 166.917 173.162 161.593C173.567 160.576 174.294 159.872 175.545 160.13C176.796 160.389 177.136 161.299 177.139 162.416C177.152 166.11 177.122 169.805 177.169 173.499C177.19 175.18 176.492 175.925 174.783 175.879C172.526 175.818 170.265 175.875 167.698 175.881Z" fill="black"/>
<path d="M340.356 124.866C343.279 126.752 343.327 127.418 340.555 128.739C337.899 130.005 336.187 131.967 334.946 134.581C332.846 139.005 330.575 143.349 328.314 147.851C325.957 145.58 325.469 143.423 327.217 140.85C328.074 139.588 328.624 138.117 329.315 136.742C331.616 132.165 331.374 131.171 327.162 128.388C326.435 127.908 325.651 127.416 325.984 126.493C326.402 125.333 327.422 124.82 328.674 124.823C332.478 124.831 336.281 124.833 340.356 124.866Z" fill="black"/>
<path d="M217.965 82.9605C218.306 85.7583 217.095 86.4916 214.753 86.3764C211.777 86.2299 208.784 86.2285 205.807 86.3635C202.791 86.5004 202.249 85.1268 203.106 82.4948C208.234 81.879 210.848 78.3883 212.712 74.0664C213.118 73.1245 213.505 72.1735 213.881 71.2191C214.314 70.1212 214.8 69.0914 216.27 69.3409C217.707 69.5849 217.953 70.644 217.953 71.8664C217.952 75.4637 217.961 79.061 217.965 82.9605Z" fill="black"/>
<path d="M167.243 76.4071C168.368 74.6434 168.808 72.8456 169.457 71.1272C169.875 70.0201 170.719 69.1827 172.047 69.4383C173.331 69.6856 173.447 70.77 173.448 71.8368C173.452 75.9366 173.424 80.0365 173.458 84.1359C173.471 85.7027 172.766 86.3491 171.226 86.3333C167.636 86.2964 164.046 86.323 160.456 86.312C159.38 86.3088 158.362 86.204 158.28 84.7653C158.209 83.5271 158.434 82.5142 159.884 82.2363C163.254 81.5905 165.52 79.52 167.243 76.4071Z" fill="black"/>
<path d="M172.582 124.805C175.602 124.441 176.841 125.405 176.608 128.353C176.374 131.316 176.557 134.311 176.543 137.292C176.538 138.448 176.524 139.679 175.027 139.913C173.824 140.101 172.964 139.27 172.64 138.319C170.877 133.139 167.167 130.314 161.968 129.215C160.274 128.857 159.945 127.768 160.129 126.258C160.338 124.553 161.65 124.843 162.713 124.826C165.901 124.778 169.091 124.805 172.582 124.805Z" fill="black"/>
<path d="M169.11 141.942C169.129 147.038 169.146 151.853 169.13 156.667C169.126 157.877 169.297 159.317 167.656 159.628C166.046 159.932 165.433 158.556 165.155 157.437C164.593 155.179 163.164 153.72 161.435 152.366C159.585 150.917 159.445 148.541 161.251 147.216C163.241 145.755 164.584 143.969 165.313 141.63C165.581 140.771 166.009 139.842 167.129 139.782C168.404 139.714 168.953 140.497 169.11 141.942Z" fill="black"/>
<path d="M269.34 52.3723C267.558 52.3539 266.766 53.0386 266.797 54.6034C266.821 55.8357 266.682 57.0808 266.81 58.2997C267.076 60.8248 266.096 61.7583 263.513 61.6715C259.6 61.5398 259.585 61.6724 259.561 57.7485C259.559 57.4403 259.561 57.132 259.561 56.8238C259.554 52.3745 259.554 52.3745 254.984 52.3601C254.573 52.3588 254.161 52.36 253.75 52.3578C250.111 52.3383 248.26 49.3342 249.863 46.0924C250.472 44.8608 251.6 45.2018 252.56 45.1611C259.305 44.8751 259.444 44.8898 259.499 38.092C259.521 35.2844 261.001 35.2074 263.019 35.2524C265.013 35.2969 266.828 35.0181 266.851 38.1182C266.902 44.878 267.053 45.0389 273.755 45.0749C277.081 45.0928 276.577 47.1056 276.701 49.1488C276.839 51.439 276.192 52.6869 273.621 52.3846C272.302 52.2296 270.95 52.3626 269.34 52.3723Z" fill="black"/>
<path d="M307.22 46.687C307.645 44.8104 308.969 45.1656 310.016 45.1604C317.091 45.1248 324.169 45.2569 331.24 45.0903C334.251 45.0193 334.14 46.7236 334.179 48.8036C334.22 51.0153 334.004 52.5031 331.115 52.4213C324.865 52.2443 318.607 52.3633 312.352 52.3653C307.092 52.3669 307.092 52.3695 307.22 46.687Z" fill="black"/>
</g>
<defs>
<clipPath id="clip0_305_345">
<rect width="343" height="176" fill="white"/>
</clipPath>
</defs>
</svg>
