<svg width="1383" height="176" viewBox="0 0 1383 176" fill="none" xmlns="http://www.w3.org/2000/svg">
<g clip-path="url(#clip0_295_49)">
<path d="M1080.98 0.778109C1047.93 -0.328308 1012.21 18.6915 995.261 54.5008C984.743 74.7149 976.718 97.2121 971.379 119.305C970.905 121.245 970.46 123.192 970.045 125.145C969.518 128.288 969.474 132.319 969.755 136.428C971.063 153.815 986.499 174.837 1011.94 176.031H1042.11C1075.15 177.129 1110.86 158.1 1127.82 122.291C1138.34 102.077 1146.36 79.5621 1151.7 57.4864C1152.17 55.5195 1152.63 53.5701 1153.03 51.6382C1153.58 48.4858 1153.62 44.4728 1153.32 40.3545C1152.02 22.9592 1136.58 1.95478 1111.14 0.769328H1080.97L1080.98 0.778109ZM514.374 2.37627L527.887 174.328H554.982H554.824H556.422C559.021 174.244 561.563 173.54 563.835 172.275C566.108 171.011 568.045 169.222 569.487 167.057H569.504L679.976 2.38505H651.405L572.27 120.579L562.981 2.39383H514.365L514.374 2.37627ZM699.722 2.37627L636.321 174.328H684.989L748.364 2.38505H699.722V2.37627ZM813.908 2.37627C770.192 2.90313 750.875 51.5504 774.757 82.7057C786.874 97.5019 804.171 112.842 813.943 129.044C820.133 137.807 813.513 152.419 801.686 152.559H724.5L716.51 174.328H814.233C852.54 174.214 878.459 129.105 852.751 94.5075C840.889 76.9804 822.073 65.0118 810.94 47.8887C804.329 38.9583 810.975 24.2939 822.934 24.1358H894.773L902.772 2.37627H813.908ZM936.452 2.37627L873.095 174.336H921.745L985.129 2.38505H936.452V2.37627ZM1199.14 2.37627L1135.48 174.328H1160.56L1204.42 55.818L1204.64 57.943L1244.05 164.37C1245.24 167.189 1247.19 169.617 1249.7 171.378C1252.2 173.138 1255.14 174.16 1258.2 174.328H1281.12L1344.8 2.38505H1319.73L1276.71 118.594L1230.88 2.38505H1199.13L1199.14 2.37627ZM1092.1 18.551C1101.27 19.2535 1108.56 26.9721 1108.56 36.3328C1108.63 38.6334 1108.24 40.9077 1107.37 42.9888L1075.22 130.554C1068.73 147.361 1053.66 157.661 1035.75 158.188H1031C1026.52 157.831 1022.34 155.803 1019.29 152.507C1016.24 149.211 1014.54 144.888 1014.53 140.398C1014.45 138.113 1014.87 135.837 1015.74 133.724L1047.87 46.1588C1054.37 29.3518 1069.44 19.0779 1087.38 18.5598H1092.1V18.551Z" fill="#6C6E71"/>
<path d="M63.3925 2.38499L0 174.336H51.671L81.9888 92.1014H143.502L113.185 174.336H153.547C160.378 174.336 166.243 170.025 168.622 164.01C168.649 163.922 168.675 163.896 168.71 163.852L228.239 2.37621H176.568L152.16 68.5857H90.646L115.055 2.37621H63.3925V2.38499ZM261.068 2.38499L197.693 174.336H249.338L312.73 2.38499H261.068ZM347.877 2.38499L284.494 174.336H336.147L360.45 108.39L373.357 98.4765L407.626 164.914L407.644 164.826L407.731 164.985C409.146 167.921 411.405 170.367 414.219 172.01C417.034 173.653 420.275 174.417 423.527 174.205C423.404 174.205 423.263 174.292 423.132 174.292H466.997L412.429 68.4539L498.5 2.36743H459.894L375.693 67.0226L399.531 2.36743H347.877V2.38499Z" fill="#D71820"/>
<path d="M1382.88 17.585C1382.88 27.1652 1375.36 34.673 1365.58 34.673C1355.91 34.673 1348.2 27.1652 1348.2 17.585C1348.2 8.2068 1355.91 0.690186 1365.58 0.690186C1375.36 0.690186 1382.88 8.2068 1382.88 17.585ZM1352.52 17.585C1352.52 25.1016 1358.07 31.0728 1365.69 31.0728C1373.11 31.0728 1378.56 25.1016 1378.56 17.6816C1378.56 10.1738 1373.11 4.08847 1365.58 4.08847C1358.06 4.08847 1352.52 10.1738 1352.52 17.585ZM1362.9 26.4364H1359V9.55909C1361.14 9.1767 1363.32 9.00028 1365.49 9.03223C1368.67 9.03223 1370.12 9.55909 1371.35 10.2791C1371.88 10.7338 1372.31 11.3031 1372.59 11.9446C1372.88 12.5861 1373.01 13.2834 1372.99 13.9848C1372.99 15.8464 1371.55 17.2777 1369.49 17.8923V18.1031C1371.14 18.7178 1372.07 19.9647 1372.59 22.2302C1373.11 24.8031 1373.41 25.8305 1373.82 26.4451H1369.6C1369.08 25.8305 1368.78 24.285 1368.26 22.3356C1367.95 20.474 1366.92 19.6574 1364.76 19.6574H1362.9V26.4451V26.4364ZM1363.01 16.865H1364.85C1367.02 16.865 1368.78 16.1449 1368.78 14.3887C1368.78 12.852 1367.64 11.8246 1365.17 11.8246C1364.15 11.8246 1363.42 11.9124 1363.01 12.0266V16.8562V16.865Z" fill="#6C6E71"/>
</g>
<defs>
<clipPath id="clip0_295_49">
<rect width="1383" height="176" fill="white"/>
</clipPath>
</defs>
</svg>
