<svg width="738" height="176" viewBox="0 0 738 176" fill="none" xmlns="http://www.w3.org/2000/svg">
<g clip-path="url(#clip0_295_50)">
<path d="M450.26 0C401.838 0 362.453 39.3039 362.453 87.6301C362.453 135.95 401.838 175.26 450.26 175.26C498.685 175.26 538.063 135.95 538.063 87.6301C538.063 39.3069 498.685 0 450.26 0ZM148.344 0.18129C105.903 0.18129 71.4077 34.5991 71.4077 76.9452V167.698C71.4077 170.42 73.6032 172.617 76.3338 172.617H106.244C106.891 172.619 107.532 172.492 108.13 172.245C108.728 171.999 109.271 171.636 109.728 171.179C110.186 170.722 110.548 170.179 110.795 169.582C111.042 168.984 111.169 168.344 111.167 167.698V76.9452C111.167 56.4912 127.849 39.8539 148.344 39.8539C168.845 39.8539 185.521 56.4912 185.521 76.9452V167.698C185.521 170.42 187.775 172.617 190.506 172.617H220.355C221.667 172.622 222.929 172.108 223.863 171.186C224.797 170.264 225.328 169.01 225.339 167.698V76.9452C225.339 56.4912 242.015 39.8539 262.516 39.8539C283.011 39.8539 299.693 56.4912 299.693 76.9452V167.698C299.693 170.42 301.888 172.617 304.616 172.617H334.526C335.173 172.619 335.814 172.493 336.413 172.246C337.011 172 337.554 171.637 338.012 171.18C338.47 170.723 338.833 170.18 339.08 169.582C339.327 168.985 339.454 168.344 339.452 167.698V76.9452C339.452 34.5991 304.951 0.18129 262.516 0.18129C239.862 0.18129 219.558 10.0426 205.459 25.6289C191.37 10.0426 170.992 0.18129 148.344 0.18129ZM4.92617 4.20388C4.27884 4.20144 3.63742 4.327 3.03885 4.57335C2.44028 4.8197 1.8964 5.18196 1.43852 5.63926C0.980635 6.09656 0.617806 6.63987 0.370926 7.2379C0.124045 7.83593 -0.0020084 8.47686 2.41949e-05 9.12378V167.698C2.41949e-05 170.426 2.19557 172.617 4.92617 172.617H34.5323C35.8459 172.624 37.1086 172.11 38.0435 171.188C38.9784 170.265 39.5094 169.01 39.5199 167.698V9.12378C39.5086 7.81127 38.9774 6.55671 38.0426 5.63466C37.1079 4.7126 35.8457 4.19814 34.5323 4.20388H4.92617ZM567.313 4.20388C566 4.19734 564.738 4.71173 563.804 5.63413C562.87 6.55653 562.34 7.81157 562.331 9.12378V53.6579C562.331 56.3929 564.576 58.5809 567.313 58.5809H596.925C597.572 58.5825 598.213 58.4562 598.811 58.2093C599.409 57.9624 599.953 57.5998 600.41 57.1422C600.867 56.6847 601.229 56.1413 601.476 55.5433C601.722 54.9453 601.848 54.3046 601.845 53.6579V9.12378C601.847 8.47738 601.721 7.83696 601.475 7.23934C601.228 6.64171 600.866 6.09867 600.409 5.64145C599.952 5.18424 599.408 4.82185 598.811 4.57514C598.213 4.32842 597.572 4.20226 596.925 4.20388H567.313ZM703.468 4.20388C702.154 4.1957 700.89 4.70935 699.955 5.63193C699.019 6.55451 698.489 7.8105 698.48 9.12378V53.6579C698.48 56.3929 700.731 58.5809 703.468 58.5809H733.074C733.721 58.5833 734.363 58.4577 734.962 58.2111C735.561 57.9646 736.105 57.6021 736.563 57.1444C737.021 56.6868 737.383 56.1431 737.63 55.5447C737.877 54.9463 738.002 54.3051 738 53.6579V9.12378C738.002 8.47686 737.876 7.83593 737.629 7.2379C737.382 6.63987 737.019 6.09656 736.562 5.63926C736.104 5.18196 735.56 4.8197 734.961 4.57335C734.363 4.327 733.721 4.20144 733.074 4.20388H703.468ZM450.26 39.4329C476.899 39.4329 498.547 61.0516 498.547 87.6301C498.547 114.212 476.899 135.827 450.26 135.827C423.618 135.827 401.912 114.209 401.912 87.6301C401.912 61.0485 423.621 39.4329 450.26 39.4329ZM567.313 78.0884C566.001 78.0843 564.74 78.5995 563.807 79.5213C562.873 80.4432 562.343 81.6968 562.331 83.0083V85.4667C562.331 132.923 599.244 173.401 646.771 175.199C696.73 177.079 738 137.069 738 87.6301V83.0083C738.001 82.3616 737.875 81.721 737.627 81.1234C737.38 80.5257 737.017 79.9828 736.56 79.5256C736.102 79.0685 735.558 78.7062 734.96 78.4595C734.362 78.2129 733.721 78.0868 733.074 78.0884H703.468C702.154 78.0827 700.892 78.5971 699.957 79.5192C699.023 80.4412 698.491 81.6958 698.48 83.0083V87.6301C698.48 114.215 676.832 135.827 650.193 135.827C623.555 135.827 601.848 114.215 601.848 87.6301V83.0083C601.85 82.3615 601.724 81.7208 601.476 81.1229C601.229 80.5251 600.867 79.9819 600.409 79.5247C599.951 79.0675 599.407 78.7052 598.809 78.4587C598.211 78.2122 597.569 78.0864 596.922 78.0884H567.313Z" fill="#F18D00"/>
</g>
<defs>
<clipPath id="clip0_295_50">
<rect width="738" height="176" fill="white"/>
</clipPath>
</defs>
</svg>
