<svg width="724" height="176" viewBox="0 0 724 176" fill="none" xmlns="http://www.w3.org/2000/svg">
<g clip-path="url(#clip0_294_20)">
<path d="M30.3977 56.7886L0 173.534H12.9396L39.4178 66.2762H39.7943L62.353 173.534H75.6862L153.135 67.9202H153.529L124.723 173.534H137.851L167.855 56.7886H148.446L71.5784 161.597L49.8071 56.7886H30.3977Z" fill="#676867"/>
<path d="M180.453 89.1733L158.664 173.534H171.022L192.793 89.1733H180.453Z" fill="#676867"/>
<path d="M210.542 89.1558L189.045 173.534H201.385L209.242 142.964L230.808 127.928L257.679 173.534H271.201L240.615 121.712L288.454 89.1729H271.988L212.767 130.36L212.374 130.052L222.917 89.1558H210.542Z" fill="#676867"/>
<path d="M295.727 89.1562L273.956 173.534H286.348L297.73 129.401C301.838 113.543 313.613 98.6609 335.778 98.3355C338.123 98.3355 340.485 98.5068 342.83 98.5068L345.569 88.2314C343.412 88.0602 341.05 88.0601 338.911 88.0601C320.819 87.8888 310.088 96.6229 302.249 108.611H301.855L306.99 89.1562H295.727Z" fill="#676867"/>
<path d="M431.251 119.742C431.251 98.9689 414.785 86.7241 391.251 86.7241C355.171 86.7241 334.769 113.217 334.769 140.841C334.769 161.957 349.095 176 375.162 176C412.611 176 431.251 148.205 431.251 119.759M418.893 121.883C418.893 141.492 404.567 167.334 377.524 167.334C356.985 167.334 347.126 156.22 347.126 139.933C347.126 120.153 362.034 95.4068 389.077 95.4068C408.88 95.4068 418.893 106.196 418.893 121.883Z" fill="#676867"/>
<path d="M549.812 89.1047L557.839 56.7715H437.036L429.06 89.156H467.793V89.1732H511.01V89.156L549.812 89.1047Z" fill="#676867"/>
<path d="M463.976 104.621L446.843 173.517H489.992L507.159 104.638V104.604H463.976V104.621Z" fill="#676867"/>
<path d="M556.744 104.621L539.628 173.5H578.515L595.631 104.621H556.744ZM599.533 89.1047L607.595 56.7715H568.708L560.543 89.1389L599.533 89.1047Z" fill="#676867"/>
<path d="M623.615 56.7715L594.587 173.517H633.406L639.482 149.318L648.314 142.776L662.04 173.517H704.197L678.3 122.825L724 88.6594H677.53L648.895 113.509H648.502L662.434 56.7715H623.615Z" fill="#676867"/>
<path d="M197.14 0C201.881 32.9668 219.562 52.9696 255.608 54.6136C221.65 67.612 186.648 37.0598 197.14 0Z" fill="#676867"/>
<path d="M178.295 5.78839C178.706 5.70276 178.74 5.97676 178.775 6.2679C179.921 27.281 188.787 43.225 200.529 54.134C207.107 60.5194 214.898 65.5204 223.441 68.8413C231.984 72.1623 241.106 73.7358 250.267 73.4688C208.642 90.0635 164.894 50.1951 178.278 5.78839" fill="#676867"/>
</g>
<defs>
<clipPath id="clip0_294_20">
<rect width="724" height="176" fill="white"/>
</clipPath>
</defs>
</svg>
