<svg width="412" height="176" viewBox="0 0 412 176" fill="none" xmlns="http://www.w3.org/2000/svg">
<g clip-path="url(#clip0_303_253)">
<path d="M15.2911 136.307C18.3195 142.943 23.778 146.471 29.9251 147.911C40.6925 150.432 51.6478 152.982 62.632 153.599C105.169 155.984 146.9 149.326 188.41 140.923C192.355 140.125 196.322 139.435 200.615 139.8C199.618 140.272 198.658 140.854 197.62 141.199C155.742 155.147 113.393 167.265 69.522 173.161C52.2394 175.483 34.8584 177.313 17.486 173.831C-1.15613 170.095 -5.06917 159.647 6.59824 144.671C9.06306 141.508 12.2102 138.876 15.2911 136.307Z" fill="#E20626"/>
<path d="M211.63 35.4306C254.202 20.9831 296.938 8.84698 341.165 2.76226C358.809 0.334864 376.569 -1.65226 394.313 2.03975C412.705 5.86665 416.515 16.1227 405.114 30.9445C402.656 34.1394 399.804 37.0302 397.023 40.1853C389.132 27.054 375.952 25.2465 363.151 23.4536C336.112 19.6666 309.036 21.4595 282.175 25.1795C259.801 28.2782 237.619 32.7552 215.35 36.6116C213.757 36.8875 212.149 37.081 210.549 37.3127C210.773 36.7199 210.997 36.127 211.63 35.4306Z" fill="#E20626"/>
<path d="M57.8713 114.845C56.057 113.126 53.8488 111.67 52.4956 109.642C46.0573 99.9981 39.8517 90.1984 32.5479 80.6766C32.5479 89.9986 32.0828 99.3508 32.687 108.633C33.223 116.869 27.7074 114.176 23.6089 114.764C18.1 115.554 18.674 111.919 18.6754 108.536C18.6812 94.8224 18.6534 81.1083 18.7061 67.3945C18.7131 65.5807 19.1126 63.7684 20.0823 61.9544C26.1891 62.0631 31.5439 62.173 36.8987 62.2828C42.981 71.271 49.0729 80.2526 55.1399 89.2511C57.0819 92.1316 58.9578 95.0566 61.9701 97.8122C61.9701 86.6951 61.9701 75.578 62.3305 63.8874C62.7881 63.2263 62.9831 63.1019 62.9663 63.0576C62.8784 62.825 62.7368 62.6126 62.6139 62.3931C66.1712 61.8091 69.7936 60.6243 73.2469 60.9991C74.3142 61.115 75.5871 65.4663 75.6279 67.8975C75.8567 81.5392 75.7891 95.1873 75.678 108.832C75.6625 110.73 74.8476 112.622 73.6166 114.365C67.8441 114.424 62.8577 114.635 57.8713 114.845Z" fill="black"/>
<path d="M323.869 73.6544C338.381 73.3612 342.881 77.8713 342.941 92.2722C342.967 98.5757 342.9 104.88 342.966 111.183C342.997 114.115 342.443 115.317 338.828 114.91C329.65 113.876 329.624 114.159 329.618 104.63C329.615 99.6242 329.716 94.614 329.534 89.6145C329.377 85.3006 327.815 81.8728 322.683 82.0306C318.62 82.1555 314.921 86.2839 314.911 90.4787C314.896 97.1531 314.668 103.84 314.998 110.498C315.283 116.265 311.534 115.493 308.015 115.503C304.659 115.513 301.198 116.169 301.495 110.714C301.847 104.245 301.659 97.7392 301.543 91.2521C301.426 84.7022 299.118 81.7775 294.546 81.9999C289.889 82.2265 286.72 86.0344 286.696 91.5177C286.667 97.8213 286.397 104.143 286.778 110.424C287.124 116.139 283.542 115.46 279.947 115.535C276.146 115.613 273.078 115.728 273.285 110.227C273.662 100.229 273.266 90.2043 273.492 80.1977C273.542 77.9485 274.841 73.8021 275.533 73.809C279.658 73.85 284.892 70.8818 287.514 76.875C294.738 71.3594 306.33 71.3907 311.608 78.5323C315.706 76.8977 319.591 75.3486 323.869 73.6544Z" fill="black"/>
<path d="M351.567 81.9677C353.784 79.2315 355.37 75.7643 357.923 74.7618C365.67 71.7193 373.867 71.4837 381.882 74.1463C387.881 76.1389 391.337 80.4388 392.013 86.8006C392.169 88.2707 392.134 89.7642 392.137 91.2469C392.147 98.8301 392.142 106.413 392.142 115.311C387.733 114.546 383.848 113.778 379.93 113.251C378.865 113.108 377.629 113.523 376.597 113.971C369.777 116.93 362.865 116.968 356.049 114.283C350.036 111.915 347.299 106.71 348.267 100.484C349.142 94.8479 353.424 91.1076 359.741 90.4739C365.975 89.8487 372.21 89.2328 379.593 88.4985C378.103 86.1893 377.054 82.7607 375.493 82.5082C371.931 81.9324 368.079 82.6928 364.417 83.3267C361.116 83.8981 357.946 85.3373 354.642 85.7072C353.69 85.8138 352.473 83.544 351.567 81.9677ZM371.457 98.025C369.267 98.139 366.984 97.9001 364.907 98.4455C361.347 99.3802 359.897 104.593 362.755 105.449C366.757 106.647 371.54 106.274 375.718 105.348C377.408 104.974 378.382 101.369 380.42 98.0244C376.462 98.0244 374.477 98.0244 371.457 98.025Z" fill="black"/>
<path d="M124.734 97.9282C115.152 97.9282 105.57 97.9282 96.0061 97.9282C95.8705 106.198 103.067 109.689 110.551 106.357C114.792 104.468 119.539 103.713 124.343 102.369C125.673 109.62 122.562 113.445 117.768 114.153C110.406 115.239 102.615 115.929 95.3716 114.676C86.1553 113.082 80.7632 103.757 81.2931 93.6881C81.8548 83.0141 87.2219 75.551 96.4148 73.5854C100.323 72.7496 104.558 72.4178 108.499 72.9433C121.036 74.6147 126.447 81.8793 125.849 96.55C125.072 97.3229 124.861 97.5921 124.734 97.9282ZM111.22 84.5363C108.152 80.8748 104.016 80.1657 100.208 82.2211C97.7632 83.5408 96.3058 86.6911 93.6467 89.9517C101.213 89.9517 106.838 89.9517 112.97 89.9517C112.444 88.1074 112.051 86.7276 111.22 84.5363Z" fill="black"/>
<path d="M136.038 79.2952C144.589 71.7304 159.046 70.2721 168.463 75.7422C175.885 80.0538 179.055 89.0841 177.069 100.256C175.562 108.733 169.555 114.543 160.463 115.665C156.466 116.158 152.288 116.229 148.311 115.658C132.05 113.323 125.676 94.7666 136.038 79.2952ZM162.919 86.2898C160.58 81.3459 156.296 80.7096 151.673 81.6199C146.983 82.5435 145.162 86.1771 144.811 90.5522C144.591 93.2987 144.544 96.1151 144.893 98.8396C145.636 104.645 148.93 107.418 154.531 107.381C159.914 107.344 163.193 104.77 163.753 99.1329C164.147 95.1654 163.505 91.0949 162.919 86.2898Z" fill="black"/>
<path d="M191.357 112.875C180.305 106.762 180.529 87.5901 186.482 80.2664C190.292 75.5783 195.056 72.8802 201.408 73.4035C204.515 73.6596 207.829 72.6383 210.776 73.3425C215.291 74.4216 220.141 75.7352 223.721 78.4421C225.68 79.9233 225.322 84.4709 226.009 87.6356C222.358 87.2244 217.633 88.082 215.304 86.1091C211.677 83.0366 208.13 80.9916 203.913 82.3552C201.214 83.2282 198.28 85.7996 197.121 88.3647C195.848 91.1803 196.009 94.9217 196.399 98.1566C197.36 106.118 206.817 110.494 212.561 104.961C217.181 100.51 221.761 101.739 226.622 101.307C227.465 107.994 224.88 112.404 218.233 114.354C209.342 116.962 200.369 117.319 191.357 112.875Z" fill="black"/>
<path d="M234.102 61.2844C237.77 61.2368 240.917 61.2368 244.401 61.2368C244.59 62.5964 244.907 63.8185 244.909 65.0414C244.943 80.064 244.889 95.0868 244.963 110.109C244.98 113.511 244.911 115.507 240.174 114.889C231.659 113.78 231.602 114.221 231.602 105.678C231.601 92.5103 231.532 79.3415 231.687 66.1753C231.706 64.5537 232.92 62.9461 234.102 61.2844Z" fill="black"/>
<path d="M252.548 107.847C252.548 97.8942 252.801 88.4662 252.453 79.0605C252.25 73.5842 255.623 74.2934 258.934 74.3638C262.282 74.4349 266.172 73.2187 265.99 79.1366C265.69 88.9153 265.679 98.7178 266.006 108.495C266.174 113.536 265.065 115.671 259.39 115.716C253.584 115.763 251.639 113.821 252.548 107.847Z" fill="black"/>
<path d="M255.13 60.3741C263.064 58.9517 266.102 60.1629 265.995 64.7505C265.928 67.6461 265.111 69.8973 261.406 69.1655C260.342 68.9553 259.177 69.2384 258.122 69.0043C256.32 68.6043 253.039 67.9218 253.055 67.4498C253.138 65.0307 254.075 62.6408 255.13 60.3741Z" fill="black"/>
<path d="M36.6717 61.9043C31.5443 62.1729 26.1895 62.0631 20.4707 61.6852C25.5526 61.4534 30.9984 61.4896 36.6717 61.9043Z" fill="black"/>
<path d="M58.2354 115.127C62.8577 114.634 67.8441 114.424 73.1807 114.511C68.5538 115.008 63.5766 115.209 58.2354 115.127Z" fill="black"/>
<path d="M62.4286 62.6324C62.7366 62.6126 62.8782 62.825 62.9662 63.0577C62.9829 63.102 62.788 63.2264 62.5082 63.3924C62.2983 63.2712 62.2709 63.0714 62.4286 62.6324Z" fill="black"/>
<path d="M125.04 97.9226C124.859 97.5921 125.071 97.3229 125.599 97.001C125.669 97.2266 125.508 97.5718 125.04 97.9226Z" fill="black"/>
</g>
<defs>
<clipPath id="clip0_303_253">
<rect width="412" height="176" fill="white"/>
</clipPath>
</defs>
</svg>
