<svg width="340" height="176" viewBox="0 0 340 176" fill="none" xmlns="http://www.w3.org/2000/svg">
<path fill-rule="evenodd" clip-rule="evenodd" d="M73.6985 1.96866C40.3102 8.02966 12.8346 33.8922 4.48061 67.1224C2.4147 75.3402 1.71664 91.2164 3.00519 100.653C6.21281 124.14 20.5179 146.582 41.0758 160.375C49.882 166.283 57.8025 169.743 69.7724 172.909C78.2606 175.156 96.4345 175.399 106.287 173.398C130.746 168.431 151.774 153.421 164.913 131.551C170.017 123.056 174.446 109.98 175.753 99.5481C179.292 71.3103 170.211 44.9205 150.305 25.5974C147.255 22.6377 143.171 19.1247 141.227 17.7922C139.284 16.4596 137.517 15.1687 137.301 14.9243C135.9 13.3364 122.021 6.67902 116.078 4.74381C103.996 0.808949 86.4237 -0.341338 73.6985 1.96866ZM33.869 60.5759C35.4701 61.415 39.119 66.9087 57.1358 95.6014C58.5595 97.8682 60.0419 99.5269 60.4298 99.2872C60.8177 99.0476 61.135 90.015 61.135 79.2154V59.5796L65.65 59.8153L70.165 60.051L70.3998 83.6224C70.6063 104.356 70.4775 107.493 69.3319 109.678C66.7281 114.644 57.764 114.151 54.3263 108.853C52.4999 106.039 49.3119 101.019 42.296 89.9082C39.5674 85.5867 35.8878 79.7685 34.1195 76.9792L30.904 71.9074L30.6944 92.1042L30.4847 112.301H25.3941H20.3036V88.6542C20.3036 67.6245 20.4543 64.7527 21.6659 62.7004C23.7413 59.1852 29.354 58.2077 33.869 60.5759ZM191.142 60.2592C190.897 60.5052 190.696 71.7589 190.696 85.2685C190.696 106.551 190.861 109.997 191.93 111.067C192.976 112.114 195.777 112.301 210.382 112.301H227.601V110.337V108.372H211.123H194.645L194.437 84.2864C194.249 62.4152 194.108 60.1822 192.909 60.0062C192.183 59.9002 191.388 60.0141 191.142 60.2592ZM229.957 62.2824C229.957 65.4159 230.342 65.9014 232.401 65.3632C234.729 64.7535 234.174 60.3009 231.724 59.9332C230.193 59.7037 229.957 60.0164 229.957 62.2824ZM323.043 60.2757C322.806 60.5122 322.613 63.5019 322.613 66.9197V73.1339L320.061 72.8778C317.804 72.6523 317.509 72.8456 317.509 74.5584C317.509 76.1794 317.892 76.4992 319.865 76.5227L322.22 76.551L322.613 91.8724C323.116 111.5 323.581 112.301 334.489 112.301C337.794 112.301 338.317 112.086 338.317 110.73C338.317 109.865 338.229 109.142 338.121 109.123C338.014 109.103 335.981 108.897 333.606 108.665C326.866 108.006 326.932 108.178 326.932 91.2564V76.551L332.036 76.4638C336.799 76.3829 337.14 76.2579 337.14 74.5867C337.14 72.9155 336.799 72.7906 332.036 72.7097L326.932 72.6224L326.539 66.3367C326.215 61.151 325.913 60.0329 324.81 59.9481C324.074 59.8915 323.28 60.0392 323.043 60.2757ZM281.782 86.3724V112.301H283.73H285.678L285.889 94.426L286.1 76.551L295.326 76.5722C303.648 76.5911 304.713 76.7553 306.207 78.2497C308.611 80.6548 309.346 85.9835 309.171 99.7296C309.016 111.863 309.022 111.908 310.773 111.908H312.53L312.438 95.8804C312.353 81.1129 312.221 79.6774 310.751 77.6109C308.185 74.0053 306.377 73.4467 295.916 73.0216L286.1 72.6224L285.871 66.5332C285.65 60.6521 285.576 60.4439 283.712 60.4439H281.782V86.3724ZM148.227 73.0742C156.046 74.7525 159.609 78.7958 160.969 87.5329C161.963 93.9294 160.716 102.449 158.236 106.198C157.302 107.61 154.771 109.645 152.612 110.721C149.18 112.431 147.651 112.677 140.442 112.677C128.846 112.677 124.493 110.825 121.097 104.444C119.913 102.22 119.634 99.9661 119.634 92.6582C119.634 82.8705 120.515 79.9351 124.518 76.3884C128.72 72.6633 139.373 71.1744 148.227 73.0742ZM109.173 75.3842C113.012 77.9543 114.53 81.3745 114.53 87.4559C114.53 95.1127 114.069 95.3516 98.6496 95.6596L86.0704 95.9118L86.4921 99.0602C87.2663 104.835 88.0358 105.161 101.481 105.406L113.352 105.622L113.596 109.01L113.84 112.399L99.3202 112.153C86.1104 111.93 84.6068 111.763 82.6414 110.292C78.961 107.54 77.4393 103.521 77.0168 95.4364C76.3816 83.2775 78.5998 77.4664 85.0221 74.4634C87.7099 73.207 89.6769 73.0051 97.2551 73.2078C105.318 73.4239 106.594 73.6572 109.173 75.3842ZM229.957 92.6582V112.301H231.92H233.883V92.6582V73.0153H231.92H229.957V92.6582ZM247.201 74.8248C241.619 77.7783 240.165 81.457 240.165 92.6275C240.165 100.786 240.375 102.2 242.104 105.665C245.014 111.495 245.918 111.846 258.814 112.169C265.602 112.339 270.003 112.759 270.003 113.238C270.003 115.242 267.366 119.252 265.451 120.16C264.226 120.74 258.933 121.328 252.925 121.55C243.423 121.901 242.521 122.062 242.521 123.403C242.521 124.765 243.287 124.872 252.967 124.872C262.523 124.872 263.747 124.706 267.335 122.917C273.431 119.878 273.938 117.744 273.933 95.1764L273.929 76.8724L272.002 74.9442C270.164 73.1041 269.628 73.0153 260.347 73.0153C251.707 73.0153 250.238 73.2172 247.201 74.8248ZM267.074 76.6649L270.036 77.1544L269.823 92.9599L269.611 108.765L259.488 108.715C249.503 108.666 249.34 108.636 247.55 106.553C246.551 105.391 245.367 103.116 244.917 101.496C243.876 97.7441 243.861 87.6272 244.89 83.9155C245.918 80.214 249.068 77.1152 252.202 76.7223C256.493 76.1841 263.991 76.155 267.074 76.6649ZM133.768 80.3405C130.434 81.864 129.563 83.184 128.544 88.2644C127.848 91.731 127.871 93.7409 128.647 97.2082C130.084 103.635 133.235 106.016 140.297 106.014C148.243 106.011 152.217 101.63 152.219 92.8703C152.22 87.2147 150.591 82.4902 148.104 80.9361C145.627 79.3874 136.667 79.0158 133.768 80.3405ZM88.1897 82.0157C86.9868 83.2186 86.262 84.8434 86.262 86.3371V88.7296H95.709C106.132 88.7296 106.902 88.3517 105.143 84.1033C103.907 81.1176 101.361 80.0867 95.219 80.0867C90.8485 80.0867 89.8402 80.3633 88.1897 82.0157Z" fill="black"/>
</svg>
