<svg width="176" height="176" viewBox="0 0 176 176" fill="none" xmlns="http://www.w3.org/2000/svg">
<g clip-path="url(#clip0_295_52)">
<rect width="176" height="176" fill="white"/>
<path fill-rule="evenodd" clip-rule="evenodd" d="M0 0H176V176H0V0ZM69.7851 111.467H61.6V148.838H69.2996V123.797H69.4036L85.0108 148.873H93.2306V111.467H85.531V136.543H85.427L69.7851 111.467ZM105.3 148.838H97.8434V121.753H105.3V148.838ZM97.8434 111.467H105.3V117.562H97.8434V111.467ZM121.983 121.061C128.399 121.061 134.26 124.386 134.746 131.313H127.497C127.011 128.265 125.069 126.637 121.983 126.637C117.196 126.637 115.636 131.451 115.636 135.434C115.636 139.313 117.127 143.989 121.809 143.989C125.277 143.989 127.254 141.772 127.74 138.482H134.919C133.948 145.686 128.988 149.6 121.844 149.6C113.659 149.6 108.144 143.816 108.144 135.711C108.144 127.295 113.173 121.061 121.983 121.061ZM150.873 126.672C154.48 126.672 156.11 128.646 156.804 132.421H144.7C144.804 130.343 146.156 126.672 150.873 126.672ZM151.324 143.989C147.197 143.989 144.873 141.842 144.665 137.131H164.226C164.746 128.819 160.272 121.061 151.047 121.061C142.827 121.061 137.208 127.26 137.208 135.365C137.208 143.747 142.48 149.6 151.047 149.6C157.185 149.6 161.659 146.898 163.74 140.491H157.185C156.735 142.153 154.307 143.989 151.324 143.989Z" fill="#01569D"/>
</g>
<defs>
<clipPath id="clip0_295_52">
<rect width="176" height="176" fill="white"/>
</clipPath>
</defs>
</svg>
