<svg width="200" height="176" viewBox="0 0 200 176" fill="none" xmlns="http://www.w3.org/2000/svg">
<path d="M11.4159 174.792C13.4784 174.792 15.3858 174.279 17.1366 173.258C18.8866 172.237 20.2709 170.853 21.2917 169.102C22.3134 167.357 22.8258 165.445 22.8258 163.377C22.8258 161.822 22.535 160.348 21.9458 158.965C21.3574 157.581 20.5376 156.358 19.4859 155.307C18.4341 154.261 17.2166 153.441 15.8334 152.852C14.445 152.263 12.9749 151.972 11.4159 151.972C9.35338 151.972 7.44661 152.484 5.69579 153.506C3.94496 154.528 2.55595 155.911 1.53408 157.662C0.513282 159.408 0 161.314 0 163.377C0 165.445 0.513282 167.357 1.53408 169.102C2.55595 170.853 3.94496 172.237 5.69579 173.258C7.44661 174.279 9.35338 174.792 11.4159 174.792ZM11.4159 168.877C10.6724 168.877 9.96501 168.732 9.30005 168.448C8.62827 168.163 8.03754 167.769 7.53344 167.265C7.02741 166.76 6.63082 166.169 6.35008 165.499C6.06826 164.827 5.92171 164.119 5.92171 163.376C5.92171 162.383 6.16747 161.467 6.6592 160.622C7.14752 159.785 7.81675 159.115 8.66325 158.625C9.51083 158.134 10.4284 157.888 11.4159 157.888C12.4092 157.888 13.3316 158.137 14.1692 158.625C15.0133 159.117 15.68 159.785 16.1675 160.622C16.6601 161.467 16.905 162.383 16.905 163.376C16.905 164.363 16.6566 165.283 16.1675 166.129C15.6774 166.977 15.0133 167.647 14.1692 168.139C13.3316 168.627 12.4092 168.877 11.4159 168.877Z" fill="#264A90"/>
<path d="M26.4484 159.146V168.608H24.365V174.792H45.0741V168.608H42.9909V159.182C42.9909 157.759 42.6841 156.507 42.07 155.419C41.4617 154.332 40.5359 153.487 39.2926 152.883C38.0499 152.275 36.5359 151.972 34.7501 151.972C32.9941 151.972 31.4899 152.275 30.2366 152.883C28.9841 153.487 28.0441 154.332 27.405 155.419C26.7708 156.502 26.4484 157.744 26.4484 159.146ZM36.2291 160.321V168.608H32.6007V160.321C32.6007 159.361 33.4617 158.093 34.4175 158.093C35.4242 158.093 36.2291 159.249 36.2291 160.321Z" fill="#264A90"/>
<path d="M85.4282 151.972V174.792H90.9858V168.232C90.9858 166.991 91.7192 165.887 92.8533 165.887C94.135 165.887 94.7916 167.072 94.7916 168.423V174.792H100.338V167.022C100.338 165.876 100.222 164.935 99.9867 164.201C99.7516 163.468 99.3725 162.883 98.8492 162.452C98.3274 162.025 97.6166 161.707 96.7208 161.512L100.918 151.972H94.73L90.9858 160.657V151.972H85.4282Z" fill="#264A90"/>
<path d="M119.401 174.792H113.844V167.584H109.621V174.792H104.063V159.362C104.063 158.172 104.258 157.108 104.657 156.183C106.003 153.055 108.642 151.972 111.76 151.972C114.305 151.972 117.02 153.026 118.401 155.332C119.068 156.446 119.401 157.786 119.401 159.362V174.792ZM109.621 158.938V162.705H113.844V158.938C113.844 157.664 112.826 157.422 111.76 157.422C110.222 157.422 109.621 158.251 109.621 158.938Z" fill="#264A90"/>
<path d="M172.773 151.972C171.536 151.972 170.403 152.129 169.381 152.441C168.359 152.757 167.484 153.223 166.755 153.84C166.025 154.458 165.462 155.228 165.069 156.143C164.673 157.062 164.476 158.108 164.476 159.293V166.308C164.476 167.293 164.306 168.023 163.969 168.503C163.625 168.977 163.083 169.213 162.328 169.213V174.792C164.41 174.792 165.492 174.552 166.795 174.068C168.099 173.583 169.063 172.791 169.688 171.699C170.315 170.602 170.629 169.142 170.629 167.313V160.488C170.629 159.266 171.1 157.668 173.076 157.668C175.049 157.668 175.465 159.008 175.465 160.488V174.579H181.014V159.293C181.014 158.118 180.822 157.067 180.444 156.152C180.067 155.234 179.519 154.468 178.806 153.85C178.085 153.232 177.221 152.762 176.203 152.446C175.188 152.129 174.044 151.972 172.773 151.972Z" fill="#264A90"/>
<path fill-rule="evenodd" clip-rule="evenodd" d="M57.6134 151.972C55.5358 151.972 53.6232 152.484 51.8732 153.506C50.1224 154.528 48.7383 155.911 47.7216 157.662C46.7059 159.418 46.1975 161.319 46.1975 163.377C46.1975 165.45 46.7059 167.362 47.7175 169.112C48.7334 170.858 50.1115 172.242 51.8575 173.262C53.6034 174.284 55.5099 174.792 57.5833 174.792C59.3591 174.792 61.0041 174.425 62.5241 173.696C63.4274 173.26 64.2417 172.738 64.9666 172.128L61.4242 168.444C60.3699 169.242 59.0575 169.715 57.6341 169.715C56.2176 169.715 54.9109 169.247 53.8592 168.457V165.6H60.1V161.467H53.8592V158.392C54.9109 157.601 56.2176 157.133 57.6341 157.133C59.0715 157.133 60.3965 157.615 61.4549 158.427L64.3183 154.133C64.1275 153.997 63.93 153.864 63.7258 153.738C62.8057 153.163 61.8242 152.726 60.7782 152.424C59.7267 152.122 58.675 151.972 57.6134 151.972Z" fill="#264A90"/>
<path fill-rule="evenodd" clip-rule="evenodd" d="M75.7316 151.972C73.6542 151.972 71.7416 152.484 69.9908 153.506C68.2408 154.528 66.8567 155.911 65.84 157.662C64.8241 159.418 64.3159 161.319 64.3159 163.377C64.3159 165.45 64.8241 167.362 65.8351 169.112C66.8516 170.858 68.2299 172.242 69.9759 173.262C71.7216 174.284 73.6284 174.792 75.7017 174.792C77.4775 174.792 79.1225 174.425 80.6425 173.696C81.5458 173.26 82.3601 172.738 83.0841 172.128L79.5426 168.444C78.4883 169.242 77.175 169.715 75.7525 169.715C72.2784 169.715 69.4617 166.897 69.4617 163.424C69.4617 159.951 72.2784 157.133 75.7525 157.133C77.1899 157.133 78.515 157.615 79.5733 158.427L82.4367 154.133C82.2457 153.997 82.0484 153.864 81.8442 153.738C80.9241 153.163 79.9426 152.726 78.8966 152.424C77.8449 152.122 76.7934 151.972 75.7316 151.972Z" fill="#264A90"/>
<path fill-rule="evenodd" clip-rule="evenodd" d="M131.903 160.565C136.656 160.565 140.509 163.75 140.509 167.678C140.509 171.607 138.018 174.792 134.323 174.792H128.532H123.197V161.432V158.218C123.197 154.465 124.824 151.972 128.585 151.972H138.193V157.98H128.532V161.133C129.567 160.767 130.707 160.565 131.903 160.565ZM131.903 164.438C133.849 164.438 135.427 165.641 135.427 167.124C135.427 168.608 133.849 169.81 131.903 169.81C129.958 169.81 128.38 168.608 128.38 167.124C128.38 165.641 129.958 164.438 131.903 164.438Z" fill="#264A90"/>
<path fill-rule="evenodd" clip-rule="evenodd" d="M153.8 151.972C151.722 151.972 149.81 152.484 148.059 153.506C146.308 154.528 144.925 155.911 143.908 157.662C142.893 159.418 142.384 161.319 142.384 163.377C142.384 165.45 142.893 167.362 143.903 169.112C144.919 170.858 146.298 172.242 148.044 173.262C149.79 174.284 151.697 174.792 153.77 174.792C155.546 174.792 157.191 174.425 158.71 173.696C159.612 173.26 160.427 172.738 161.153 172.128L157.609 168.444C156.555 169.242 155.243 169.715 153.82 169.715C152.404 169.715 151.098 169.247 150.046 168.457V165.6H156.287V161.467H150.046V158.392C151.098 157.601 152.404 157.133 153.82 157.133C155.258 157.133 156.583 157.615 157.641 158.427L160.504 154.133C160.314 153.997 160.116 153.864 159.913 153.738C158.992 153.163 158.01 152.726 156.965 152.424C155.913 152.122 154.862 151.972 153.8 151.972Z" fill="#264A90"/>
<path fill-rule="evenodd" clip-rule="evenodd" d="M191.216 159.569C195.399 159.569 198.791 162.977 198.791 167.181C198.791 171.384 195.399 174.792 191.216 174.792C190.145 174.792 189.125 174.569 188.201 174.167V174.166C185.517 172.995 183.64 170.308 183.64 167.181C183.64 167.018 183.647 166.855 183.657 166.693L183.64 166.667V151.972H188.201V160.195C189.125 159.792 190.145 159.569 191.216 159.569ZM191.216 164.381C192.754 164.381 194.002 165.634 194.002 167.181C194.002 168.727 192.754 169.981 191.216 169.981C189.677 169.981 188.427 168.727 188.427 167.181C188.427 165.634 189.677 164.381 191.216 164.381Z" fill="#264A90"/>
<path fill-rule="evenodd" clip-rule="evenodd" d="M164.818 69.5701C164.818 31.1535 133.665 0.000202179 95.2483 0.000202179C56.8309 0.000202179 25.6774 31.1535 25.6774 69.5701C25.6774 107.987 56.8309 139.141 95.2483 139.141C133.665 139.141 164.818 107.987 164.818 69.5701ZM149.282 50.2321L149.919 59.5354L157.748 58.9997L157.11 49.6954C157.072 49.1155 157.513 48.6089 158.094 48.5688C158.674 48.5289 159.182 48.9713 159.22 49.5514L159.858 58.8546L163.073 58.6347L163.28 61.6512L161.27 61.7888L161.831 69.9413C161.974 72.0521 160.523 73.9213 158.512 74.3605C157.347 89.968 150.532 104.004 140.107 114.429C128.626 125.911 112.764 133.014 95.2485 133.014C77.7326 133.014 61.8702 125.911 50.3892 114.429C38.9076 102.948 31.8051 87.0863 31.8051 69.5704C31.8051 53.3914 37.9092 38.5005 48.0376 27.2139C58.165 15.9262 72.316 8.25131 88.4084 6.50539L88.6435 6.48299L88.6109 12.5547V58.6089L116.989 9.89804C125.67 12.6763 133.929 17.8264 139.832 23.5262L112.647 70.1705L133.74 106.705C130.302 110.266 126.398 113.319 122.156 115.787C118.673 117.815 114.957 119.447 111.079 120.646L88.6109 81.7321V122.628C84.0408 122.064 79.6009 120.921 75.3959 119.241C70.6177 117.332 66.1051 114.722 62.0142 111.475V22.7589C58.54 25.2288 55.3584 28.073 52.526 31.2297C43.3701 41.4313 37.8527 54.9105 37.8527 69.5704C37.8527 85.418 44.2785 99.767 54.665 110.154C65.051 120.54 79.4008 126.966 95.2485 126.966C111.095 126.966 125.445 120.54 135.831 110.154C145.058 100.928 151.158 88.5762 152.406 74.8237L151.876 74.8604C149.555 75.0189 147.528 73.2512 147.369 70.9321L146.81 62.7795L144.803 62.9171L144.595 59.9012L147.81 59.6813L147.173 50.3772C147.133 49.7971 147.575 49.2896 148.155 49.2497C148.735 49.2105 149.242 49.6512 149.282 50.2321Z" fill="#264A90"/>
</svg>
