<svg width="715" height="176" viewBox="0 0 715 176" fill="none" xmlns="http://www.w3.org/2000/svg">
<path d="M69.1116 5.36047C71.3437 4.02037 73.5759 2.68027 75.808 1.78687C76.7008 4.02037 78.0401 6.25387 78.9329 8.48737C74.0223 11.1676 69.1116 13.4011 64.6474 16.528C52.1476 24.1219 40.5407 33.0559 30.7194 44.2234C23.1302 53.1574 16.8803 63.8782 15.5411 75.9391C15.0947 83.0864 16.4339 90.6803 20.8981 96.4874C24.9159 101.401 31.1658 104.975 37.4157 105.868C44.5585 107.208 52.1476 106.315 58.844 104.528C72.683 100.954 85.1828 94.2539 97.2362 87.1067C104.379 82.6397 111.522 78.1727 117.325 71.9188C119.557 69.2386 121.343 66.1117 121.343 62.5381C121.343 59.8579 119.557 57.1777 117.325 56.2843C115.093 54.9442 111.968 54.4975 109.29 54.9442C105.718 55.8376 102.147 57.6244 98.5754 59.4112C88.3078 64.7716 79.3793 71.9188 69.1116 77.2792C62.8617 80.4061 56.1654 83.5331 49.0227 83.5331C44.5585 83.5331 40.0943 81.7463 37.4157 78.1726C35.1836 75.4924 34.2908 72.3655 34.7372 68.7919C35.1836 63.4315 37.4157 58.0711 40.5407 54.0508C46.3442 46.0102 54.3797 40.2031 62.8617 35.2894C77.1472 25.9087 92.772 18.3148 109.29 13.8478C118.218 11.6143 127.146 10.2742 136.075 10.7209C149.021 11.1676 161.967 15.1879 172.681 22.7818C185.181 31.7158 194.556 46.0102 195.449 61.6447C196.788 74.599 192.77 87.5534 186.967 99.1676C182.503 108.102 176.253 116.142 169.556 123.289C164.199 129.097 158.396 134.457 152.592 139.371C145.003 146.071 136.521 151.878 128.039 157.239C119.557 162.599 110.182 167.066 100.808 171.086C98.129 172.426 95.0041 173.767 92.3256 174.66C90.5399 166.619 87.8613 158.579 86.0757 150.538C93.6648 146.965 101.254 143.838 108.843 139.817C117.325 135.35 125.361 129.543 132.95 123.736C139.646 118.376 145.896 113.015 151.7 106.761C161.521 96.4874 169.556 83.0864 171.342 68.7919C171.789 63.4315 171.789 58.5178 170.449 53.1574C167.324 42.4366 159.735 33.0559 149.467 27.6955C140.985 23.2285 131.164 21.4417 121.789 22.3351C107.95 23.2285 95.0041 28.5889 82.9507 34.8427C77.1472 37.9696 71.7902 41.0965 66.4331 44.6701C61.0761 47.797 56.1654 51.3706 52.1476 56.2843C50.3619 58.5178 49.0227 61.198 49.0227 63.8782C49.0227 65.665 50.3619 67.8985 52.1476 68.3452C55.2726 69.6853 58.8439 68.3452 61.9689 67.0051C76.7008 59.8579 89.2006 48.6904 104.825 43.33C112.415 40.6498 121.343 40.2031 128.932 43.33C135.182 46.0102 140.093 51.8173 141.432 58.5178C141.878 62.5381 141.878 66.5584 140.539 70.132C138.307 75.9391 134.736 80.8529 130.271 85.3199C124.914 90.6803 118.664 95.1473 112.415 99.1676C103.486 104.081 95.0041 109.888 85.6292 113.909C77.5936 117.482 68.6652 120.609 60.1832 122.843C50.3619 125.523 40.0943 125.97 30.273 123.736C20.4517 121.503 12.4161 116.142 7.95192 108.548C3.93412 102.294 2.14844 94.7006 2.14844 87.5534C2.59486 79.0661 4.38054 70.5787 7.95192 62.9848C14.2018 50.0305 23.5767 38.4163 34.7372 29.0356C45.4513 19.6549 57.0583 11.6143 69.5581 4.91377L69.1116 5.36047Z" fill="#70BF4E"/>
<path fill-rule="evenodd" clip-rule="evenodd" d="M171.788 67.0057V58.9651C172.235 61.6453 172.235 64.3255 171.788 67.0057ZM257.947 63.8788C252.144 62.5387 245.894 62.5387 240.537 65.6656L240.983 66.559C237.412 68.7925 234.733 72.3661 234.287 76.8331C234.287 80.4067 234.733 84.427 236.966 87.1072C239.644 90.6808 243.662 92.4676 247.68 93.8077C247.857 93.8522 248.036 93.8966 248.216 93.9413C251.648 94.7945 255.402 95.7279 257.947 98.2747C260.626 101.402 259.733 106.315 256.608 108.549C251.251 113.016 242.323 111.229 238.305 105.422C236.519 106.762 234.287 108.549 232.501 110.336C235.626 114.803 240.983 117.036 246.34 117.483C250.805 117.93 255.269 117.036 259.287 114.803C263.304 112.569 265.983 108.549 266.429 104.082C266.876 100.062 266.429 95.5945 263.304 92.4676C260.18 88.894 255.715 87.5539 251.698 86.6605C251.108 86.4395 250.519 86.2306 249.936 86.0239C246.985 84.9771 244.187 83.985 242.323 81.7468C240.091 78.6199 240.983 73.7062 244.108 71.4727C249.019 68.3458 256.608 69.2392 260.18 74.1529C262.412 72.3662 264.197 70.5794 265.983 68.7927L265.983 68.7925C263.751 66.559 261.072 64.3255 257.947 63.8788ZM484.283 63.4321C478.033 62.092 470.89 62.5387 465.087 65.6656L465.533 66.1123C457.944 69.6859 453.034 76.8331 451.694 84.8737C450.355 92.0209 451.694 100.062 456.158 106.315C460.176 112.569 467.319 116.589 474.908 117.036C482.051 117.483 489.194 116.589 495.89 113.463C496.783 113.016 497.676 112.569 497.676 111.676V87.1072H479.372V93.8077H490.533V108.102C485.622 110.336 480.265 110.782 474.908 110.336C469.551 109.442 465.087 106.315 461.962 101.848C456.605 93.8077 457.498 81.3001 465.087 74.5996C472.23 67.4524 484.729 68.3458 491.872 75.0463C492.765 74.1529 493.546 73.2595 494.327 72.3661C495.109 71.4727 495.89 70.5793 496.783 69.6859C493.658 66.1123 489.194 64.3255 484.283 63.4321ZM336.964 63.8788H303.929H303.482V115.249H337.857V108.549H316.429C315.849 108.549 315.222 108.596 314.579 108.644C313.241 108.745 311.831 108.851 310.625 108.549C310.328 104.975 310.427 101.402 310.526 97.828C310.576 96.0412 310.625 94.2544 310.625 92.4676H334.732V85.7671H310.625V70.5793H336.964V63.8788ZM398.124 63.8788H391.874C388.302 72.3661 384.508 80.9651 380.713 89.5641C376.919 98.1631 373.124 106.762 369.553 115.249H377.588C378.481 113.239 379.262 111.117 380.044 108.996C380.825 106.874 381.606 104.752 382.499 102.742H406.606C407.499 104.752 408.391 106.874 409.284 108.996C410.177 111.117 411.07 113.239 411.963 115.249C413.748 115.547 415.534 115.448 417.32 115.349C418.213 115.299 419.105 115.249 419.998 115.249C415.793 104.992 411.432 94.8887 407.099 84.8494C404.073 77.8385 401.061 70.8587 398.124 63.8788ZM560.175 63.8788H554.371C550.577 72.366 546.782 80.9649 542.988 89.5639C539.193 98.1629 535.398 106.762 531.604 115.249C532.497 115.249 533.389 115.299 534.282 115.349C536.068 115.448 537.854 115.547 539.639 115.249C540.532 113.239 541.313 111.117 542.095 108.996C542.876 106.874 543.657 104.752 544.55 102.742H568.657C569.313 104.22 569.909 105.758 570.511 107.312C571.548 109.986 572.602 112.707 574.014 115.249C575.799 115.547 577.585 115.448 579.371 115.349C580.264 115.299 581.156 115.249 582.049 115.249C577.844 104.991 573.483 94.8883 569.15 84.8489C566.124 77.8381 563.112 70.8585 560.175 63.8788ZM643.655 63.8788H603.478V70.5793H619.995V115.249H627.138V70.5793H643.655V63.8788ZM711.511 63.8788H678.476V115.249H712.851V108.549H685.619V92.4676H710.172V85.7671H685.619V70.5793H711.511V63.8788ZM387.284 91.3227C386.579 93.0598 385.878 94.7845 385.178 96.4867H404.374C402.811 92.6895 401.249 88.7805 399.686 84.8715C398.124 80.9632 396.562 77.0549 394.999 73.2583C392.228 79.15 389.726 85.3105 387.284 91.3227ZM549.336 91.3223C548.63 93.0595 547.929 94.7843 547.229 96.4867H566.425C564.863 92.6901 563.3 88.7818 561.738 84.8735C560.175 80.9646 558.613 77.0556 557.05 73.2583C554.279 79.1498 551.777 85.3102 549.336 91.3223Z" fill="#979E96"/>
</svg>
