<svg width="1203" height="176" viewBox="0 0 1203 176" fill="none" xmlns="http://www.w3.org/2000/svg">
<g clip-path="url(#clip0_303_206)">
<path d="M136.38 73.9209L81.4575 71.4754C49.4007 70.1044 34.3174 65.2136 34.3174 49.4291C34.3174 32.0144 55.8121 22.2324 101.247 22.2324C147.832 22.2324 171.254 30.9398 190.191 41.0181L201.902 19.787C179.888 8.0784 152.538 -0.0732422 101.247 -0.0732422C41.9517 -0.0732422 5.85541 18.1567 5.85541 51.6152C5.85541 82.3689 31.7973 93.2253 76.9733 95.7078L131.896 98.1533C167.585 99.7836 183.224 104.415 183.224 122.349C183.224 140.282 162.026 153.621 110.142 153.621C60.4817 153.621 30.945 141.097 14.4904 130.5L0 150.879C23.9777 166.108 56.3309 175.89 110.179 175.89C166.806 175.89 212.538 160.105 212.538 120.311C212.501 85.0366 182.372 76.1811 136.38 73.9209ZM274.947 2.89092H246.226V172.666H424.706V148.434H274.947V3.00208V2.89092ZM460.617 172.629H489.338V3.00208H460.617V172.777V172.629ZM715.774 140.727L576.244 2.81686H538.406V172.777H567.127V34.3116L706.917 172.073H744.495V3.00208H715.774V140.838V140.727ZM790.746 172.629H965.372V148.397H819.505V97.1159H965.372V73.9209H819.505V27.1976H965.372V2.9651H790.783V172.74L790.746 172.629ZM1202.96 2.85395H1162.2L1094.27 68.1036L1027.11 2.85395H986.348L1075.07 87.8156L986.348 172.629H1027.11L1094.27 106.898L1160.53 172.629H1201.3L1113.83 87.4081L1202.96 2.85395Z" fill="#005BAA"/>
</g>
<defs>
<clipPath id="clip0_303_206">
<rect width="1203" height="176" fill="white"/>
</clipPath>
</defs>
</svg>
