<svg width="794" height="176" viewBox="0 0 794 176" fill="none" xmlns="http://www.w3.org/2000/svg">
<g clip-path="url(#clip0_295_67)">
<path fill-rule="evenodd" clip-rule="evenodd" d="M0 16.0769C0 24.9192 0.333512 32.1538 0.74321 32.1538C1.95029 32.1538 124.274 1.72446 126.126 0.962924C127.057 0.580462 99.0604 0.206459 63.9094 0.13369L0 0V16.0769ZM91.42 22.6989C46.2602 34.0814 7.21541 43.9272 4.65565 44.5771C0.286111 45.6838 0 46.3286 0 55.0321C0 63.5546 0.309813 64.2992 3.80917 64.2028C5.90506 64.1452 45.3291 58.5911 91.42 51.8608L175.222 39.6237L175.701 20.658C175.963 10.2266 175.582 1.76169 174.854 1.84631C174.125 1.93092 136.58 11.3148 91.42 22.6989ZM634.861 41.8186C624.385 47.1714 623.004 52.5022 623.109 87.1538C623.254 134.936 624.257 136.231 661.107 136.231C683.129 136.231 685.853 135.899 690.184 132.684C698.563 126.461 699.145 123.56 699.145 88C699.145 52.4429 698.563 49.5406 690.189 43.3163C686.006 40.2075 682.655 39.7083 663.102 39.2802C644.349 38.8706 639.84 39.2751 634.861 41.8186ZM226.011 42.2298C217.994 45.5451 214.292 52.0842 213.611 64.1334C212.934 76.1166 215.132 83.1888 221.062 88.1083C222.654 89.4283 232.036 92.4609 241.913 94.8471L259.87 99.1845L260.396 106.409C261.231 117.864 259.978 118.462 235.115 118.462H213.313V126.923V135.385H240.455C280.243 135.385 284.418 132.773 284.418 107.898C284.418 87.2131 281.359 84.0705 255.903 78.6212C240.34 75.2891 237.015 73.1043 237.015 66.2183C237.015 58.5606 239.576 57.5385 258.753 57.5385C278.518 57.5385 280.878 56.3251 280.978 46.1154L281.032 40.6154L255.214 40.722C241.015 40.7812 227.873 41.4598 226.011 42.2298ZM292.036 49.0769V57.5385H305.157H318.277V96.4615V135.385H330.128H341.979V96.4615V57.5385H352.721C365.111 57.5385 369.066 54.7411 369.066 45.9817V40.6154H330.551H292.036V49.0769ZM382.61 88V135.385H415.623H448.635V126.923V118.462H427.473H406.311V107.462V96.4615H421.548H436.785V87.1538V77.8462H421.548H406.311V67.6923V57.5385H425.574C446.897 57.5385 447.809 57.1255 448.942 46.9615L449.648 40.6154H416.129H382.61V88ZM465.565 88V135.385H499.424H533.284V126.974V118.563L511.698 118.089L490.113 117.615L489.608 107.038L489.106 96.4615H504.422H519.74V87.1538V77.8462H504.503H489.267V67.6923V57.5385H508.473C530.047 57.5385 533.284 56.0306 533.284 45.9817V40.6154H499.424H465.565V88ZM548.52 88V135.385H580.687H612.853V126.977V118.568L592.961 118.093L573.068 117.615L572.613 79.1154L572.157 40.6154H560.339H548.52V88ZM719.51 87.9289V135.385H731.36H743.211L743.174 121.423C743.155 113.745 742.097 100.608 740.824 92.2308C739.551 83.8538 738.752 76.736 739.05 76.4128C739.742 75.6597 743.556 83.3715 756.706 112.115L767.349 135.385H780.675H794V88V40.6154H781.303H768.606V52.4734C768.606 58.9939 769.765 72.05 771.184 81.4863C772.601 90.9209 773.432 98.9712 773.029 99.3723C772.626 99.7751 770.305 95.6678 767.871 90.244C765.436 84.8218 759.425 71.6269 754.512 60.9231L745.58 41.4615L732.545 40.9674L719.51 40.4732V87.9289ZM165.91 53.5006C164.514 53.8543 129.088 59.0785 87.1876 65.1065C45.2868 71.1345 8.52915 76.5025 5.50213 77.0338C0.0287803 77.9951 0 78.0509 0 87.9425C0 97.4295 0.213313 97.9288 4.65565 98.8375C10.2898 99.9883 170.109 120.154 173.603 120.154C175.679 120.154 176.068 114.804 176.068 86.3077V52.4615L172.259 52.6578C170.165 52.7661 167.307 53.1452 165.91 53.5006ZM673.634 58.1849C674.969 59.7926 675.43 69.454 675.112 89.0695L674.646 117.615L661.526 118.11L648.405 118.604V88.2115C648.405 65.4822 648.938 57.6062 650.521 56.9665C655.309 55.0355 671.738 55.902 673.634 58.1849ZM0 120.788V129.885L85.4828 151.25C132.498 163.001 172.113 172.615 173.517 172.615C175.642 172.615 176.068 169.375 176.068 153.23V133.846L170.566 132.888C163.445 131.651 4.90282 111.708 2.1162 111.699C0.68565 111.694 0 114.637 0 120.788ZM0 159.923V176L64.7559 175.846L129.512 175.692L66.8721 159.818C32.4203 151.088 3.28096 143.922 2.1162 143.895C0.568836 143.86 0 148.163 0 159.923Z" fill="black"/>
</g>
<defs>
<clipPath id="clip0_295_67">
<rect width="794" height="176" fill="white"/>
</clipPath>
</defs>
</svg>
