<svg width="902" height="176" viewBox="0 0 902 176" fill="none" xmlns="http://www.w3.org/2000/svg">
<g clip-path="url(#clip0_298_167)">
<path d="M121.88 123.333L176.092 92.864L186.162 58.7051L121.88 94.8307V123.333ZM121.88 176L157.489 155.991L167.559 121.831L121.88 147.498V176ZM27.2755 92.864L81.4918 123.333V94.8307L17.21 58.7051L27.2755 92.864ZM45.8823 155.991L81.4918 176V147.498L35.8134 121.831L45.8823 155.991Z" fill="black"/>
<path d="M0 0V24.9854L81.492 70.7802V42.2823L50.7112 24.9854H152.657L121.88 42.2823V70.7811L203.372 24.9854V0H0Z" fill="#EA5445"/>
<path d="M440.398 24.8392H417.428C417.298 24.8396 417.17 24.8656 417.05 24.9156C416.93 24.9657 416.822 25.0388 416.73 25.1309C416.639 25.2229 416.567 25.3321 416.517 25.4521C416.468 25.5721 416.443 25.7007 416.443 25.8304V149.481C416.443 150.029 416.884 150.473 417.428 150.473H440.398C440.528 150.473 440.656 150.447 440.776 150.397C440.896 150.347 441.004 150.273 441.096 150.181C441.187 150.089 441.26 149.98 441.309 149.86C441.358 149.74 441.383 149.611 441.382 149.481V25.8304C441.383 25.7007 441.358 25.5721 441.309 25.4521C441.259 25.3321 441.187 25.2229 441.096 25.1309C441.004 25.0388 440.896 24.9657 440.776 24.9156C440.656 24.8656 440.528 24.8396 440.398 24.8392ZM710.978 24.8251H659.171C657.051 24.827 654.99 25.5175 653.296 26.7926C651.597 28.0722 650.355 29.8654 649.754 31.9066L618.033 139.358C618.007 139.448 617.994 139.542 617.995 139.637V149.485C617.995 149.745 618.097 149.995 618.28 150.181C618.37 150.272 618.478 150.344 618.596 150.394C618.714 150.443 618.841 150.469 618.969 150.469H640.066C640.276 150.471 640.481 150.403 640.649 150.277C640.818 150.151 640.941 149.973 641.001 149.771L647.975 126.042C648.036 125.84 648.16 125.663 648.329 125.537C648.498 125.411 648.704 125.344 648.915 125.344H721.148C721.358 125.343 721.563 125.411 721.731 125.537C721.899 125.662 722.023 125.84 722.084 126.042L729.058 149.771C729.118 149.972 729.242 150.149 729.41 150.275C729.579 150.401 729.783 150.469 729.993 150.469H751.09C751.348 150.469 751.597 150.365 751.781 150.181C751.964 149.996 752.067 149.745 752.067 149.485V139.637C752.066 139.544 752.054 139.451 752.029 139.361L720.41 31.8999C719.808 29.857 718.563 28.0627 716.861 26.7835C715.164 25.5093 713.099 24.8225 710.978 24.8251ZM655.926 98.9543L670.139 50.6771C670.2 50.4744 670.326 50.2969 670.496 50.171C670.666 50.0451 670.873 49.9775 671.085 49.9781H698.978C699.19 49.9761 699.397 50.0431 699.567 50.169C699.738 50.295 699.863 50.473 699.924 50.6763L714.136 98.9543C714.209 99.2043 714.182 99.4733 714.059 99.7031C713.935 99.9315 713.726 100.102 713.477 100.177C713.387 100.205 713.294 100.218 713.2 100.215H656.877C656.683 100.219 656.493 100.164 656.331 100.058C656.168 99.9514 656.042 99.799 655.967 99.6201C655.877 99.4095 655.863 99.1742 655.926 98.9543ZM894.963 91.0592L802.938 63.5866C802.736 63.5245 802.561 63.3994 802.436 63.2298C802.311 63.0601 802.244 62.8549 802.245 62.6443V50.9528C802.245 50.6904 802.348 50.4389 802.532 50.2537C802.623 50.1621 802.731 50.0893 802.85 50.0396C802.969 49.9899 803.097 49.9642 803.226 49.964H891.212C891.47 49.964 891.719 49.8602 891.909 49.6743L901.718 39.795C901.9 39.6091 902 39.3583 902 39.0977V25.8404C902 25.5789 901.9 25.329 901.718 25.1438C901.532 24.9609 901.282 24.8575 901.021 24.8558H787.115C785.824 24.8565 784.545 25.1128 783.353 25.6101C782.162 26.1074 781.08 26.8357 780.171 27.7531C778.327 29.6137 777.293 32.1282 777.295 34.7483V74.7294C777.294 76.8638 777.979 78.9419 779.249 80.6569C780.515 82.3664 782.301 83.6193 784.338 84.2275L876.351 111.703C876.558 111.764 876.732 111.889 876.857 112.06C876.981 112.231 877.048 112.437 877.048 112.65V124.355C877.048 124.484 877.023 124.612 876.973 124.732C876.923 124.851 876.857 124.96 876.765 125.052C876.674 125.144 876.566 125.217 876.45 125.267C876.334 125.317 876.201 125.343 876.077 125.343L788.317 125.392C788.188 125.391 788.061 125.415 787.941 125.465C787.822 125.514 787.714 125.587 787.624 125.679L777.572 135.806C777.388 135.991 777.284 136.242 777.284 136.504V149.48C777.284 149.743 777.388 149.994 777.571 150.179C777.755 150.365 778.005 150.468 778.265 150.468H892.158C894.764 150.468 897.262 149.426 899.112 147.568C900.958 145.705 901.992 143.188 901.992 140.565V100.55C901.992 98.4163 901.303 96.34 900.033 94.6298C898.773 92.9225 896.995 91.6704 894.963 91.0592ZM390.47 39.1533V25.8412C390.47 25.5792 390.366 25.328 390.181 25.1422C390.09 25.0507 389.982 24.9781 389.862 24.9285C389.743 24.8789 389.615 24.8533 389.486 24.8533H266.75C266.489 24.8533 266.239 24.9571 266.054 25.1422C265.87 25.328 265.766 25.5792 265.765 25.8412V48.9869C265.765 49.2487 265.869 49.4998 266.053 49.6855C266.238 49.8712 266.488 49.9764 266.75 49.9781H314.663C314.924 49.9781 315.175 50.0827 315.36 50.2687C315.544 50.4554 315.648 50.7075 315.648 50.9702V149.478C315.648 149.74 315.751 149.992 315.935 150.178C316.119 150.364 316.368 150.468 316.628 150.469H339.603C339.865 150.467 340.115 150.362 340.299 150.176C340.484 149.991 340.587 149.74 340.587 149.478V50.9561C340.587 50.6929 340.691 50.4414 340.875 50.2546C341.06 50.0686 341.311 49.964 341.572 49.964H379.735C379.864 49.9641 379.992 49.9385 380.111 49.8888C380.23 49.839 380.338 49.7661 380.429 49.6743L390.183 39.8515C390.365 39.6655 390.468 39.4148 390.47 39.1533ZM592.803 35.4905C592.803 32.8339 591.756 30.2852 589.891 28.4065C588.971 27.4775 587.876 26.7398 586.669 26.236C585.463 25.7322 584.169 25.4722 582.861 25.4709H472.347C472.179 25.4715 472.013 25.5052 471.858 25.5702C471.703 25.6352 471.563 25.7301 471.445 25.8495C471.206 26.0911 471.071 26.4182 471.071 26.7594V149.904C471.071 150.244 471.206 150.571 471.445 150.813C471.685 151.054 472.008 151.189 472.347 151.189H494.753C495.091 151.189 495.415 151.054 495.654 150.813C495.894 150.571 496.029 150.244 496.029 149.904V117.721C496.028 117.444 496.116 117.174 496.281 116.952C496.446 116.73 496.679 116.567 496.944 116.488L538.625 104.063C538.889 103.986 539.171 103.996 539.429 104.091C539.687 104.187 539.907 104.364 540.056 104.595L569.725 150.619C569.841 150.798 570 150.945 570.187 151.046C570.374 151.148 570.583 151.202 570.796 151.203H591.527C591.865 151.203 592.19 151.068 592.429 150.826C592.669 150.585 592.803 150.258 592.803 149.918V140.621C592.801 140.374 592.729 140.131 592.595 139.923L565.426 97.7779C565.318 97.6103 565.251 97.4203 565.228 97.2224C565.205 97.0245 565.228 96.824 565.295 96.6364C565.362 96.4493 565.471 96.2803 565.614 96.1426C565.757 96.0049 565.93 95.9023 566.12 95.8427L585.669 90.0081C587.729 89.3932 589.534 88.1267 590.813 86.3985C592.098 84.6643 592.79 82.5628 592.789 80.4045L592.803 35.4905ZM497.304 50.634H566.566C566.734 50.6334 566.901 50.6662 567.056 50.7306C567.212 50.7951 567.352 50.8898 567.471 51.0092C567.59 51.1286 567.685 51.2705 567.749 51.4266C567.814 51.5828 567.846 51.7502 567.846 51.9191V68.1642C567.845 68.4406 567.755 68.7093 567.591 68.9311C567.426 69.153 567.195 69.3162 566.931 69.3971L497.668 90.0671C497.38 90.1537 497.071 90.1354 496.796 90.0153C496.52 89.8952 496.296 89.6811 496.164 89.4112C496.075 89.232 496.028 89.0345 496.029 88.8343V51.9025C496.033 51.5646 496.17 51.2425 496.408 51.0051C496.646 50.7681 496.968 50.6342 497.304 50.634Z" fill="black"/>
</g>
<defs>
<clipPath id="clip0_298_167">
<rect width="902" height="176" fill="white"/>
</clipPath>
</defs>
</svg>
