<svg width="462" height="176" viewBox="0 0 462 176" fill="none" xmlns="http://www.w3.org/2000/svg">
<g clip-path="url(#clip0_299_171)">
<path d="M-4.82813e-05 122.496C-4.82813e-05 127.072 3.82344 131.648 9.03733 131.648H43.8138V166.851C43.8138 171.427 47.6373 176.003 52.8512 176.003H82.5853V92.4008H-0.000488281L-4.82813e-05 122.496ZM110.231 0.000123438C73.8924 0.000123438 44.8613 29.215 44.8613 65.2906V79.199H81.367V65.2906C81.367 49.631 94.0609 36.9601 110.23 36.9601C126.224 36.9601 137.355 48.2197 137.355 64.9386C137.355 81.487 125.356 93.6299 109.354 93.6299H95.6219V130.58H109.354C145.006 130.58 173.87 101.198 173.87 64.9331C173.87 27.279 146.921 -0.000976562 110.23 -0.000976562" fill="#4ACBD6"/>
<path d="M462 131.648L439.218 105.606L459.564 82.1943H446.861L428.614 104.018V59.8522L417.83 65.3037V128.839C417.83 130.418 419.044 131.654 420.439 131.654H428.614V107.016L448.779 131.654H462.001L462 131.648ZM384.1 80.7808C375.402 80.7808 366.36 85.3655 361.841 92.0492V129.008C361.841 130.412 363.064 131.648 364.45 131.648H372.625V96.4492C375.225 93.1097 379.405 90.9977 384.1 90.9977C391.575 90.9977 396.961 96.9772 396.961 104.897V131.648H407.569V104.545C407.574 90.9977 397.485 80.782 384.101 80.782M345.501 58.7908C341.506 58.7908 338.197 61.9631 338.197 66.0066C338.197 67.9426 338.888 69.522 340.107 70.7584H350.891C352.105 69.522 352.8 67.9426 352.8 66.0066C352.805 61.9587 349.5 58.7908 345.501 58.7908ZM350.895 131.648V82.1933H340.111V129.008C340.111 130.412 341.334 131.648 342.72 131.648H350.895ZM318.376 129.008C318.376 130.412 319.599 131.648 320.985 131.648H329.16V59.8512L318.376 65.3027V129.008ZM294.208 112.293H308.816V101.377H288.99L294.208 112.293ZM256.131 81.3177C246.918 81.3177 237.181 86.2456 232.311 93.4617V147.66C232.311 149.072 233.525 150.3 234.92 150.3H243.086V97.8617C245.695 93.9854 250.566 91.5214 255.956 91.5214C264.298 91.5214 270.388 97.8617 270.388 106.833C270.388 115.638 264.299 122.326 255.956 122.326H248.305V131.654H256.132C270.564 131.654 281.167 121.27 281.167 106.839C281.163 92.2263 270.387 81.3198 256.132 81.3198M207.795 115.102V91.8754H221.703V82.1956H207.795V67.2444L197.011 72.6959V117.403C197.011 126.551 202.401 131.659 211.966 131.659H225.875V122.331H214.752C209.529 122.327 207.795 120.382 207.795 115.102Z" fill="black"/>
</g>
<defs>
<clipPath id="clip0_299_171">
<rect width="462" height="176" fill="white"/>
</clipPath>
</defs>
</svg>
