<svg width="704" height="176" viewBox="0 0 704 176" fill="none" xmlns="http://www.w3.org/2000/svg">
<g clip-path="url(#clip0_297_142)">
<mask id="mask0_297_142" style="mask-type:luminance" maskUnits="userSpaceOnUse" x="0" y="0" width="704" height="176">
<path d="M704 0H0V176H704V0Z" fill="white"/>
</mask>
<g mask="url(#mask0_297_142)">
<path d="M293.786 15.6956C289.208 10.8823 283.635 6.90606 277.465 4.18549C271.295 1.46493 264.328 0 256.964 0H204.617V58.1783C204.617 61.5267 205.811 64.4566 207.802 66.7587C209.991 69.0606 212.777 70.3163 215.961 70.3163C219.147 70.3163 221.933 69.0606 224.122 66.7587C226.312 64.4566 227.506 61.5267 227.506 58.1783V24.0666H256.367C260.547 24.0666 264.528 24.9037 268.11 26.3687C271.693 27.8335 274.877 30.1356 277.465 32.8561C280.052 35.5768 282.043 38.925 283.635 42.4828C285.028 46.2497 285.825 50.2259 285.825 54.6207C285.825 59.0154 285.028 63.2009 283.635 66.7587C282.242 70.5256 280.052 73.6647 277.465 76.3852C274.877 79.1058 271.693 81.1986 268.11 82.8728C264.528 84.3377 260.547 85.1748 256.367 85.1748H204.617V175.791H227.506V109.451H256.964C264.328 109.451 271.295 107.986 277.465 105.265C283.635 102.545 289.208 98.5684 293.786 93.7551C298.364 88.9417 302.145 83.082 304.734 76.3852C307.321 69.6885 308.713 62.5732 308.713 54.8299C308.713 47.0868 307.321 39.7621 304.734 33.2747C302.145 26.5779 298.563 20.7182 293.786 15.6956Z" fill="black"/>
<path d="M416.991 87.6863C423.361 78.6875 426.745 67.5959 426.745 54.8302C426.745 47.087 425.351 39.7624 422.764 33.2749C420.176 26.5781 416.394 20.7184 411.817 15.9051C407.238 10.8825 401.666 7.11554 395.296 4.39496C388.927 1.6744 382.16 0.209473 374.795 0.209473H322.647V58.3878C322.647 61.7362 323.841 64.4568 325.832 66.9681C328.021 69.2701 330.807 70.5257 333.993 70.5257C337.177 70.5257 339.964 69.2701 342.153 66.9681C344.343 64.666 345.536 61.7362 345.536 58.3878V24.0668H374.397C378.577 24.0668 382.359 24.9039 385.941 26.3688C389.524 27.8337 392.709 30.1357 395.296 32.8563C397.884 35.5769 400.073 38.9253 401.467 42.483C403.058 46.2499 403.656 50.2261 403.656 54.6209C403.656 59.0157 402.859 63.2012 401.467 66.7588C400.073 70.5257 397.884 73.6649 395.296 76.3854C392.709 79.1061 389.524 81.1988 385.941 82.873C382.359 84.3379 378.378 85.175 374.198 85.175H322.448V175.791H345.337V109.451H367.829L405.646 175.582L406.044 175.791H432.716L392.709 105.684C402.859 101.917 411.02 95.8481 416.991 87.6863Z" fill="black"/>
<path d="M553.721 21.1367C549.74 15.277 544.367 10.2545 537.799 6.06896C531.428 2.30203 523.468 0.209275 513.913 0H512.72V24.9037H513.714C520.084 25.113 525.258 26.5779 528.642 29.2985C532.623 32.2284 535.409 35.786 537.201 39.5529C538.992 43.3199 540.187 47.0868 540.585 50.4352C541.182 55.2485 541.182 56.7135 541.182 57.132V118.449C541.182 119.077 540.983 120.751 540.386 125.146C539.788 128.494 538.594 132.262 536.604 136.028C534.614 139.796 531.827 143.144 527.846 146.284C524.462 149.004 519.487 150.469 513.515 150.678H512.521V175.791H513.714C522.87 175.582 530.832 173.489 537.201 169.722C543.769 165.746 549.143 160.723 553.124 154.654C557.105 148.795 559.892 142.516 561.683 136.028C563.276 129.542 564.071 123.891 564.071 118.868V57.132C564.071 52.3186 563.276 46.4589 561.683 39.9715C560.289 33.2747 557.503 26.9964 553.721 21.1367Z" fill="black"/>
<path d="M473.122 6.06896C466.553 10.0452 461.179 15.277 457.198 21.1367C453.218 26.9964 450.63 33.2747 449.038 39.9715C447.446 46.4589 446.649 52.3186 446.649 57.132V118.868C446.649 123.891 447.446 129.542 449.038 136.028C450.63 142.516 453.616 148.795 457.398 154.654C461.378 160.514 466.752 165.537 473.32 169.722C479.69 173.489 487.453 175.582 496.807 175.791H498.002V150.887H497.006C491.036 150.678 486.059 149.213 482.676 146.493C478.695 143.562 475.908 140.005 473.917 136.238C471.927 132.471 470.733 128.704 470.136 125.356C469.34 120.751 469.34 119.077 469.34 118.659V57.132C469.737 56.5041 469.936 55.0393 470.335 50.4352C470.733 47.0868 471.927 43.3199 473.718 39.5529C475.51 35.786 478.496 32.4376 482.277 29.2985C485.86 26.5779 490.836 25.113 497.205 24.9037H498.201V0H497.006C487.453 0.209275 479.491 2.30203 473.122 6.06896Z" fill="black"/>
<path d="M703.999 0H676.93L566.264 174.954L565.866 175.791H592.736L703.401 0.837099L703.999 0Z" fill="black"/>
<path d="M642.297 120.336L676.93 175.374V175.584L703.004 176.002H703.999L655.632 98.9893L642.297 120.336Z" fill="black"/>
<path d="M614.038 67.805C617.023 67.805 619.809 66.5493 621.8 64.2474C623.79 61.9453 624.985 59.0154 624.985 55.667C624.985 53.3651 624.388 50.8538 622.994 48.5517L594.133 1.25565L593.537 0H566.865L605.08 62.5732C607.27 65.9216 610.256 67.805 614.038 67.805Z" fill="black"/>
<path d="M131.366 97.9408C131.366 104.219 135.347 110.497 142.911 110.497H187.495V85.3843H142.911C135.347 85.3843 131.366 91.6625 131.366 97.9408Z" fill="black"/>
<path d="M90.9613 121.171C90.9613 121.38 90.9613 122.845 90.3642 127.448C89.9661 130.588 88.7719 134.145 86.9805 137.702C85.1892 141.261 82.2037 144.399 78.2229 147.33C74.8392 149.841 70.0623 151.306 63.8921 151.515C60.3094 151.515 53.144 151.515 49.5613 151.515C43.391 151.306 38.6142 149.841 35.2305 147.33C31.2497 144.399 28.2641 141.051 26.4728 137.493C24.6815 133.936 23.4872 130.379 23.0891 127.239C22.492 122.635 22.492 121.379 22.492 120.96V0H-0.397461V120.96C-0.397461 125.774 0.398694 131.216 1.991 137.493C3.58332 143.772 6.36986 149.841 10.3506 155.492C14.3314 161.141 19.7054 165.955 26.2737 169.931C32.6429 173.489 40.4055 175.582 49.7603 175.791H64.0911C73.4459 175.582 81.4075 173.489 87.5777 169.931C94.1459 165.955 99.52 161.141 103.501 155.492C107.482 149.841 110.268 143.772 111.86 137.493C113.453 131.216 114.249 125.565 114.249 120.96V0H90.9613V121.171Z" fill="black"/>
</g>
</g>
<defs>
<clipPath id="clip0_297_142">
<rect width="704" height="176" fill="white"/>
</clipPath>
</defs>
</svg>
