<svg width="638" height="176" viewBox="0 0 638 176" fill="none" xmlns="http://www.w3.org/2000/svg">
<g clip-path="url(#clip0_300_195)">
<path d="M409.973 175.388C405.077 174.165 401.142 171.106 399.656 167.436C396.771 160.183 397.47 161.231 404.64 161.319C411.809 161.494 411.547 160.794 411.809 163.241C412.508 168.572 421.776 168.485 425.711 163.766C427.547 161.581 427.897 159.921 427.809 155.813C427.809 153.104 427.809 151.444 427.547 151.968C426.498 154.59 420.64 157.124 415.394 157.124C407.35 157.124 403.241 154.328 399.044 146.288C397.383 143.142 397.033 140.957 396.946 134.84C396.946 128.199 397.208 126.8 399.569 122.169C401.142 119.11 403.416 116.226 405.164 115.003C411.984 110.459 421.077 110.284 425.448 114.741L427.896 117.188V115.09C427.722 112.032 428.071 112.993 434.978 112.993L441.361 113.08L441.448 137.811C441.536 155.114 441.623 162.367 439.962 165.076C438.126 168.135 435.153 172.068 431.744 173.903C428.946 175.825 414.432 176.612 409.973 175.388ZM424.312 146.288C426.935 143.492 427.984 140.083 427.984 134.665C427.984 129.422 426.235 124.266 423.787 122.431C421.252 120.508 416.268 120.945 414.082 123.305C409.011 128.636 409.273 142.443 414.519 146.55C417.667 148.822 421.951 148.735 424.312 146.288ZM479.132 158.785C474.148 156.687 472.749 150.832 472.749 132.743V122.081L469.951 121.994C467.416 121.994 467.328 122.606 467.328 117.625C467.328 112.294 467.416 113.255 469.864 113.255C473.274 113.255 472.487 113.08 472.662 108.711L472.924 104.167L479.481 101.72C483.066 100.409 486.126 99.2731 486.301 99.2731C486.388 99.2731 486.476 102.419 486.476 106.264L486.563 113.255H497.055V121.994H486.563V134.665C486.563 146.201 486.563 148.123 488.137 149.696C489.186 150.745 491.197 150.832 493.121 150.832C496.88 150.832 496.006 150.832 496.181 154.677C496.443 158.872 496.181 158.872 494.257 159.047C491.285 159.221 481.23 159.658 479.132 158.785ZM506.848 158.173C498.279 153.978 497.492 141.307 505.361 134.403C508.771 131.345 512.793 129.597 521.186 129.684C527.482 129.772 527.219 129.247 527.132 126.538C526.957 122.868 525.471 120.508 522.498 119.897C519.175 119.198 515.241 120.246 515.591 123.742C515.853 127.15 515.503 126.276 508.421 126.451H502.126L502.563 122.868C503.525 115.789 509.558 112.207 520.662 112.032C530.367 111.944 535.7 114.391 538.76 120.334C540.596 123.917 540.771 125.577 540.946 141.482L541.208 158.785H535.263C529.318 158.785 528.094 159.047 528.618 156.6L528.268 153.366L525.995 155.551C524.771 156.775 522.585 158.173 521.274 158.697C517.689 160.008 510.17 159.746 506.848 158.173ZM523.809 148.822C525.733 147.162 526.257 145.851 526.607 141.656L527.044 136.588L522.935 137.2C514.891 138.336 511.219 142.093 513.492 147.075C515.416 151.007 520.312 151.881 523.809 148.822ZM316.071 125.839V92.9812L332.508 93.3307C346.497 93.6803 349.557 93.9424 353.492 95.5154C360.486 98.3118 364.683 102.07 367.918 108.711C370.716 114.391 371.678 114.828 371.678 125.927C371.678 136.326 370.629 137.724 368.53 142.093C364.421 150.832 357.077 156.075 346.585 157.736C343.525 158.26 335.393 158.61 328.574 158.61H316.158V125.839H316.071ZM345.098 146.463C352.618 144.365 356.902 135.364 356.115 123.305C355.241 110.022 349.645 104.604 336.967 104.604H330.148V147.424H336.093C339.24 147.337 343.35 146.987 345.098 146.463ZM377.273 135.976V113.255H391.263V158.697H377.273V135.976ZM449.842 135.976V113.255H462.957V158.697H449.842V135.976ZM549.514 125.927V93.1559H562.629V158.697H549.514V125.927ZM572.334 108.012C570.061 105.74 569.624 104.691 569.624 101.108C569.624 97.5253 570.061 96.4767 572.334 94.2046C577.405 89.1361 585.799 90.7091 588.509 97.2632C591.307 104.079 586.586 110.721 578.979 110.721C575.744 110.634 574.52 110.197 572.334 108.012ZM584.575 106.352C586.323 104.604 587.11 102.943 587.11 101.021C587.11 97.2632 583.001 93.1559 579.241 93.1559C575.919 93.1559 571.372 97.2632 571.372 100.322C571.372 104.953 575.307 108.886 579.941 108.886C581.077 108.886 583.176 107.75 584.575 106.352ZM575.307 106.614C574.957 106.264 574.87 103.555 574.87 100.497V94.9911L580.116 95.2532C581.952 95.2532 583.7 96.2145 583.263 97.438C581.427 102.07 583.788 101.196 583.088 106.526C583.001 107.138 581.252 105.652 580.902 104.516C580.553 103.38 579.766 102.244 578.892 102.157C577.755 101.895 577.23 102.506 577.23 104.516C577.318 107.051 576.531 107.837 575.307 106.614ZM580.815 98.2245C580.29 96.5641 577.493 96.3019 577.493 97.9623C577.493 98.7488 578.017 99.5353 579.066 99.5353C580.203 99.5353 580.99 98.8362 580.815 98.2245ZM377.273 99.2731V93.1559H391.263V105.39H377.273V99.2731ZM448.968 99.2731V93.1559H463.831V105.39H448.968V99.2731ZM409.973 81.009C405.077 79.6981 401.317 76.7269 398.694 72.008C396.421 67.8133 396.159 66.5899 396.159 58.6376C396.159 51.2096 396.421 49.287 398.17 45.7915C401.929 38.2761 409.099 33.7319 417.492 33.7319C431.131 33.7319 439.438 42.5581 439.438 57.0646V61.6961H424.574C407.175 61.0844 409.711 61.7835 409.711 63.4439C409.711 67.0268 412.071 71.0467 414.782 72.008C418.541 73.3188 423.7 71.9206 424.749 69.0368C425.711 66.1529 425.361 66.7647 431.744 66.9394C438.563 67.1142 437.689 66.1529 437.689 69.0368C437.776 72.1827 434.104 76.8143 429.995 79.0864C425.798 81.3585 415.131 82.4072 409.973 81.009ZM425.011 49.3744C423.437 41.6842 413.82 40.286 410.847 47.2771C410.148 48.9375 409.361 51.2969 409.361 51.8213C409.361 52.3456 412.683 52.0834 417.58 52.0834H425.536L425.011 49.3744ZM453.339 80.4846C448.356 78.9116 443.809 74.3675 443.197 70.1728L442.673 66.9394H448.618C454.214 66.9394 455 66.0656 456.224 69.7359C457.099 72.4449 459.809 72.3575 462.432 72.3575C466.279 72.3575 469.339 70.0854 468.99 67.4638C468.64 65.2791 464.88 63.3565 456.224 60.8223C448.618 58.6376 444.858 55.6664 443.809 50.86C442.673 45.9663 443.634 42.7329 446.957 39.3247C450.804 35.4797 457.973 33.3823 465.143 33.9067C474.148 34.6058 478.52 37.577 480.443 44.0437L481.23 46.7528H474.935C469.776 46.7528 468.465 46.4906 467.591 45.0924C465.23 41.3347 457.711 42.2086 457.711 46.2284C457.711 48.6753 459.984 50.1609 466.891 51.996C477.733 54.7925 483.066 59.5988 483.066 66.2403C483.066 77.6008 467.678 84.9414 453.339 80.4846ZM494.607 80.572C489.973 78.4747 489.186 75.3287 489.186 58.7249V44.2185H486.563C484.552 44.1311 483.94 45.9663 483.94 39.9365C483.94 34.1688 483.766 35.0427 486.389 35.3923C489.449 35.7418 489.186 35.9166 489.186 30.6733L489.274 26.1291L495.394 23.857C498.804 22.6336 502.214 21.3228 502.389 21.3228C502.563 21.3228 502.214 25.1678 502.389 28.9255V35.3049H512.793V44.3933H502.126L502.389 57.5015C502.563 66.2403 502.651 70.9593 503.35 71.6584C503.962 72.2701 506.585 72.7071 508.771 72.6197L512.706 72.5323V76.3774C512.706 78.4747 513.055 80.4846 512.531 80.7468C512.093 81.009 507.984 81.3585 504.225 81.6207C499.328 81.7955 496.705 81.5333 494.607 80.572ZM527.307 80.8342C522.498 79.5234 516.902 73.6683 515.503 68.5124C514.804 65.8908 514.454 61.434 514.716 56.1907C515.066 48.9375 515.416 47.4519 517.689 43.6942C519.263 41.0725 521.973 38.4509 524.596 36.7905C528.531 34.3436 529.58 34.1688 536.4 34.1688C542.695 34.1688 544.443 34.5184 547.503 36.2662C554.148 40.0239 557.383 46.6654 557.383 56.1033V61.6961H528.531V64.6673C528.531 69.0368 531.591 72.3575 535.788 72.3575C539.46 72.3575 543.394 69.4737 543.394 67.4638C543.394 66.4151 544.793 66.9394 549.952 66.9394H556.509L555.984 69.3863C554.148 77.0765 548.028 81.0963 537.361 81.5333C533.689 81.6207 529.143 81.3585 527.307 80.8342ZM543.394 49.9861C543.394 46.4032 539.809 42.9951 535.962 42.9951C532.115 42.9951 528.531 46.4032 528.531 49.9861C528.531 52.0834 528.706 52.0834 535.962 52.0834C543.307 52.0834 543.394 52.0834 543.394 49.9861ZM319.044 47.714L311.087 15.3804H318.344C325.164 15.3804 325.689 15.4677 326.038 17.3029C326.301 18.3516 328.486 28.9255 330.847 40.723C333.295 52.5204 335.306 62.4826 335.481 62.9196C335.656 63.3565 338.191 54.0934 341.164 42.3833C344.137 30.6733 347.022 19.7498 347.547 18.1768L348.421 15.293L356.377 15.5551L364.333 15.8173L369.579 38.713C372.465 51.2969 375.088 61.7835 375.35 62.0457C375.612 62.3079 377.536 54.5303 379.634 44.8302C381.732 35.1301 384.006 24.4687 384.705 21.2354L386.017 15.293H392.487C396.858 15.293 398.957 15.6425 398.957 16.3416C398.957 16.866 395.459 31.285 391.088 48.2384C386.803 65.1917 383.219 79.2612 383.219 79.5234C383.219 79.7855 379.547 79.9603 375.175 79.9603H367.131L361.623 55.9285C357.863 39.6743 355.765 32.3337 355.328 33.4697C354.978 34.3436 352.443 43.7815 349.732 54.3555C347.022 64.9295 344.486 75.0666 343.962 76.8143L343.087 80.1351H327L319.044 47.714ZM563.329 57.7637L563.066 35.4797H575.657V42.8203L577.318 40.1112C579.154 37.14 584.575 34.5184 588.771 34.5184H591.394L588.422 40.4608C586.148 44.9176 585.974 46.4906 583.263 47.0149C578.105 47.9762 576.968 51.6465 576.531 66.5899L576.618 79.9603L569.799 80.0477H563.416L563.329 57.7637ZM594.979 57.7637V35.4797H601.536C608.618 35.4797 608.006 34.9553 608.006 37.2274L608.094 40.0239L610.717 37.8391C616.138 33.295 624.094 32.1589 630.564 36.0914C637.296 40.1986 637.384 40.286 637.733 61.3466L637.996 80.0477H631.351L624.706 79.9603L624.531 63.9682C624.269 48.5005 624.181 47.8014 622.17 45.7041C617.799 41.0725 611.941 42.3833 609.493 48.5879C608.356 51.3843 608.094 55.2294 608.094 66.0656V80.0477H594.979V57.7637Z" fill="black"/>
<path opacity="0.98" d="M11.8953 169.096C10.0593 168.397 7.17402 166.649 5.60025 165.076C-0.257694 159.396 -0.08283 162.804 0.179466 83.281L0.441762 11.4479L3.06472 7.69017C4.6385 5.50546 7.34889 3.05859 9.62212 1.92254L13.4691 0H145.754C274.978 0 278.126 0 281.361 1.66038C286.432 4.19464 289.929 8.73883 291.066 14.1569C291.765 17.3903 291.94 39.6743 291.765 87.8252C291.503 156.425 291.503 156.862 289.667 160.357C287.306 164.727 285.557 166.387 280.574 168.572C276.727 170.32 275.503 170.32 145.929 170.32C37.0758 170.32 14.7806 170.145 11.8953 169.096ZM87.1743 103.118C94.2563 88.6991 100.114 76.9891 100.202 77.0765C100.289 77.1638 101.426 87.7378 102.737 100.497C103.961 113.255 105.185 124.965 105.448 126.538L105.885 129.335H121.622C130.278 129.335 137.36 129.16 137.36 129.072C137.36 128.898 142.082 115.09 147.852 98.3992C153.623 81.708 158.169 67.7259 157.819 67.4637C157.47 67.2016 151.699 66.9394 144.967 66.9394H132.639L128.18 80.9215C122.672 100.147 123.983 99.0983 121.535 78.999C120.748 72.707 120.224 67.0268 119.874 66.5899C119.524 66.0655 112.092 65.4538 101.338 65.1043L83.3273 64.4926L76.1578 78.2125C72.2234 85.7279 68.6387 92.719 68.4638 92.4568C68.289 92.1946 69.0759 85.8153 70.0376 79.1738C70.9994 72.6197 71.7862 66.0655 71.7862 65.1917C71.7862 63.7934 71.6988 63.8808 59.4583 63.5313C52.6386 63.3565 46.9556 63.007 46.8681 63.1817C46.6933 63.4439 39.4364 127.237 39.4364 128.723C39.4364 129.072 47.3053 129.422 56.9228 129.422H74.4092L87.1743 103.118ZM204.595 128.111C213.601 126.189 219.896 123.48 228.202 117.887C256.617 98.9235 266.41 64.0556 248.049 47.5392C246.126 45.7915 242.366 43.432 239.656 42.1212L234.759 39.8491L204.421 39.5869L174.082 39.3247L171.284 47.8888C169.71 52.6077 168.224 56.9772 168.049 57.5015C167.699 58.3754 172.595 58.6375 190.694 58.6375C204.071 58.6375 215.087 58.9871 217.011 59.5988C221.382 60.8222 226.016 65.0169 227.328 68.862C228.727 73.0566 227.852 79.7855 225.142 85.3783C222.344 91.0586 214.738 98.3118 208.617 101.108C203.634 103.38 190.082 104.604 187.896 104.254C187.371 104.167 189.732 95.7775 192.967 86.2522C196.115 76.7269 198.563 68.862 198.388 68.6872C198.213 68.5124 190.606 68.1629 181.426 67.8133L164.814 67.2016L154.847 97.1758C149.338 113.692 143.83 128.81 144.442 128.985C147.153 129.772 196.814 129.772 204.595 128.111ZM74.2343 50.423C74.8464 45.9662 75.5458 41.422 75.8081 40.3734L76.3327 38.4508L62.8682 38.713L49.4037 38.9752L48.3545 46.3158C47.8299 50.423 47.3053 54.7924 47.3053 56.1033L47.2179 58.5501H73.0977L74.2343 50.423ZM118.475 50.9474C117.513 36.7031 118.912 39.3247 106.759 39.3247H96.6169L91.5459 48.9374L86.4748 58.5501H119.174L118.475 50.9474ZM164.464 50.0735C166.038 45.3545 167.437 41.0725 167.699 40.4608C168.049 39.5869 165.076 39.4121 154.672 39.4121H141.207L138.672 47.4518C137.273 51.9086 135.961 56.1907 135.699 57.0645C135.349 58.4628 136.311 58.6375 148.464 58.6375H161.579L164.464 50.0735Z" fill="#2C4592"/>
</g>
<defs>
<clipPath id="clip0_300_195">
<rect width="638" height="176" fill="white"/>
</clipPath>
</defs>
</svg>
