<svg width="1067" height="176" viewBox="0 0 1067 176" fill="none" xmlns="http://www.w3.org/2000/svg">
<g clip-path="url(#clip0_303_290)">
<path fill-rule="evenodd" clip-rule="evenodd" d="M624.516 51.7206C609.572 55.3474 600.827 68.7112 600.827 87.92C600.827 100.414 603.98 109.39 610.761 116.193C616.788 122.241 621.006 123.916 631.449 124.406C639.701 124.794 640.229 124.717 645.146 122.408C654.347 118.087 658.962 112.515 661.913 102.158C662.753 99.2083 663.441 96.6854 663.441 96.5515C663.441 96.4185 661.23 96.4177 658.529 96.5491L653.615 96.7894L651.89 101.437C649.557 107.725 646.37 111.497 641.445 113.799C633.702 117.416 623.261 115.782 618.2 110.16C614.568 106.127 613.653 104.361 612.342 98.86C610.296 90.2736 611.258 77.3355 614.379 71.4833C616.159 68.146 621.088 63.2428 624.418 61.4971C629.001 59.0943 638.418 59.0862 642.952 61.4818C647.037 63.6403 650.156 66.9349 651.758 70.7858C653.014 73.8022 653.029 73.8095 657.827 73.8095C660.473 73.8095 662.634 73.7192 662.629 73.6079C662.624 73.4967 662.087 71.6446 661.436 69.4909C658.577 60.032 652.066 53.9371 642.371 51.644C636.175 50.1773 630.776 50.2007 624.516 51.7206ZM841.01 51.5811C823.509 55.4998 813.13 73.3547 816.11 94.4188C817.924 107.246 824.832 117.221 835.211 121.996C839.056 123.765 841.247 124.164 848.643 124.439C856.305 124.723 858.107 124.531 862.177 122.988C867.889 120.824 874.091 115.876 877.704 110.601C885.584 99.0955 886.139 80.5172 879.009 66.9147C872.469 54.4354 856.694 48.0696 841.01 51.5811ZM1028.62 51.5625C1019.53 53.8234 1012.36 60.0554 1007.87 69.6143C1005.34 74.9803 1005.32 75.1109 1005.32 87.92V100.821L1008.28 106.868C1011.78 114.013 1016.26 118.942 1022.03 121.98C1025.93 124.038 1026.88 124.185 1036.26 124.194C1045.58 124.203 1046.59 124.051 1050.32 122.071C1058.18 117.895 1065.48 107.771 1066.58 99.5083L1067 96.3863H1062.09C1057.38 96.3863 1057.16 96.4782 1056.7 98.6036C1055.92 102.247 1053.66 107.069 1051.56 109.579C1048.63 113.067 1042.35 115.721 1037 115.73C1027.67 115.747 1021.77 111.934 1017.66 103.24C1015.52 98.7229 1015.37 97.7328 1015.37 88.3231C1015.37 78.7498 1015.49 77.9814 1017.83 73.0032C1020.83 66.639 1022.68 64.5474 1027.51 62.0809C1036.06 57.7139 1046 59.0403 1052.05 65.3505C1053.88 67.2671 1055.63 69.9545 1055.93 71.322C1056.47 73.7837 1056.52 73.8095 1061.59 73.8095H1066.71L1065.64 70.3827C1063.84 64.5942 1063.03 63.0501 1059.95 59.4652C1053.44 51.9101 1040.43 48.6276 1028.62 51.5625ZM207.183 55.2643C208.092 56.8165 214.041 66.4543 220.404 76.6808L231.972 95.276V109.135V122.995H237.194H242.417V108.125C242.417 99.9469 242.725 93.065 243.101 92.832C243.477 92.5982 247.304 86.6807 251.603 79.6811C255.902 72.6823 261.359 63.8806 263.729 60.1224C266.099 56.3633 267.735 53.0978 267.362 52.8655C266.99 52.6325 264.346 52.5616 261.487 52.7075L256.29 52.9736L252.768 59.0169C250.831 62.3413 248.558 66.2124 247.716 67.6211C246.875 69.0289 245.784 70.9068 245.293 71.7937C242.181 77.4169 237.333 85.0955 236.902 85.0842C236.62 85.0761 234.98 82.6265 233.255 79.6416C231.53 76.6558 229.315 72.9427 228.333 71.3906C227.352 69.8384 224.52 65.0594 222.04 60.7706L217.531 52.9736L211.531 52.7075L205.53 52.4422L207.183 55.2643ZM281.787 87.5168V122.995H304.325H326.863L326.622 118.532L326.381 114.069L309.106 113.895L291.831 113.722L291.62 82.8805L291.41 52.0391H286.599H281.787V87.5168ZM474.621 87.7184L474.623 122.995H497.12H519.618V118.56V114.125H502.343C489.069 114.125 485.064 113.892 485.05 113.117C485.039 112.563 485.047 98.806 485.067 82.5467L485.104 52.9849L479.862 52.7131L474.62 52.4422L474.621 87.7184ZM342.049 87.92V122.995H347.271H352.494V87.92V52.8454H347.271H342.049V87.92ZM404.72 87.92V122.995H430.833H456.946V118.574V114.153L436.257 113.937L415.567 113.722L415.344 102.635L415.12 91.5484H434.025H452.929V86.7105V81.8726H434.047H415.165V71.7937V61.7148H436.056H456.946V57.2801V52.8454H430.833H404.72V87.92ZM534.884 87.92V122.995H560.997H587.11V118.574V114.152L566.019 113.937L544.928 113.722L544.704 102.635L544.481 91.5484H563.385H582.289V86.7105V81.8726H563.383H544.476L544.702 71.9953L544.928 62.118L565.617 61.9027L586.307 61.6874V57.2664V52.8454H560.595H534.884V87.92ZM673.083 57.2801V61.7148H684.733H696.384V92.3547V122.995H701.606H706.829V92.3547V61.7148H718.48H730.13V57.2801V52.8454H701.606H673.083V57.2801ZM744.593 87.92V122.995H749.815H755.038V108.078V93.161H768.375C787.9 93.161 788.484 93.6037 789.665 109.287C790.766 123.921 790.251 122.995 797.284 122.995C801.958 122.995 803.247 122.741 803.247 121.825C803.247 121.182 802.637 120.314 801.892 119.895C800.391 119.053 799.41 113.212 799.297 104.444C799.207 97.4853 798.18 94.2181 795.068 90.9961L792.487 88.3231L794.965 85.7026C799.157 81.2687 800.405 78.0539 800.365 71.7937C800.308 63.117 797.071 57.9308 789.588 54.5257C786.252 53.0083 784.368 52.8792 765.282 52.8631L744.593 52.8454V87.92ZM899.665 87.92V122.995H904.887H910.11L910.131 95.3784L910.152 67.7622L914.495 74.6158C920.309 83.7892 924.186 89.9446 935.445 107.876L944.938 122.995H950.423H955.908V87.92V52.8454H951.087H946.266V79.8568C946.266 94.7132 945.995 106.863 945.664 106.856C945.333 106.85 937.649 94.7059 928.59 79.8698L912.119 52.8938L905.892 52.8696L899.665 52.8454V87.92ZM976.799 87.92V122.995H981.62H986.441V87.92V52.8454H981.62H976.799V87.92ZM860.357 62.1502C868.656 66.3705 873.373 75.714 873.366 87.92C873.357 103.788 865.286 114.338 852.249 115.524C839.08 116.722 829.603 109.111 826.903 95.1663C825.437 87.5974 826.365 78.1499 829.113 72.6355C832.159 66.5253 838.041 61.739 844.626 60.0119C848.503 58.9951 856.213 60.0433 860.357 62.1502ZM782.656 61.7842C789.13 63.5887 791.927 70.3464 789.184 77.5556C786.97 83.3732 784.212 84.2521 768.095 84.2738L755.038 84.2916V72.6V60.9085L767.291 60.9133C774.031 60.9158 780.945 61.3076 782.656 61.7842Z" fill="#4C4C4C"/>
<path fill-rule="evenodd" clip-rule="evenodd" d="M73.2841 0.806838C53.4774 4.29091 38.1036 12.6072 23.8145 27.5659C15.0389 36.7523 9.37435 46.1998 4.7471 59.3661C2.04419 67.0559 1.81921 68.1509 0.442847 80.3012C-1.24607 95.2107 1.94214 112.18 9.21526 126.983C12.5931 133.858 19.266 143.553 24.1455 148.674C32.3499 157.284 45.4836 166.007 56.5194 170.176L61.6336 172.107V143.782V115.457L54.2737 102.898C37.7212 74.6538 31.1688 63.4404 27.9974 57.9333C23.6024 50.3007 22.8005 44.2832 25.4472 38.7963C29.8262 29.7188 42.6859 28.2618 50.2153 35.9903C51.4607 37.2675 55.7762 43.8502 59.8073 50.6184C70.7909 69.0628 85.8425 94.5439 88.9849 100.015L91.7641 104.853L92.1659 140.33C92.3868 159.843 92.8392 175.717 93.1702 175.607C93.5013 175.496 95.2191 175.405 96.9868 175.405H100.201L100.21 146.176C100.22 115.257 100.506 112.297 104.123 105.659C105.09 103.885 108.192 98.6238 111.016 93.9674C113.841 89.3109 118.194 82.0541 120.689 77.8411C123.185 73.6281 127.55 66.3713 130.388 61.7149C137.566 49.9395 138.825 47.2029 137.879 45.4282C136.892 43.5769 133.755 43.5543 132.178 45.3871C131.092 46.6489 124.096 57.7688 115.065 72.588C104.207 90.4059 98.1614 99.6011 97.46 99.3664C96.0346 98.8899 63.0991 42.9213 62.6652 40.2387C61.9373 35.7363 67.4709 31.8684 71.228 34.2535C72.2725 34.9171 83.5011 53.1067 93.5286 70.3803C95.6514 74.0369 97.5725 77.0308 97.7975 77.0324C98.0232 77.034 98.7159 76.2188 99.3385 75.2206C103.274 68.908 116.169 47.6084 118.498 43.5728C123.356 35.1541 128.793 31.0952 135.855 30.613C143.147 30.1155 150.103 34.8824 151.28 41.1829C152.603 48.2567 151.65 50.1 117.738 106.062C110.937 117.286 111.449 114.103 111.449 145.108V172.946L118.078 170.498C132.931 165.013 145.376 155.985 156.444 142.664C163.952 133.629 169.017 123.208 173.058 108.481C174.919 101.7 175.16 99.3406 175.161 87.92C175.164 76.5091 174.913 74.0531 172.997 66.6592C167.377 44.9734 154.371 26.3468 136.536 14.4392C127.415 8.34909 113.702 2.62024 104.058 0.869733C97.832 -0.259911 79.5617 -0.29781 73.2841 0.806838ZM36.381 43.6301C35.6868 44.3276 35.1187 45.3846 35.1187 45.9797C35.1187 46.5748 38.2474 52.4447 42.072 59.0242C45.8966 65.6045 50.1824 72.9831 51.5973 75.4222C53.0122 77.8613 57.2948 85.1181 61.1145 91.5484C64.9335 97.9788 68.9597 105.054 70.0613 107.272L72.0628 111.303L72.0708 142.936L72.0788 174.568L73.8867 174.937C74.8806 175.14 76.7037 175.463 77.937 175.653L80.1795 176L79.9457 142.44L79.7119 108.881L73.9903 99.2068C56.1354 69.0144 40.6507 43.6083 39.7572 43.0399C38.3021 42.1126 37.8071 42.1997 36.381 43.6301Z" fill="#4E6AA0"/>
</g>
<defs>
<clipPath id="clip0_303_290">
<rect width="1067" height="176" fill="white"/>
</clipPath>
</defs>
</svg>
