<svg width="760" height="176" viewBox="0 0 760 176" fill="none" xmlns="http://www.w3.org/2000/svg">
<g clip-path="url(#clip0_295_51)">
<path d="M382.28 0.126607L289.18 68.7539L335.033 175.24L285.127 175.367L253.967 95.0907L217.233 123.96L205.707 175.24L0 175.367L5.69999 142.699L125.4 31.2748H37.1133L42.94 0.126607L185.567 0L179.487 29.1223L53.8333 144.219L173.66 144.092L206.467 0L247.633 0.126607L229.393 75.5913L325.153 0L382.28 0.126607Z" fill="#494C50"/>
<path d="M562.78 171.822H480.573L492.987 116.743H551.76L546.82 138.774H511.607L509.073 149.79H567.72L562.78 171.822ZM577.727 105.727H495.52L500.46 83.6953H582.667L577.727 105.727Z" fill="#8AC142"/>
<path d="M658.16 149.79C657.02 154.855 655.88 158.273 654.866 160.426C653.093 164.098 650.433 166.757 646.886 168.656C642.706 170.808 636.88 171.948 629.533 171.948H594.32C586.72 171.948 581.4 170.808 578.106 168.403C575.446 166.503 574.18 163.591 574.18 159.666C574.18 158.273 574.306 156.627 574.686 154.981C574.813 154.221 575.193 152.575 575.826 149.916L583.3 116.869H606.86L599.386 149.916H634.6L637.133 138.901H660.566L658.16 149.79ZM665.633 116.742H642.2L644.733 105.726H586.086C587.226 100.788 588.24 97.243 589.38 95.2171C591.153 91.5452 593.813 88.7595 597.233 86.9869C601.413 84.8344 607.24 83.6948 614.586 83.6948H649.8C657.4 83.6948 662.72 84.8344 665.886 87.2401C668.546 89.266 669.813 92.1783 669.813 95.9768C669.813 97.3696 669.686 99.0157 669.306 100.788C669.18 101.421 668.8 103.194 668.293 105.726L665.633 116.742Z" fill="#8AC142"/>
<path d="M748.6 149.79C747.46 154.728 746.32 158.274 745.307 160.426C743.534 164.098 740.874 166.757 737.327 168.656C733.147 170.809 727.32 171.948 720.1 171.948H684.887C677.287 171.948 671.967 170.809 668.674 168.403C666.14 166.504 664.747 163.592 664.747 159.666C664.747 158.274 664.874 156.628 665.254 154.982C665.38 154.222 665.76 152.576 666.394 149.917L673.867 116.869H697.3L689.827 149.917H725.04L735.047 105.853H676.274C677.414 100.915 678.427 97.37 679.567 95.3441C681.34 91.6721 684 88.8865 687.547 87.1139C691.727 84.9614 697.554 83.8218 704.9 83.8218H740.114C747.714 83.8218 753.034 84.9614 756.2 87.3671C758.734 89.393 760.127 92.3052 760.127 96.1038C760.127 97.4966 760 99.1426 759.62 100.915C759.494 101.548 759.114 103.321 758.48 105.853L748.6 149.79Z" fill="#8AC142"/>
<path d="M382.153 0.126607L535.293 0L525.287 31.6547H468.54L425.473 175.114L386.84 175.24L428.26 31.4014L339.467 31.6547L382.153 0.126607Z" fill="#8AC142"/>
</g>
<defs>
<clipPath id="clip0_295_51">
<rect width="760" height="176" fill="white"/>
</clipPath>
</defs>
</svg>
